<?xml version="1.0" encoding="UTF-8"?>
<svg width="755px" height="255px" viewBox="0 0 755 255" version="1.1" xmlns="http://www.w3.org/2000/svg" xmlns:xlink="http://www.w3.org/1999/xlink">
    <!-- Generator: Sketch 50.2 (55047) - http://www.bohemiancoding.com/sketch -->
    <title>Android</title>
    <desc>Created with Sketch.</desc>
    <defs></defs>
    <g id="Page-1" stroke="none" stroke-width="1" fill="none" fill-rule="evenodd">
        <g id="Android">
            <g id="ChabokLogo" transform="translate(0.000000, 1.500000)" fill-rule="nonzero">
                <g id="Chabok-Logo-Blue-01-Copy-5">
                    <g id="Group" transform="translate(0.688828, 0.000000)">
                        <path d="M128.438961,181.211208 C129.479532,172.488159 125.464577,161.758572 125.455474,161.760844 L137.739675,149.600531 L230.255916,57.9801205 L241.479249,69.2702163 L143.151006,166.65496 L143.143316,166.662574 C143.939236,170.943099 144.400826,175.343898 144.400826,179.855898 C144.400826,183.575335 144.247763,186.254584 143.701394,189.821791 L184.214207,149.600531 L195.041506,159.469005 L125.555642,228.365365 C112.363102,242.795512 93.3676662,251.852127 72.2573263,251.852127 C32.4179058,251.852127 0.118379993,219.617757 0.118379993,179.853625 C0.118379993,156.855366 10.9364901,136.390506 27.7578318,123.210018 L92.6300679,58.6458477 L103.816977,69.9722971 C103.816977,69.9722971 44.6224277,129.226555 34.6534664,138.194558 C23.2343502,148.46675 16.0541483,163.337685 16.0541483,179.851353 C16.0541483,210.783807 41.2713633,235.945111 72.2573263,235.945111 C102.785705,235.945111 127.700141,211.517698 128.428633,181.221433 L128.438961,181.211208 Z M118.216082,147.564724 C114.307266,142.141207 107.286422,135.986071 107.288698,135.983799 L118.641795,124.739145 L185.394452,58.6617525 L196.617786,69.9563923 L129.646581,136.249635 L118.216082,147.564724 Z" id="Combined-Shape" fill="#0D47A1"></path>
                        <polygon id="Rectangle-path" fill="#00B9CD" transform="translate(181.388439, 28.925622) rotate(45.008103) translate(-181.388439, -28.925622) " points="172.965389 -2.17074934 189.81149 -2.64615541 189.81149 60.0219926 172.965389 60.4973987"></polygon>
                        <path d="M92.569418,128.411561 L104.760281,116.301235 L150.816927,70.5273835 L138.47955,57.9869368 L86.7679816,109.370619 L72.2869214,123.76214 C79.8222633,122.937365 92.569418,128.411561 92.569418,128.411561 Z" id="Shape" fill="#00B9CD"></path>
                    </g>
                </g>
            </g>
            <text id="+" fill="#00B9CD" font-family="IRANSans" font-size="138" font-weight="normal">
                <tspan x="348.6" y="171">+</tspan>
            </text>
            <g id="android-logo" transform="translate(538.500000, 0.000000)" fill="#91DC5A" fill-rule="nonzero">
                <path d="M16.0153177,82.4565975 C11.6266951,82.4565975 7.90311301,83.9861372 4.84226866,87.0452166 C1.78142431,90.104296 0.250541578,93.7750993 0.250541578,98.0594675 L0.250541578,163.841182 C0.250541578,168.232798 1.78096375,171.951011 4.84226866,175.010551 C7.90311301,178.06963 11.6266951,179.59963 16.0153177,179.59963 C20.4007164,179.59963 24.1017313,178.07009 27.1151386,175.010551 C30.1225586,171.951471 31.6304136,168.232798 31.6304136,163.841182 L31.6304136,98.0594675 C31.6304136,93.774639 30.0999915,90.104296 27.0386866,87.0452166 C23.9773817,83.9861372 20.3021578,82.4565975 16.0153177,82.4565975 Z" id="Shape"></path>
                <path d="M142.758959,23.4043051 L153.627122,3.36701264 C154.34052,2.04046029 154.086755,1.02322202 152.863522,0.307933213 C151.535744,-0.308853791 150.515616,0.00368231047 149.802678,1.22344765 L138.782533,21.4209206 C129.085561,17.1360921 118.829475,14.9897653 108.014277,14.9897653 C97.1967761,14.9897653 86.9397697,17.1365523 77.2464819,21.4209206 L66.2258763,1.22344765 C65.5097143,0.00368231047 64.4895864,-0.306092058 63.165032,0.307933213 C61.9390362,1.02644404 61.6852708,2.04046029 62.4014328,3.36701264 L73.2700554,23.4043051 C62.2494499,29.0212094 53.4722047,36.8438177 46.9415437,46.8891606 C40.4108827,56.9400271 37.1441706,67.9234386 37.1441706,79.8587274 L178.730559,79.8587274 C178.730559,67.9262004 175.463386,56.9423285 168.933186,46.8891606 C162.402064,36.8438177 153.67548,29.0212094 142.758959,23.4043051 Z M79.924145,52.5488718 C78.7488102,53.7262906 77.3450405,54.3122383 75.7132964,54.3122383 C74.0783284,54.3122383 72.703113,53.7262906 71.5812026,52.5488718 C70.4592921,51.3769765 69.8983369,49.9795397 69.8983369,48.343213 C69.8983369,46.7124097 70.4592921,45.3122112 71.5812026,44.1375542 C72.703113,42.9656588 74.0815522,42.3797112 75.7132964,42.3797112 C77.3450405,42.3797112 78.7488102,42.9656588 79.924145,44.1375542 C81.0967164,45.3149729 81.6857655,46.7124097 81.6857655,48.343213 C81.6825416,49.976778 81.0939531,51.3769765 79.924145,52.5488718 Z M144.441365,52.5488718 C143.317151,53.7262906 141.938712,54.3122383 140.309731,54.3122383 C138.674303,54.3122383 137.270994,53.7262906 136.097962,52.5488718 C134.923087,51.3769765 134.336802,49.9795397 134.336802,48.343213 C134.336802,46.7124097 134.923087,45.3122112 136.097962,44.1375542 C137.270994,42.9656588 138.674303,42.3797112 140.309731,42.3797112 C141.941475,42.3797112 143.316691,42.9656588 144.441365,44.1375542 C145.564196,45.3149729 146.12423,46.7124097 146.12423,48.343213 C146.12423,49.976778 145.563736,51.3769765 144.441365,52.5488718 Z" id="Shape"></path>
                <path d="M37.7521023,187.247329 C37.7521023,191.943195 39.3838465,195.918249 42.6477953,199.180316 C45.9145075,202.442383 49.891855,204.073186 54.5872068,204.073186 L65.9150021,204.073186 L66.070209,238.803818 C66.070209,243.189449 67.6006311,246.913646 70.6614755,249.973186 C73.7223198,253.032726 77.3980043,254.562265 81.682081,254.562265 C86.0679403,254.562265 89.7938252,253.032726 92.8551301,249.973186 C95.916435,246.913646 97.4468571,243.18991 97.4468571,238.803818 L97.4468571,204.076408 L118.569723,204.076408 L118.569723,238.803818 C118.569723,243.189449 120.099684,246.913646 123.160989,249.973186 C126.222294,253.032726 129.944955,254.562265 134.334038,254.562265 C138.719898,254.562265 142.445783,253.032726 145.507087,249.973186 C148.568392,246.913646 150.098354,243.18991 150.098354,238.803818 L150.098354,204.076408 L161.579053,204.076408 C166.17032,204.076408 170.096546,202.445144 173.366482,199.183078 C176.62997,195.921011 178.262635,191.945957 178.262635,187.250551 L178.262635,85.3605596 L37.7521023,85.3605596 L37.7521023,187.247329 Z" id="Shape"></path>
                <path d="M200.007249,82.4565975 C195.719949,82.4565975 192.047488,83.963583 188.986183,86.969269 C185.925339,89.9804783 184.394917,93.6793592 184.394917,98.0594675 L184.394917,163.841182 C184.394917,168.232798 185.924878,171.951011 188.986183,175.010551 C192.047488,178.07009 195.722712,179.59963 200.007249,179.59963 C204.393109,179.59963 208.118994,178.07009 211.180299,175.010551 C214.241603,171.951011 215.771565,168.232798 215.771565,163.841182 L215.771565,98.0594675 C215.771565,93.6788989 214.241603,89.9804783 211.180299,86.969269 C208.118994,83.963583 204.393109,82.4565975 200.007249,82.4565975 Z" id="Shape"></path>
            </g>
        </g>
    </g>
</svg>