<?xml version="1.0" encoding="UTF-8"?>
<svg width="503px" height="170px" viewBox="0 0 503 170" version="1.1" xmlns="http://www.w3.org/2000/svg" xmlns:xlink="http://www.w3.org/1999/xlink">
    <!-- Generator: Sketch 50.2 (55047) - http://www.bohemiancoding.com/sketch -->
    <title>Android</title>
    <desc>Created with Sketch.</desc>
    <defs></defs>
    <g id="Page-1" stroke="none" stroke-width="1" fill="none" fill-rule="evenodd">
        <g id="Android">
            <g id="ChabokLogo" transform="translate(0.000000, 1.000000)" fill-rule="nonzero">
                <g id="Chabok-Logo-Blue-01-Copy-5">
                    <g id="Group" transform="translate(0.459219, 0.000000)">
                        <path d="M85.6259742,120.807472 C86.3196878,114.992106 83.643051,107.839048 83.6369826,107.840563 L91.8264498,99.7336876 L153.503944,38.6534137 L160.986166,46.1801442 L95.4340042,111.103307 L95.4288775,111.108383 C95.9594907,113.962066 96.2672172,116.895932 96.2672172,119.903932 C96.2672172,122.383557 96.1651756,124.169723 95.8009295,126.547861 L122.809471,99.7336876 L130.027671,106.31267 L83.7037611,152.243577 C74.9087347,161.863675 62.2451108,167.901418 48.1715509,167.901418 C21.6119372,167.901418 0.0789199952,146.411838 0.0789199952,119.902417 C0.0789199952,104.570244 7.2909934,90.9270039 18.5052212,82.1400119 L61.7533786,39.0972318 L69.2113181,46.6481981 C69.2113181,46.6481981 29.7482851,86.1510367 23.1023109,92.1297055 C15.4895668,98.9778336 10.7027655,108.89179 10.7027655,119.900902 C10.7027655,140.522538 27.5142422,157.296741 48.1715509,157.296741 C68.5238035,157.296741 85.1334272,141.011799 85.6190887,120.814289 L85.6259742,120.807472 Z M78.8107214,98.3764828 C76.2048438,94.7608045 71.5242811,90.6573807 71.5257987,90.6558659 L79.0945298,83.1594302 L123.596301,39.107835 L131.078524,46.6375949 L86.431054,90.8330902 L78.8107214,98.3764828 Z" id="Combined-Shape" fill="#0D47A1"></path>
                        <polygon id="Rectangle-path" fill="#00B9CD" transform="translate(120.925626, 19.283748) rotate(45.008103) translate(-120.925626, -19.283748) " points="115.310259 -1.44716623 126.540993 -1.76410361 126.540993 40.0146617 115.310259 40.3315991"></polygon>
                        <path d="M61.7129453,85.6077076 L69.8401871,77.5341568 L100.544618,47.0182557 L92.3196998,38.6579579 L57.8453211,72.9137459 L48.1912809,82.5080931 C53.2148422,81.9582434 61.7129453,85.6077076 61.7129453,85.6077076 Z" id="Shape" fill="#00B9CD"></path>
                    </g>
                </g>
            </g>
            <text id="+" fill="#00B9CD" font-family="IRANSans" font-size="92" font-weight="normal">
                <tspan x="232.4" y="114">+</tspan>
            </text>
            <g id="android-logo" transform="translate(359.000000, 0.000000)" fill="#91DC5A" fill-rule="nonzero">
                <path d="M10.6768785,54.971065 C7.75113006,54.971065 5.268742,55.9907581 3.2281791,58.0301444 C1.1876162,60.0695307 0.167027719,62.5167329 0.167027719,65.3729783 L0.167027719,109.227455 C0.167027719,112.155199 1.18730917,114.634007 3.2281791,116.6737 C5.268742,118.713087 7.75113006,119.733087 10.6768785,119.733087 C13.6004776,119.733087 16.0678209,118.713394 18.0767591,116.6737 C20.0817058,114.634314 21.0869424,112.155199 21.0869424,109.227455 L21.0869424,65.3729783 C21.0869424,62.516426 20.066661,60.0695307 18.025791,58.0301444 C15.9849211,55.9907581 13.5347719,54.971065 10.6768785,54.971065 Z" id="Shape"></path>
                <path d="M95.1726397,15.60287 L102.418081,2.24467509 C102.89368,1.36030686 102.724503,0.682148014 101.909015,0.205288809 C101.023829,-0.205902527 100.343744,0.00245487365 99.868452,0.815631769 L92.5216887,14.2806137 C86.0570405,11.4240614 79.2196503,9.9931769 72.0095181,9.9931769 C64.7978507,9.9931769 57.9598465,11.4243682 51.4976546,14.2806137 L44.1505842,0.815631769 C43.6731429,0.00245487365 42.9930576,-0.204061372 42.1100213,0.205288809 C41.2926908,0.684296029 41.1235139,1.36030686 41.6009552,2.24467509 L48.8467036,15.60287 C41.4996333,19.3474729 35.6481365,24.5625451 31.2943625,31.2594404 C26.9405885,37.9600181 24.7627804,45.2822924 24.7627804,53.2391516 L119.153706,53.2391516 C119.153706,45.2841336 116.975591,37.9615523 112.622124,31.2594404 C108.268043,24.5625451 102.45032,19.3474729 95.1726397,15.60287 Z M53.2827633,35.0325812 C52.4992068,35.8175271 51.5633603,36.2081588 50.4755309,36.2081588 C49.3855522,36.2081588 48.468742,35.8175271 47.7208017,35.0325812 C46.9728614,34.2513177 46.5988913,33.3196931 46.5988913,32.2288087 C46.5988913,31.1416065 46.9728614,30.2081408 47.7208017,29.4250361 C48.468742,28.6437726 49.3877015,28.2531408 50.4755309,28.2531408 C51.5633603,28.2531408 52.4992068,28.6437726 53.2827633,29.4250361 C54.0644776,30.2099819 54.457177,31.1416065 54.457177,32.2288087 C54.4550277,33.317852 54.0626354,34.2513177 53.2827633,35.0325812 Z M96.2942431,35.0325812 C95.5447676,35.8175271 94.6258081,36.2081588 93.5398209,36.2081588 C92.4495352,36.2081588 91.5139957,35.8175271 90.7319744,35.0325812 C89.9487249,34.2513177 89.5578678,33.3196931 89.5578678,32.2288087 C89.5578678,31.1416065 89.9487249,30.2081408 90.7319744,29.4250361 C91.5139957,28.6437726 92.4495352,28.2531408 93.5398209,28.2531408 C94.6276503,28.2531408 95.5444606,28.6437726 96.2942431,29.4250361 C97.0427974,30.2099819 97.4161535,31.1416065 97.4161535,32.2288087 C97.4161535,33.317852 97.0424904,34.2513177 96.2942431,35.0325812 Z" id="Shape"></path>
                <path d="M25.1680682,124.831552 C25.1680682,127.96213 26.2558977,130.612166 28.4318635,132.786877 C30.6096716,134.961588 33.2612367,136.048791 36.3914712,136.048791 L43.9433348,136.048791 L44.046806,159.202545 C44.046806,162.1263 45.0670874,164.609097 47.1076503,166.648791 C49.1482132,168.688484 51.5986695,169.708177 54.4547207,169.708177 C57.3786269,169.708177 59.8625501,168.688484 61.90342,166.648791 C63.94429,164.609097 64.9645714,162.126606 64.9645714,159.202545 L64.9645714,136.050939 L79.0464819,136.050939 L79.0464819,159.202545 C79.0464819,162.1263 80.0664563,164.609097 82.1073262,166.648791 C84.1481962,168.688484 86.6299701,169.708177 89.5560256,169.708177 C92.4799318,169.708177 94.963855,168.688484 97.0047249,166.648791 C99.0455949,164.609097 100.065569,162.126606 100.065569,159.202545 L100.065569,136.050939 L107.719369,136.050939 C110.780213,136.050939 113.397697,134.96343 115.577655,132.788718 C117.753313,130.614007 118.841757,127.963971 118.841757,124.8337 L118.841757,56.9070397 L25.1680682,56.9070397 L25.1680682,124.831552 Z" id="Shape"></path>
                <path d="M133.338166,54.971065 C130.479966,54.971065 128.031659,55.975722 125.990789,57.9795126 C123.950226,59.9869856 122.929945,62.4529061 122.929945,65.3729783 L122.929945,109.227455 C122.929945,112.155199 123.949919,114.634007 125.990789,116.6737 C128.031659,118.713394 130.481808,119.733087 133.338166,119.733087 C136.262072,119.733087 138.745996,118.713394 140.786866,116.6737 C142.827736,114.634007 143.84771,112.155199 143.84771,109.227455 L143.84771,65.3729783 C143.84771,62.4525993 142.827736,59.9869856 140.786866,57.9795126 C138.745996,55.975722 136.262072,54.971065 133.338166,54.971065 Z" id="Shape"></path>
            </g>
        </g>
    </g>
</svg>