<?xml version="1.0" encoding="UTF-8"?>
<svg width="819px" height="251px" viewBox="0 0 819 251" version="1.1" xmlns="http://www.w3.org/2000/svg" xmlns:xlink="http://www.w3.org/1999/xlink">
    <!-- Generator: Sketch 50.2 (55047) - http://www.bohemiancoding.com/sketch -->
    <title>iOS</title>
    <desc>Created with Sketch.</desc>
    <defs></defs>
    <g id="Page-1" stroke="none" stroke-width="1" fill="none" fill-rule="evenodd">
        <g id="iOS" transform="translate(0.000000, -1.000000)">
            <g id="ChabokLogo" fill-rule="nonzero">
                <g id="Chabok-Logo-Blue-01-Copy-5">
                    <g id="Group" transform="translate(0.688828, 0.000000)">
                        <path d="M128.438961,181.211208 C129.479532,172.488159 125.464577,161.758572 125.455474,161.760844 L137.739675,149.600531 L230.255916,57.9801205 L241.479249,69.2702163 L143.151006,166.65496 L143.143316,166.662574 C143.939236,170.943099 144.400826,175.343898 144.400826,179.855898 C144.400826,183.575335 144.247763,186.254584 143.701394,189.821791 L184.214207,149.600531 L195.041506,159.469005 L125.555642,228.365365 C112.363102,242.795512 93.3676662,251.852127 72.2573263,251.852127 C32.4179058,251.852127 0.118379993,219.617757 0.118379993,179.853625 C0.118379993,156.855366 10.9364901,136.390506 27.7578318,123.210018 L92.6300679,58.6458477 L103.816977,69.9722971 C103.816977,69.9722971 44.6224277,129.226555 34.6534664,138.194558 C23.2343502,148.46675 16.0541483,163.337685 16.0541483,179.851353 C16.0541483,210.783807 41.2713633,235.945111 72.2573263,235.945111 C102.785705,235.945111 127.700141,211.517698 128.428633,181.221433 L128.438961,181.211208 Z M118.216082,147.564724 C114.307266,142.141207 107.286422,135.986071 107.288698,135.983799 L118.641795,124.739145 L185.394452,58.6617525 L196.617786,69.9563923 L129.646581,136.249635 L118.216082,147.564724 Z" id="Combined-Shape" fill="#0D47A1"></path>
                        <polygon id="Rectangle-path" fill="#00B9CD" transform="translate(181.388439, 28.925622) rotate(45.008103) translate(-181.388439, -28.925622) " points="172.965389 -2.17074934 189.81149 -2.64615541 189.81149 60.0219926 172.965389 60.4973987"></polygon>
                        <path d="M92.569418,128.411561 L104.760281,116.301235 L150.816927,70.5273835 L138.47955,57.9869368 L86.7679816,109.370619 L72.2869214,123.76214 C79.8222633,122.937365 92.569418,128.411561 92.569418,128.411561 Z" id="Shape" fill="#00B9CD"></path>
                    </g>
                </g>
            </g>
            <text id="+" fill="#00B9CD" font-family="IRANSans" font-size="138" font-weight="normal">
                <tspan x="348.6" y="171">+</tspan>
            </text>
            <g id="Apple_iOS_new" transform="translate(538.500000, 36.000000)" fill="#000000" fill-rule="nonzero">
                <path d="M10.369524,15.67125 C10.369524,18.74925 8.500272,21.02625 5.293596,21.02625 C2.623236,21.02625 0.619344,18.74925 0.619344,15.67125 C0.619344,12.72375 2.755632,10.314 5.560632,10.314 C8.500272,10.314 10.369524,12.72375 10.369524,15.67125 Z M2.977788,176.625 L2.977788,53.505 L8.01108,53.505 L8.01108,176.625 L2.977788,176.625 Z" id="Shape"></path>
                <path d="M175.422456,88.902 C175.422456,150.975 141.055596,179.19 103.43718,179.19 C65.00868,179.19 33.888888,148.66875 33.888888,91.46925 C33.888888,32.733 66.092532,1.18125 106.143444,1.18125 C145.382028,1.179 175.422456,32.2155 175.422456,88.902 Z M38.9895,90.1845 C38.9895,137.25 61.739172,173.8125 103.675044,173.8125 C145.902636,173.8125 170.122128,136.125 170.122128,89.649 C170.122128,46.55025 150.716016,7.218 106.43292,7.218 C62.149824,7.218 38.9895,44.25075 38.9895,90.1845 Z" id="Shape"></path>
                <path d="M193.895064,163.28475 C202.339236,168.92775 216.914016,174.37725 229.449,174.37725 C253.239888,174.37725 274.398564,157.689 274.398564,133.12575 C274.398564,110.331 260.304,98.4375 236.373984,88.22025 C214.957248,79.07625 195.701484,69.1515 195.701484,44.784 C195.701484,19.39275 215.652888,1.4355 242.769384,1.4355 C257.350896,1.4355 268.350984,5.5395 273.467304,9.1305 L271.431996,13.5585 C267.083124,10.48275 255.331296,6.56325 242.54274,6.56325 C213.884616,6.56325 201.401244,28.27575 201.401244,44.25975 C201.401244,66.33675 218.469108,73.719 240.469284,84.2355 C266.050884,96.804 279.606888,107.883 279.606888,131.99625 C279.606888,157.90275 261.19038,178.9335 228.445932,178.9335 C214.88544,178.9335 199.282908,174.3165 191.608428,168.417 L193.895064,163.28475 Z" id="Shape"></path>
            </g>
        </g>
    </g>
</svg>