<?xml version="1.0" encoding="UTF-8"?>
<svg width="546px" height="168px" viewBox="0 0 546 168" version="1.1" xmlns="http://www.w3.org/2000/svg" xmlns:xlink="http://www.w3.org/1999/xlink">
    <!-- Generator: Sketch 50.2 (55047) - http://www.bohemiancoding.com/sketch -->
    <title>iOS</title>
    <desc>Created with Sketch.</desc>
    <defs></defs>
    <g id="Page-1" stroke="none" stroke-width="1" fill="none" fill-rule="evenodd">
        <g id="iOS">
            <g id="ChabokLogo" fill-rule="nonzero">
                <g id="Chabok-Logo-Blue-01-Copy-5">
                    <g id="Group" transform="translate(0.459219, 0.000000)">
                        <path d="M85.6259742,120.807472 C86.3196878,114.992106 83.643051,107.839048 83.6369826,107.840563 L91.8264498,99.7336876 L153.503944,38.6534137 L160.986166,46.1801442 L95.4340042,111.103307 L95.4288775,111.108383 C95.9594907,113.962066 96.2672172,116.895932 96.2672172,119.903932 C96.2672172,122.383557 96.1651756,124.169723 95.8009295,126.547861 L122.809471,99.7336876 L130.027671,106.31267 L83.7037611,152.243577 C74.9087347,161.863675 62.2451108,167.901418 48.1715509,167.901418 C21.6119372,167.901418 0.0789199952,146.411838 0.0789199952,119.902417 C0.0789199952,104.570244 7.2909934,90.9270039 18.5052212,82.1400119 L61.7533786,39.0972318 L69.2113181,46.6481981 C69.2113181,46.6481981 29.7482851,86.1510367 23.1023109,92.1297055 C15.4895668,98.9778336 10.7027655,108.89179 10.7027655,119.900902 C10.7027655,140.522538 27.5142422,157.296741 48.1715509,157.296741 C68.5238035,157.296741 85.1334272,141.011799 85.6190887,120.814289 L85.6259742,120.807472 Z M78.8107214,98.3764828 C76.2048438,94.7608045 71.5242811,90.6573807 71.5257987,90.6558659 L79.0945298,83.1594302 L123.596301,39.107835 L131.078524,46.6375949 L86.431054,90.8330902 L78.8107214,98.3764828 Z" id="Combined-Shape" fill="#0D47A1"></path>
                        <polygon id="Rectangle-path" fill="#00B9CD" transform="translate(120.925626, 19.283748) rotate(45.008103) translate(-120.925626, -19.283748) " points="115.310259 -1.44716623 126.540993 -1.76410361 126.540993 40.0146617 115.310259 40.3315991"></polygon>
                        <path d="M61.7129453,85.6077076 L69.8401871,77.5341568 L100.544618,47.0182557 L92.3196998,38.6579579 L57.8453211,72.9137459 L48.1912809,82.5080931 C53.2148422,81.9582434 61.7129453,85.6077076 61.7129453,85.6077076 Z" id="Shape" fill="#00B9CD"></path>
                    </g>
                </g>
            </g>
            <text id="+" fill="#00B9CD" font-family="IRANSans" font-size="92" font-weight="normal">
                <tspan x="232.4" y="114">+</tspan>
            </text>
            <g id="Apple_iOS_new" transform="translate(359.000000, 24.000000)" fill="#000000" fill-rule="nonzero">
                <path d="M6.913016,10.4475 C6.913016,12.4995 5.666848,14.0175 3.529064,14.0175 C1.748824,14.0175 0.412896,12.4995 0.412896,10.4475 C0.412896,8.4825 1.837088,6.876 3.707088,6.876 C5.666848,6.876 6.913016,8.4825 6.913016,10.4475 Z M1.985192,117.75 L1.985192,35.67 L5.34072,35.67 L5.34072,117.75 L1.985192,117.75 Z" id="Shape"></path>
                <path d="M116.948304,59.268 C116.948304,100.65 94.037064,119.46 68.95812,119.46 C43.33912,119.46 22.592592,99.1125 22.592592,60.9795 C22.592592,21.822 44.061688,0.7875 70.762296,0.7875 C96.921352,0.786 116.948304,21.477 116.948304,59.268 Z M25.993,60.123 C25.993,91.5 41.159448,115.875 69.116696,115.875 C97.268424,115.875 113.414752,90.75 113.414752,59.766 C113.414752,31.0335 100.477344,4.812 70.95528,4.812 C41.433216,4.812 25.993,29.5005 25.993,60.123 Z" id="Shape"></path>
                <path d="M129.263376,108.8565 C134.892824,112.6185 144.609344,116.2515 152.966,116.2515 C168.826592,116.2515 182.932376,105.126 182.932376,88.7505 C182.932376,73.554 173.536,65.625 157.582656,58.8135 C143.304832,52.7175 130.467656,46.101 130.467656,29.856 C130.467656,12.9285 143.768592,0.957 161.846256,0.957 C171.567264,0.957 178.900656,3.693 182.311536,6.087 L180.954664,9.039 C178.055416,6.9885 170.220864,4.3755 161.69516,4.3755 C142.589744,4.3755 134.267496,18.8505 134.267496,29.5065 C134.267496,44.2245 145.646072,49.146 160.312856,56.157 C177.367256,64.536 186.404592,71.922 186.404592,87.9975 C186.404592,105.2685 174.12692,119.289 152.297288,119.289 C143.25696,119.289 132.855272,116.211 127.738952,112.278 L129.263376,108.8565 Z" id="Shape"></path>
            </g>
        </g>
    </g>
</svg>