<?xml version="1.0" encoding="UTF-8"?>
<svg width="764px" height="251px" viewBox="0 0 764 251" version="1.1" xmlns="http://www.w3.org/2000/svg" xmlns:xlink="http://www.w3.org/1999/xlink">
    <!-- Generator: Sketch 50.2 (55047) - http://www.bohemiancoding.com/sketch -->
    <title>JS</title>
    <desc>Created with Sketch.</desc>
    <defs></defs>
    <g id="Page-1" stroke="none" stroke-width="1" fill="none" fill-rule="evenodd">
        <g id="JS" transform="translate(0.000000, -1.000000)">
            <g id="ChabokLogo" fill-rule="nonzero">
                <g id="Chabok-Logo-Blue-01-Copy-5">
                    <g id="Group" transform="translate(0.688828, 0.000000)">
                        <path d="M128.438961,181.211208 C129.479532,172.488159 125.464577,161.758572 125.455474,161.760844 L137.739675,149.600531 L230.255916,57.9801205 L241.479249,69.2702163 L143.151006,166.65496 L143.143316,166.662574 C143.939236,170.943099 144.400826,175.343898 144.400826,179.855898 C144.400826,183.575335 144.247763,186.254584 143.701394,189.821791 L184.214207,149.600531 L195.041506,159.469005 L125.555642,228.365365 C112.363102,242.795512 93.3676662,251.852127 72.2573263,251.852127 C32.4179058,251.852127 0.118379993,219.617757 0.118379993,179.853625 C0.118379993,156.855366 10.9364901,136.390506 27.7578318,123.210018 L92.6300679,58.6458477 L103.816977,69.9722971 C103.816977,69.9722971 44.6224277,129.226555 34.6534664,138.194558 C23.2343502,148.46675 16.0541483,163.337685 16.0541483,179.851353 C16.0541483,210.783807 41.2713633,235.945111 72.2573263,235.945111 C102.785705,235.945111 127.700141,211.517698 128.428633,181.221433 L128.438961,181.211208 Z M118.216082,147.564724 C114.307266,142.141207 107.286422,135.986071 107.288698,135.983799 L118.641795,124.739145 L185.394452,58.6617525 L196.617786,69.9563923 L129.646581,136.249635 L118.216082,147.564724 Z" id="Combined-Shape" fill="#0D47A1"></path>
                        <polygon id="Rectangle-path" fill="#00B9CD" transform="translate(181.388439, 28.925622) rotate(45.008103) translate(-181.388439, -28.925622) " points="172.965389 -2.17074934 189.81149 -2.64615541 189.81149 60.0219926 172.965389 60.4973987"></polygon>
                        <path d="M92.569418,128.411561 L104.760281,116.301235 L150.816927,70.5273835 L138.47955,57.9869368 L86.7679816,109.370619 L72.2869214,123.76214 C79.8222633,122.937365 92.569418,128.411561 92.569418,128.411561 Z" id="Shape" fill="#00B9CD"></path>
                    </g>
                </g>
            </g>
            <text id="+" fill="#00B9CD" font-family="IRANSans" font-size="138" font-weight="normal">
                <tspan x="348.6" y="175.5">+</tspan>
            </text>
            <rect id="Rectangle-path" fill="#F7DF1E" fill-rule="nonzero" x="538.5" y="18" width="225" height="225"></rect>
            <path d="M689.642857,193.782143 C694.175,201.182143 700.071429,206.621429 710.5,206.621429 C719.260714,206.621429 724.857143,202.242857 724.857143,196.192857 C724.857143,188.942857 719.107143,186.375 709.464286,182.157143 L704.178571,179.889286 C688.921429,173.389286 678.785714,165.246429 678.785714,148.032143 C678.785714,132.175 690.867857,120.103571 709.75,120.103571 C723.192857,120.103571 732.857143,124.782143 739.821429,137.032143 L723.357143,147.603571 C719.732143,141.103571 715.821429,138.542857 709.75,138.542857 C703.557143,138.542857 699.632143,142.471429 699.632143,147.603571 C699.632143,153.946429 703.560714,156.514286 712.632143,160.442857 L717.917857,162.707143 C735.882143,170.410714 746.025,178.264286 746.025,195.921429 C746.025,214.957143 731.071429,225.385714 710.989286,225.385714 C691.353571,225.385714 678.667857,216.028571 672.460714,203.764286 L689.642857,193.782143 Z M614.953571,195.614286 C618.275,201.507143 621.296429,206.489286 628.560714,206.489286 C635.507143,206.489286 639.889286,203.771429 639.889286,193.203571 L639.889286,121.310714 L661.032143,121.310714 L661.032143,193.489286 C661.032143,215.382143 648.196429,225.346429 629.460714,225.346429 C612.532143,225.346429 602.728571,216.585714 597.742857,206.033929 L614.953571,195.614286 Z" id="Shape" fill="#000000" fill-rule="nonzero"></path>
        </g>
    </g>
</svg>