<?xml version="1.0" encoding="UTF-8"?>
<svg width="707px" height="168px" viewBox="0 0 707 168" version="1.1" xmlns="http://www.w3.org/2000/svg" xmlns:xlink="http://www.w3.org/1999/xlink">
    <!-- Generator: Sketch 50.2 (55047) - http://www.bohemiancoding.com/sketch -->
    <title>RN-Bridge</title>
    <desc>Created with Sketch.</desc>
    <defs></defs>
    <g id="Page-1" stroke="none" stroke-width="1" fill="none" fill-rule="evenodd">
        <g id="RN-Bridge">
            <g id="ChabokLogo" fill-rule="nonzero">
                <g id="Chabok-Logo-Blue-01-Copy-5">
                    <g id="Group" transform="translate(0.459219, 0.000000)">
                        <path d="M85.6259742,120.807472 C86.3196878,114.992106 83.643051,107.839048 83.6369826,107.840563 L91.8264498,99.7336876 L153.503944,38.6534137 L160.986166,46.1801442 L95.4340042,111.103307 L95.4288775,111.108383 C95.9594907,113.962066 96.2672172,116.895932 96.2672172,119.903932 C96.2672172,122.383557 96.1651756,124.169723 95.8009295,126.547861 L122.809471,99.7336876 L130.027671,106.31267 L83.7037611,152.243577 C74.9087347,161.863675 62.2451108,167.901418 48.1715509,167.901418 C21.6119372,167.901418 0.0789199952,146.411838 0.0789199952,119.902417 C0.0789199952,104.570244 7.2909934,90.9270039 18.5052212,82.1400119 L61.7533786,39.0972318 L69.2113181,46.6481981 C69.2113181,46.6481981 29.7482851,86.1510367 23.1023109,92.1297055 C15.4895668,98.9778336 10.7027655,108.89179 10.7027655,119.900902 C10.7027655,140.522538 27.5142422,157.296741 48.1715509,157.296741 C68.5238035,157.296741 85.1334272,141.011799 85.6190887,120.814289 L85.6259742,120.807472 Z M78.8107214,98.3764828 C76.2048438,94.7608045 71.5242811,90.6573807 71.5257987,90.6558659 L79.0945298,83.1594302 L123.596301,39.107835 L131.078524,46.6375949 L86.431054,90.8330902 L78.8107214,98.3764828 Z" id="Combined-Shape" fill="#0D47A1"></path>
                        <polygon id="Rectangle-path" fill="#00B9CD" transform="translate(120.925626, 19.283748) rotate(45.008103) translate(-120.925626, -19.283748) " points="115.310259 -1.44716623 126.540993 -1.76410361 126.540993 40.0146617 115.310259 40.3315991"></polygon>
                        <path d="M61.7129453,85.6077076 L69.8401871,77.5341568 L100.544618,47.0182557 L92.3196998,38.6579579 L57.8453211,72.9137459 L48.1912809,82.5080931 C53.2148422,81.9582434 61.7129453,85.6077076 61.7129453,85.6077076 Z" id="Shape" fill="#00B9CD"></path>
                    </g>
                </g>
            </g>
            <text id="+" fill="#00B9CD" font-family="IRANSans" font-size="92" font-weight="normal">
                <tspan x="232.4" y="114">+</tspan>
            </text>
            <g id="react-native-logo-opt" transform="translate(359.000000, 9.000000)">
                <g id="Group-3">
                    <polygon id="Shape" points="0 0 149.876966 0 149.876966 149.876966 0 149.876966"></polygon>
                    <circle id="Oval" fill="#05A5CD" fill-rule="nonzero" cx="80.8039326" cy="74.8455056" r="12.5314607"></circle>
                    <path d="M80.8039326,49.3662921 C97.6292135,49.3662921 113.258989,51.7808989 125.044382,55.8382022 C139.24382,60.7258427 147.974157,68.1359551 147.974157,74.8455056 C147.974157,81.8376404 138.721348,89.7089888 123.473596,94.761236 C111.945506,98.5808989 96.7752809,100.574157 80.8039326,100.574157 C64.4286517,100.574157 48.9224719,98.7033708 37.2674157,94.7191011 C22.5179775,89.6775281 13.6337079,81.7039326 13.6337079,74.8455056 C13.6337079,68.1904494 21.9696629,60.8382022 35.9691011,55.9567416 C47.7983146,51.8331461 63.8146067,49.3668539 80.8039326,49.3668539 L80.8039326,49.3662921 Z" id="Shape" stroke="#05A5D1" stroke-width="5.99494382"></path>
                    <path d="M58.6235955,62.1797753 C67.0292135,47.6044944 76.9292135,35.2702247 86.3314607,27.0882022 C97.6595506,17.2297753 108.439888,13.3691011 114.251685,16.7202247 C120.308989,20.2134831 122.505618,32.161236 119.264607,47.894382 C116.814045,59.788764 110.962921,73.9252809 102.983708,87.761236 C94.8039326,101.946629 85.4359551,114.444382 76.1617978,122.550562 C64.4258427,132.808989 53.0808989,136.521348 47.1393258,133.095506 C41.3741573,129.770787 39.1696629,118.876404 41.9353933,104.310674 C44.2724719,92.0033708 50.1365169,76.897191 58.6241573,62.1792135 L58.6235955,62.1797753 Z" id="Shape" stroke="#05A5CD" stroke-width="5.99494382"></path>
                    <path d="M58.6449438,87.7983146 C50.2157303,73.2370787 44.4741573,58.5005618 42.0808989,46.2685393 C39.197191,31.5308989 41.2359551,20.2629213 47.0426966,16.9011236 C53.0932584,13.3983146 64.5421348,17.4617978 76.5539326,28.1269663 C85.6348315,36.1904494 94.9601124,48.3196629 102.96236,62.1421348 C111.166854,76.3140449 117.316292,90.6713483 119.707865,102.754494 C122.73427,118.044944 120.28427,129.72809 114.348315,133.164607 C108.589326,136.498876 98.0505618,132.968539 86.8117978,123.297753 C77.3162921,115.126966 67.1573034,102.501685 58.6449438,87.7983146 Z" id="Shape" stroke="#05A5D1" stroke-width="5.99494382"></path>
                </g>
                <g id="Group-4" transform="translate(166.000000, 37.000000)" font-family="HelveticaNeue, Helvetica Neue" font-size="32" font-weight="normal">
                    <text id="React-Native" fill="#05A5D1">
                        <tspan x="0" y="30">React Native</tspan>
                    </text>
                    <text id="Bridge" fill="#05A5CD">
                        <tspan x="0" y="68">Bridge</tspan>
                    </text>
                </g>
            </g>
        </g>
    </g>
</svg>