<?xml version="1.0" encoding="UTF-8"?>
<svg width="1061px" height="251px" viewBox="0 0 1061 251" version="1.1" xmlns="http://www.w3.org/2000/svg" xmlns:xlink="http://www.w3.org/1999/xlink">
    <!-- Generator: Sketch 50.2 (55047) - http://www.bohemiancoding.com/sketch -->
    <title>RN-PureJS</title>
    <desc>Created with Sketch.</desc>
    <defs></defs>
    <g id="Page-1" stroke="none" stroke-width="1" fill="none" fill-rule="evenodd">
        <g id="RN-PureJS" transform="translate(0.000000, -1.000000)">
            <g id="ChabokLogo" fill-rule="nonzero">
                <g id="Chabok-Logo-Blue-01-Copy-5">
                    <g id="Group" transform="translate(0.688828, 0.000000)">
                        <path d="M128.438961,181.211208 C129.479532,172.488159 125.464577,161.758572 125.455474,161.760844 L137.739675,149.600531 L230.255916,57.9801205 L241.479249,69.2702163 L143.151006,166.65496 L143.143316,166.662574 C143.939236,170.943099 144.400826,175.343898 144.400826,179.855898 C144.400826,183.575335 144.247763,186.254584 143.701394,189.821791 L184.214207,149.600531 L195.041506,159.469005 L125.555642,228.365365 C112.363102,242.795512 93.3676662,251.852127 72.2573263,251.852127 C32.4179058,251.852127 0.118379993,219.617757 0.118379993,179.853625 C0.118379993,156.855366 10.9364901,136.390506 27.7578318,123.210018 L92.6300679,58.6458477 L103.816977,69.9722971 C103.816977,69.9722971 44.6224277,129.226555 34.6534664,138.194558 C23.2343502,148.46675 16.0541483,163.337685 16.0541483,179.851353 C16.0541483,210.783807 41.2713633,235.945111 72.2573263,235.945111 C102.785705,235.945111 127.700141,211.517698 128.428633,181.221433 L128.438961,181.211208 Z M118.216082,147.564724 C114.307266,142.141207 107.286422,135.986071 107.288698,135.983799 L118.641795,124.739145 L185.394452,58.6617525 L196.617786,69.9563923 L129.646581,136.249635 L118.216082,147.564724 Z" id="Combined-Shape" fill="#0D47A1"></path>
                        <polygon id="Rectangle-path" fill="#00B9CD" transform="translate(181.388439, 28.925622) rotate(45.008103) translate(-181.388439, -28.925622) " points="172.965389 -2.17074934 189.81149 -2.64615541 189.81149 60.0219926 172.965389 60.4973987"></polygon>
                        <path d="M92.569418,128.411561 L104.760281,116.301235 L150.816927,70.5273835 L138.47955,57.9869368 L86.7679816,109.370619 L72.2869214,123.76214 C79.8222633,122.937365 92.569418,128.411561 92.569418,128.411561 Z" id="Shape" fill="#00B9CD"></path>
                    </g>
                </g>
            </g>
            <text id="+" fill="#00B9CD" font-family="IRANSans" font-size="138" font-weight="normal">
                <tspan x="348.6" y="171">+</tspan>
            </text>
            <g id="react-native-logo-opt" transform="translate(538.500000, 13.500000)">
                <g id="Group-3">
                    <polygon id="Shape" points="0 0 224.815449 0 224.815449 224.815449 0 224.815449"></polygon>
                    <circle id="Oval" fill="#05A5CD" fill-rule="nonzero" cx="121.205899" cy="112.268258" r="18.797191"></circle>
                    <path d="M121.205899,74.0494382 C146.44382,74.0494382 169.888483,77.6713483 187.566573,83.7573034 C208.86573,91.088764 221.961236,102.203933 221.961236,112.268258 C221.961236,122.756461 208.082022,134.563483 185.210393,142.141854 C167.918258,147.871348 145.162921,150.861236 121.205899,150.861236 C96.6429775,150.861236 73.3837079,148.055056 55.9011236,142.078652 C33.7769663,134.516292 20.4505618,122.555899 20.4505618,112.268258 C20.4505618,102.285674 32.9544944,91.2573034 53.9536517,83.9351124 C71.6974719,77.7497191 95.7219101,74.0502809 121.205899,74.0502809 L121.205899,74.0494382 Z" id="Shape" stroke="#05A5D1" stroke-width="8.99241573"></path>
                    <path d="M87.9353933,93.2696629 C100.54382,71.4067416 115.39382,52.9053371 129.497191,40.6323034 C146.489326,25.8446629 162.659831,20.0536517 171.377528,25.0803371 C180.463483,30.3202247 183.758427,48.2418539 178.89691,71.841573 C175.221067,89.6831461 166.444382,110.887921 154.475562,131.641854 C142.205899,152.919944 128.153933,171.666573 114.242697,183.825843 C96.638764,199.213483 79.6213483,204.782022 70.7089888,199.643258 C62.061236,194.65618 58.7544944,178.314607 62.9030899,156.466011 C66.4087079,138.005056 75.2047753,115.345787 87.936236,93.2688202 L87.9353933,93.2696629 Z" id="Shape" stroke="#05A5CD" stroke-width="8.99241573"></path>
                    <path d="M87.9674157,131.697472 C75.3235955,109.855618 66.711236,87.7508427 63.1213483,69.402809 C58.7957865,47.2963483 61.8539326,30.394382 70.5640449,25.3516854 C79.6398876,20.0974719 96.8132022,26.1926966 114.830899,42.1904494 C128.452247,54.2856742 142.440169,72.4794944 154.443539,93.2132022 C166.750281,114.471067 175.974438,136.007022 179.561798,154.131742 C184.101404,177.067416 180.426404,194.592135 171.522472,199.74691 C162.883989,204.748315 147.075843,199.452809 130.217697,184.946629 C115.974438,172.690449 100.735955,153.752528 87.9674157,131.697472 Z" id="Shape" stroke="#05A5D1" stroke-width="8.99241573"></path>
                </g>
                <g id="Group-4" transform="translate(249.000000, 55.500000)" font-family="HelveticaNeue, Helvetica Neue" font-size="48" font-weight="normal">
                    <text id="React-Native" fill="#05A5D1">
                        <tspan x="0" y="46">React Native</tspan>
                    </text>
                    <text id="Pure-JS" fill="#DAB500">
                        <tspan x="0" y="103">Pure JS</tspan>
                    </text>
                </g>
            </g>
        </g>
    </g>
</svg>