<?xml version="1.0" encoding="UTF-8"?>
<svg width="762px" height="251px" viewBox="0 0 762 251" version="1.1" xmlns="http://www.w3.org/2000/svg" xmlns:xlink="http://www.w3.org/1999/xlink">
    <!-- Generator: Sketch 50.2 (55047) - http://www.bohemiancoding.com/sketch -->
    <title>Windows</title>
    <desc>Created with Sketch.</desc>
    <defs></defs>
    <g id="Page-1" stroke="none" stroke-width="1" fill="none" fill-rule="evenodd">
        <g id="Windows" transform="translate(0.000000, -1.000000)">
            <g id="ChabokLogo" fill-rule="nonzero">
                <g id="Chabok-Logo-Blue-01-Copy-5">
                    <g id="Group" transform="translate(0.688828, 0.000000)">
                        <path d="M128.438961,181.211208 C129.479532,172.488159 125.464577,161.758572 125.455474,161.760844 L137.739675,149.600531 L230.255916,57.9801205 L241.479249,69.2702163 L143.151006,166.65496 L143.143316,166.662574 C143.939236,170.943099 144.400826,175.343898 144.400826,179.855898 C144.400826,183.575335 144.247763,186.254584 143.701394,189.821791 L184.214207,149.600531 L195.041506,159.469005 L125.555642,228.365365 C112.363102,242.795512 93.3676662,251.852127 72.2573263,251.852127 C32.4179058,251.852127 0.118379993,219.617757 0.118379993,179.853625 C0.118379993,156.855366 10.9364901,136.390506 27.7578318,123.210018 L92.6300679,58.6458477 L103.816977,69.9722971 C103.816977,69.9722971 44.6224277,129.226555 34.6534664,138.194558 C23.2343502,148.46675 16.0541483,163.337685 16.0541483,179.851353 C16.0541483,210.783807 41.2713633,235.945111 72.2573263,235.945111 C102.785705,235.945111 127.700141,211.517698 128.428633,181.221433 L128.438961,181.211208 Z M118.216082,147.564724 C114.307266,142.141207 107.286422,135.986071 107.288698,135.983799 L118.641795,124.739145 L185.394452,58.6617525 L196.617786,69.9563923 L129.646581,136.249635 L118.216082,147.564724 Z" id="Combined-Shape" fill="#0D47A1"></path>
                        <polygon id="Rectangle-path" fill="#00B9CD" transform="translate(181.388439, 28.925622) rotate(45.008103) translate(-181.388439, -28.925622) " points="172.965389 -2.17074934 189.81149 -2.64615541 189.81149 60.0219926 172.965389 60.4973987"></polygon>
                        <path d="M92.569418,128.411561 L104.760281,116.301235 L150.816927,70.5273835 L138.47955,57.9869368 L86.7679816,109.370619 L72.2869214,123.76214 C79.8222633,122.937365 92.569418,128.411561 92.569418,128.411561 Z" id="Shape" fill="#00B9CD"></path>
                    </g>
                </g>
            </g>
            <text id="+" fill="#00B9CD" font-family="IRANSans" font-size="138" font-weight="normal">
                <tspan x="348.6" y="169.5">+</tspan>
            </text>
            <g id="Windows_logo_-_2012" transform="translate(538.500000, 15.000000)" fill="#00ADEF" fill-rule="nonzero">
                <path d="M0,31.7096591 L91.2451705,19.2830114 L91.2850568,107.296364 L0.0833522727,107.81573 L0,31.7096591 Z M91.2017045,117.437216 L91.2725284,205.527273 L0.0708238636,192.988381 L0.0657102273,116.846335 L91.2017045,117.437216 Z M102.262756,17.6573864 L223.246278,6.21724894e-15 L223.246278,106.176989 L102.262756,107.137457 L102.262756,17.6573864 Z M223.274403,118.265625 L223.246023,223.964489 L102.2625,206.889034 L102.092983,118.067727 L223.274403,118.265625 Z" id="Shape"></path>
            </g>
        </g>
    </g>
</svg>