<?xml version="1.0" encoding="UTF-8"?>
<svg width="508px" height="168px" viewBox="0 0 508 168" version="1.1" xmlns="http://www.w3.org/2000/svg" xmlns:xlink="http://www.w3.org/1999/xlink">
    <!-- Generator: Sketch 50.2 (55047) - http://www.bohemiancoding.com/sketch -->
    <title>Windows</title>
    <desc>Created with Sketch.</desc>
    <defs></defs>
    <g id="Page-1" stroke="none" stroke-width="1" fill="none" fill-rule="evenodd">
        <g id="Windows">
            <g id="ChabokLogo" fill-rule="nonzero">
                <g id="Chabok-Logo-Blue-01-Copy-5">
                    <g id="Group" transform="translate(0.459219, 0.000000)">
                        <path d="M85.6259742,120.807472 C86.3196878,114.992106 83.643051,107.839048 83.6369826,107.840563 L91.8264498,99.7336876 L153.503944,38.6534137 L160.986166,46.1801442 L95.4340042,111.103307 L95.4288775,111.108383 C95.9594907,113.962066 96.2672172,116.895932 96.2672172,119.903932 C96.2672172,122.383557 96.1651756,124.169723 95.8009295,126.547861 L122.809471,99.7336876 L130.027671,106.31267 L83.7037611,152.243577 C74.9087347,161.863675 62.2451108,167.901418 48.1715509,167.901418 C21.6119372,167.901418 0.0789199952,146.411838 0.0789199952,119.902417 C0.0789199952,104.570244 7.2909934,90.9270039 18.5052212,82.1400119 L61.7533786,39.0972318 L69.2113181,46.6481981 C69.2113181,46.6481981 29.7482851,86.1510367 23.1023109,92.1297055 C15.4895668,98.9778336 10.7027655,108.89179 10.7027655,119.900902 C10.7027655,140.522538 27.5142422,157.296741 48.1715509,157.296741 C68.5238035,157.296741 85.1334272,141.011799 85.6190887,120.814289 L85.6259742,120.807472 Z M78.8107214,98.3764828 C76.2048438,94.7608045 71.5242811,90.6573807 71.5257987,90.6558659 L79.0945298,83.1594302 L123.596301,39.107835 L131.078524,46.6375949 L86.431054,90.8330902 L78.8107214,98.3764828 Z" id="Combined-Shape" fill="#0D47A1"></path>
                        <polygon id="Rectangle-path" fill="#00B9CD" transform="translate(120.925626, 19.283748) rotate(45.008103) translate(-120.925626, -19.283748) " points="115.310259 -1.44716623 126.540993 -1.76410361 126.540993 40.0146617 115.310259 40.3315991"></polygon>
                        <path d="M61.7129453,85.6077076 L69.8401871,77.5341568 L100.544618,47.0182557 L92.3196998,38.6579579 L57.8453211,72.9137459 L48.1912809,82.5080931 C53.2148422,81.9582434 61.7129453,85.6077076 61.7129453,85.6077076 Z" id="Shape" fill="#00B9CD"></path>
                    </g>
                </g>
            </g>
            <text id="+" fill="#00B9CD" font-family="IRANSans" font-size="92" font-weight="normal">
                <tspan x="232.4" y="113">+</tspan>
            </text>
            <g id="Windows_logo_-_2012" transform="translate(359.000000, 10.000000)" fill="#00ADEF" fill-rule="nonzero">
                <path d="M0,21.1397727 L60.8301136,12.8553409 L60.8567045,71.5309091 L0.0555681818,71.8771534 L0,21.1397727 Z M60.8011364,78.2914773 L60.8483523,137.018182 L0.0472159091,128.65892 L0.0438068182,77.8975568 L60.8011364,78.2914773 Z M68.1751705,11.7715909 L148.830852,6.21724894e-15 L148.830852,70.7846591 L68.1751705,71.4249716 L68.1751705,11.7715909 Z M148.849602,78.84375 L148.830682,149.309659 L68.175,137.926023 L68.0619886,78.7118182 L148.849602,78.84375 Z" id="Shape"></path>
            </g>
        </g>
    </g>
</svg>