<svg xmlns="http://www.w3.org/2000/svg" width="116" height="45" viewBox="0 0 116 45">
    <g fill="#FFF" fill-rule="evenodd">
        <g fill-rule="nonzero">
            <path d="M91.542 6.09L91.733 0l22.662 11.38c2.151 1.137 2.07 4.258-.136 5.282l-21.514 9.983a2.922 2.922 0 0 1-2.506-.021l-16.372-7.942v11.656l17.675 8.45 18.765-8.765A4 4 0 0 1 116 33.647v.178L92.73 44.72a2.922 2.922 0 0 1-2.476-.02l-20.581-9.84A2.947 2.947 0 0 1 68 32.2V13.987c0-2.173 2.261-3.598 4.209-2.653l19.333 9.378 14.865-6.898L91.542 6.09z"/>
            <path d="M93.073 30.484l-2.415-.006 1.209-.545 1.206.551zm21.475-10.93v6.298l-21.49 10.003a2.921 2.921 0 0 1-2.415-.007l-12.776-5.915v-6.708l10.199 4.887a9 9 0 0 0 7.634.067l18.848-8.625z"/>
        </g>
        <path d="M52.325 12.163v-.802h.593c.296 0 .551-.034.768-.103a1.29 1.29 0 0 0 .537-.32 1.31 1.31 0 0 0 .314-.552c.067-.224.1-.49.1-.798V6.941h.813v2.647c0 .405-.054.766-.161 1.084a2.13 2.13 0 0 1-.48.808c-.212.22-.476.39-.792.507a3.15 3.15 0 0 1-1.099.176h-.593zm.379-2.358h-.813v-6.05h.813v6.05zM47.3 8.715c.106-.046.204-.102.295-.17.09-.068.169-.145.236-.232a.956.956 0 0 0 .213-.613.67.67 0 0 0-.09-.358.828.828 0 0 0-.475-.37.83.83 0 0 0-.555.014.818.818 0 0 0-.258.146.667.667 0 0 0-.234.509c0 .122.017.231.05.329a.834.834 0 0 0 .154.271c.07.084.16.164.269.24.109.076.24.154.395.233zm1.096-3.369a90.264 90.264 0 0 1 1.217 1.279 18.635 18.635 0 0 1 .582.658c.076.091.132.166.17.222.077.125.14.245.19.36a1.451 1.451 0 0 1 .115.718 2.091 2.091 0 0 1-.082.403 1.371 1.371 0 0 1-.217.447 1.48 1.48 0 0 1-.359.346c-.14.096-.3.17-.477.223a2.03 2.03 0 0 1-.576.078 2.56 2.56 0 0 1-.606-.076c-.209-.05-.425-.13-.649-.238a3.594 3.594 0 0 1-.176-.076 14.864 14.864 0 0 0-.148-.068 2.012 2.012 0 0 1-.123-.06 5.34 5.34 0 0 1-.945.185c-.361.041-.75.062-1.17.062h-.631v-.802h.632c.186 0 .379-.003.578-.008.199-.006.376-.019.53-.039a1.679 1.679 0 0 1-.45-.587 1.79 1.79 0 0 1-.142-.732 1.43 1.43 0 0 1 .453-1.069 1.54 1.54 0 0 1 .503-.312 1.74 1.74 0 0 1 1.106-.04c.144.048.274.112.392.193.117.08.22.174.307.28.087.106.161.216.221.33.06.115.106.231.136.349.03.117.045.227.045.328 0 .292-.055.554-.166.787-.11.234-.273.44-.488.618.12.048.249.087.385.118a1.818 1.818 0 0 0 .662.03.869.869 0 0 0 .24-.068.771.771 0 0 0 .21-.138.758.758 0 0 0 .162-.227.58.58 0 0 0 .043-.384 1.509 1.509 0 0 0-.18-.447 3.747 3.747 0 0 0-.348-.494 9.742 9.742 0 0 0-.464-.524 18.495 18.495 0 0 0-.529-.535 47.18 47.18 0 0 1-.537-.53l.584-.56zm-15.502 6.817v-.802h.593c.295 0 .551-.034.767-.103a1.29 1.29 0 0 0 .538-.32 1.31 1.31 0 0 0 .313-.552c.068-.224.101-.49.101-.798V6.941h.813v2.647c0 .405-.054.766-.162 1.084a2.13 2.13 0 0 1-.479.808c-.212.22-.476.39-.793.507a3.15 3.15 0 0 1-1.098.176h-.593zm-2.91-3.449c.107-.045.205-.101.295-.17.09-.067.169-.144.236-.23a.956.956 0 0 0 .213-.613.67.67 0 0 0-.09-.36.828.828 0 0 0-.475-.368.83.83 0 0 0-.554.013.818.818 0 0 0-.258.146.667.667 0 0 0-.235.509c0 .122.017.231.05.329a.834.834 0 0 0 .155.271c.07.084.16.164.268.24.11.076.24.154.396.233zm1.097-3.368a90.264 90.264 0 0 1 1.216 1.279 18.635 18.635 0 0 1 .582.658c.076.091.133.166.17.222.077.125.141.245.191.36a1.451 1.451 0 0 1 .114.718 2.091 2.091 0 0 1-.082.403 1.371 1.371 0 0 1-.217.447 1.48 1.48 0 0 1-.359.346c-.14.096-.299.17-.477.223a2.03 2.03 0 0 1-.575.078 2.56 2.56 0 0 1-.606-.076c-.21-.05-.426-.13-.65-.238a3.594 3.594 0 0 1-.176-.076 14.866 14.866 0 0 0-.148-.068 2.012 2.012 0 0 1-.122-.06 5.34 5.34 0 0 1-.946.185c-.36.041-.75.062-1.169.062h-.632v-.802h.632c.186 0 .379-.003.578-.008.2-.006.376-.019.53-.039a1.679 1.679 0 0 1-.45-.587 1.79 1.79 0 0 1-.142-.732 1.43 1.43 0 0 1 .453-1.069 1.54 1.54 0 0 1 .503-.312 1.74 1.74 0 0 1 1.107-.04c.143.048.273.112.39.193.118.08.22.174.308.28.088.106.161.216.221.33.06.115.106.231.136.349.03.117.045.227.045.328 0 .292-.055.554-.165.787-.11.234-.273.44-.488.618.12.048.248.087.384.118a1.818 1.818 0 0 0 .662.03.869.869 0 0 0 .24-.068.771.771 0 0 0 .21-.138.758.758 0 0 0 .163-.227.58.58 0 0 0 .043-.384 1.509 1.509 0 0 0-.18-.447 3.747 3.747 0 0 0-.349-.494 9.742 9.742 0 0 0-.464-.524 18.495 18.495 0 0 0-.529-.535 47.18 47.18 0 0 1-.537-.53l.585-.56zm-9.8 5.994c.287 0 .536-.024.746-.074.21-.05.385-.128.522-.235a.952.952 0 0 0 .306-.42c.065-.173.098-.382.098-.628-.275-.071-.544-.142-.808-.212a35.733 35.733 0 0 1-.72-.19c-.121-.032-.24-.062-.356-.09a20.108 20.108 0 0 1-.32-.081 2.281 2.281 0 0 1 0-1.816c.117-.268.283-.51.498-.723.215-.213.463-.384.744-.511.28-.127.587-.204.92-.231.332-.027.676.01 1.03.112l-.201.768a2.062 2.062 0 0 0-1.171-.002 1.91 1.91 0 0 0-.514.24c-.157.104-.291.23-.402.375a1.438 1.438 0 0 0-.273 1.08l1.646.403c.23.062.402.164.516.305a.796.796 0 0 1 .172.518c0 .37-.044.695-.133.973-.089.279-.23.51-.426.694a1.868 1.868 0 0 1-.754.416c-.308.093-.681.14-1.12.14h-.95c-.217 0-.428-.027-.631-.081a2.671 2.671 0 0 1-.576-.225 2.596 2.596 0 0 1-.898-.798 2.58 2.58 0 0 1-.305-.708 3.143 3.143 0 0 1-.103-.814c0-.354.056-.735.17-1.144a7.93 7.93 0 0 1 .496-1.296c.129.06.249.117.36.172l.353.172c-.378.797-.567 1.489-.567 2.074 0 .21.026.409.077.599.052.189.123.36.215.513.146.226.344.404.593.532.25.129.522.193.817.193h.95zM12.989 9.81h-.812V4.39h.812V9.81zm1.388-6.1H12.3c-.18 0-.332.007-.455.02a.93.93 0 0 0-.312.086.531.531 0 0 0-.206.182c-.053.08-.1.184-.14.314l-.679-.2c.132-.455.371-.767.718-.937.146-.074.308-.121.485-.142.178-.021.374-.032.59-.032h2.075v.708zM9.885 6.355a8.26 8.26 0 0 1 .092.41l.071.36a8.909 8.909 0 0 1 .12.787c.015.124.022.233.022.326 0 .272-.045.506-.135.702a1.428 1.428 0 0 1-.84.774c-.181.063-.363.094-.546.094H7.573v-.802h1.096c.043 0 .103-.006.182-.02a.617.617 0 0 0 .443-.324.853.853 0 0 0 .088-.424c0-.062-.005-.14-.015-.235a8.075 8.075 0 0 0-.092-.64 15.64 15.64 0 0 0-.116-.597 2.936 2.936 0 0 0-.043-.178l.769-.233zM23.1 30.076h6.532c.086 0 .21-.012.37-.037.162-.025.323-.09.484-.196.162-.106.303-.267.425-.483.122-.215.182-.51.182-.885a5.2 5.2 0 0 0-.037-.568c-.025-.222-.06-.461-.102-.716a24.301 24.301 0 0 0-.145-.78 88.602 88.602 0 0 0-.156-.752c-.05-.237-.1-.453-.15-.647-.05-.194-.09-.345-.119-.45l2.525-.754a20.111 20.111 0 0 1 .247 1.023c.058.266.117.561.178.886.06.326.118.653.172.981.053.33.096.649.128.96.033.311.049.583.049.817 0 .728-.122 1.359-.366 1.893a3.864 3.864 0 0 1-.956 1.32 3.944 3.944 0 0 1-1.327.774c-.49.17-.983.255-1.477.255H22.53a7.421 7.421 0 0 1-1.644-.164 5.663 5.663 0 0 1-1.305-.462 5.404 5.404 0 0 1-1.08-.72c-.33-.284-.652-.602-.967-.955-.294.58-.68 1.028-1.16 1.346a5.121 5.121 0 0 1-1.639.7c-.612.149-1.284.237-2.015.266-.73.028-1.497.042-2.299.042l-6.382-.053a4.26 4.26 0 0 1-1.504-.265 3.766 3.766 0 0 1-1.257-.774 4.808 4.808 0 0 1-.446-.488 3.281 3.281 0 0 1-.414-.679 4.685 4.685 0 0 1-.3-.886A4.766 4.766 0 0 1 0 28.517c0-.353.036-.737.107-1.15.072-.414.153-.805.242-1.172a21.65 21.65 0 0 1 .403-1.453l1.279.403 1.268.392c-.065.19-.133.419-.205.684-.071.265-.14.537-.204.817-.064.279-.118.55-.16.811a4.27 4.27 0 0 0-.065.679c0 .34.048.613.145.822.096.208.215.367.354.477.14.11.292.182.457.217.165.036.311.053.44.053l6.361.043c.792 0 1.474-.023 2.058-.07.583-.045 1.08-.11 1.488-.195.408-.085.73-.19.967-.313.236-.124.404-.267.505-.43a.474.474 0 0 0 .075-.212c.014-.092.021-.18.021-.265a1.53 1.53 0 0 0-.08-.456 4.163 4.163 0 0 0-.215-.536 5.765 5.765 0 0 0-.317-.572c-.122-.195-.25-.387-.387-.578-.544-.743-1.02-1.379-1.429-1.91-.408-.53-.748-.968-1.02-1.314a71.21 71.21 0 0 0-.828-1.019l.57-2.28 9.584-4.454 1.096 2.418-8.456 3.829 3.298 4.412c.394.53.747.995 1.059 1.394.311.4.6.743.865 1.029.265.286.517.523.757.71.24.188.487.336.741.446.255.11.523.187.806.233.283.046.6.07.951.07h.57zm18.483 2.64c-.73-.005-1.361-.052-1.894-.142-.566-.096-1.042-.237-1.43-.424a2.648 2.648 0 0 1-.928-.716c-.233-.29-.41-.63-.532-1.018a6.042 6.042 0 0 1-.242-1.32c-.04-.492-.06-1.035-.06-1.629V17.424h2.676v10.043c0 .566.02 1.018.06 1.358.039.34.143.602.31.79.17.187.424.31.764.371.34.06.811.09 1.413.09h2.696c.702 0 1.451-.07 2.246-.212.795-.141 1.58-.323 2.353-.546a24.37 24.37 0 0 0 2.208-.748 19.38 19.38 0 0 0 1.821-.816l-1.069-.324a98.351 98.351 0 0 0-2.369-.69c-.394-.109-.763-.206-1.107-.29a15.41 15.41 0 0 0-.924-.202 3.826 3.826 0 0 0-.644-.075c-.165 0-.31.02-.435.059a.918.918 0 0 0-.339.19c-.1.089-.193.204-.28.345a5.482 5.482 0 0 0-.268.51l-2.46-.732a7.29 7.29 0 0 1 .5-1.194c.196-.37.436-.694.72-.97a3.19 3.19 0 0 1 .982-.652 3.23 3.23 0 0 1 1.279-.239c.186 0 .451.039.795.117.344.078.734.18 1.171.307.437.128.904.273 1.402.435.498.163.998.332 1.5.51a272.75 272.75 0 0 1 2.739.98c.38.138.698.253.956.345.258.092.423.148.494.17L56 28.496l-.559.371c-.33.22-.766.486-1.31.8-.545.316-1.182.65-1.913 1.003a24.35 24.35 0 0 1-2.364.986 21.14 21.14 0 0 1-2.654.759c-.924.201-1.851.302-2.783.302h-2.833zM39.157 9.808a3.76 3.76 0 0 1-.617-.06 1.8 1.8 0 0 1-.498-.165.964.964 0 0 1-.327-.272 1.262 1.262 0 0 1-.191-.381 2.215 2.215 0 0 1-.09-.49 7.685 7.685 0 0 1-.022-.603v-4.08h.812v4.08c0 .246.008.446.024.598.016.153.057.271.125.355.067.083.169.14.305.17.136.029.324.045.565.048h1.178c.166 0 .321-.012.466-.036.145-.024.275-.058.391-.102.116-.044.215-.097.297-.159a.636.636 0 0 0 .182-.208c.069-.138.075-.307.02-.505-.056-.198-.175-.417-.355-.657a2650.488 2650.488 0 0 0-1.405-1.947l.159-.594L44.12 3l.335.734-3.52 1.59 1.707 2.338c.174.232.33.432.468.6.138.169.277.308.419.418.142.11.297.193.464.246.168.054.368.081.6.081h.064v.802h-.064c-.255 0-.482-.024-.681-.072a2.215 2.215 0 0 1-.995-.528 4.614 4.614 0 0 1-.404-.423.502.502 0 0 1-.018.039 1.4 1.4 0 0 1-.355.458 1.892 1.892 0 0 1-.513.31 2.441 2.441 0 0 1-.563.163 3.812 3.812 0 0 1-.644.053h-1.264v-.002zM8.445 4.604l.73-.73.749.738-.74.73-.739-.738zm18.889 5.205a3.948 3.948 0 0 1-.703-.062 1.8 1.8 0 0 1-.498-.165.964.964 0 0 1-.327-.272 1.262 1.262 0 0 1-.191-.381 2.215 2.215 0 0 1-.09-.49 7.685 7.685 0 0 1-.022-.603v-4.08h.812v4.08c0 .246.008.446.024.598.016.153.057.271.125.355.067.083.169.14.305.17.136.029.324.045.565.048v.802zm-20.827 0c.12.232.185.45.195.657.01.207-.023.396-.1.569a1.364 1.364 0 0 1-.353.466 2.155 2.155 0 0 1-.559.35 3.432 3.432 0 0 1-.717.221 4.276 4.276 0 0 1-.834.079H2.914c-.453 0-.86-.098-1.22-.293a2.443 2.443 0 0 1-.886-.81 2.547 2.547 0 0 1-.333-.809 3.344 3.344 0 0 1-.071-.946c.02-.335.084-.688.191-1.058a7.08 7.08 0 0 1 .454-1.15l.722.348c-.321.668-.504 1.272-.548 1.814-.045.541.05.997.281 1.368.146.235.342.414.587.539.245.124.52.186.823.186h1.225a3.075 3.075 0 0 0 .907-.135c.134-.043.256-.093.365-.151.109-.058.2-.122.273-.193a.595.595 0 0 0 .152-.227.387.387 0 0 0 .005-.248.502.502 0 0 0-.241-.278 1.674 1.674 0 0 0-.456-.178 3.82 3.82 0 0 0-.575-.094 6.735 6.735 0 0 0-.598-.027l.03-.802h3.705v.802h-1.2zm36.47 26.503l1.827-1.803 1.827 1.825-1.827 1.802-1.826-1.824zm4.481.022l1.848-1.803 1.827 1.824-1.827 1.803-1.848-1.824zm-2.138 2.97l1.698-1.677 1.719 1.697L47.039 41l-1.719-1.697zm-17.04-2.896l1.933-1.93 1.977 1.951-1.955 1.93-1.956-1.951z"/>
    </g>
</svg>
