<?xml version="1.0" encoding="UTF-8"?>
<svg width="358px" height="139px" viewBox="0 0 358 139" version="1.1" xmlns="http://www.w3.org/2000/svg" xmlns:xlink="http://www.w3.org/1999/xlink">
    <!-- Generator: Sketch 50.2 (55047) - http://www.bohemiancoding.com/sketch -->
    <title>ChabokCoText</title>
    <desc>Created with Sketch.</desc>
    <defs></defs>
    <g id="Page-1" stroke="none" stroke-width="1" fill="none" fill-rule="evenodd">
        <g id="ChabokCoText" fill-rule="nonzero">
            <g id="Group-14" transform="translate(210.000000, 0.000000)">
                <path d="M72.5880483,18.8087769 L73.1777778,0 L143.052753,35.1508905 C149.683566,38.6645548 149.434866,48.3031879 142.631787,51.4658622 L76.2966615,82.3043104 C73.8409068,83.445963 71.0062457,83.4215491 68.5702702,82.237766 L18.0888889,57.7059081 L18.0888889,93.7111373 L72.5880483,119.811339 L142.304686,87.1884936 C144.305597,86.2521976 146.686674,87.1152385 147.62297,89.1161496 C147.87129,89.6468217 148,90.2255661 148,90.8114635 L148,104.482501 L76.2511483,138.133276 C73.8214981,139.24641 71.0272618,139.222568 68.6167191,138.068135 L5.15770711,107.676969 C2.0070965,106.168109 0,102.970132 0,99.4590139 L0,43.2037712 C0,36.4926865 6.97203453,32.0897539 12.9776307,35.0082246 L72.5890674,63.9769108 L118.42069,42.6703088 L72.5880483,18.8087769 Z" id="Path-12" fill="#2C1C51"></path>
                <path d="M77.3083363,94.163031 L69.8621855,94.1419843 L73.5899845,92.4602867 L77.3083363,94.163031 Z M143.524006,60.3988095 L143.524006,79.854379 L77.2620312,110.751611 C74.8921045,111.82074 72.179801,111.813074 69.8158804,110.730564 L30.4222222,92.4602867 L30.4222222,71.7382881 L69.7830926,90.6328487 C72.1948805,91.7905892 74.9967142,91.8153669 77.4286001,90.700461 L143.524006,60.3988095 Z" id="Path-12-Copy" fill="#00CEA0"></path>
            </g>
            <path d="M161.64812,38.6955066 L161.64812,36.1846497 L163.480353,36.1846497 C164.392049,36.1846497 165.182025,36.076157 165.850307,35.8591683 C166.518589,35.6421796 167.071794,35.3078448 167.509939,34.8561541 C167.948084,34.4044633 168.271155,33.8287876 168.479163,33.1291097 C168.687172,32.4294318 168.791174,31.5969162 168.791174,30.6315378 L168.791174,22.3417248 L171.300537,22.3417248 L171.300537,30.6315378 C171.300537,31.8980434 171.134576,33.0294675 170.802648,34.0258443 C170.47072,35.022221 169.977261,35.8658073 169.322256,36.5566285 C168.667252,37.2474497 167.850721,37.7766285 166.87264,38.1441809 C165.894559,38.5117332 164.763808,38.6955066 163.480353,38.6955066 L161.64812,38.6955066 Z M162.8165,31.3090706 L160.307137,31.3090706 L160.307137,12.3647223 L162.8165,12.3647223 L162.8165,31.3090706 Z M146.127245,27.8948367 C146.454747,27.7531298 146.757903,27.5759988 147.036723,27.3634385 C147.315542,27.1508781 147.558953,26.9095371 147.766961,26.6394083 C147.974969,26.3692795 148.136505,26.0747992 148.251573,25.7559587 C148.366642,25.4371181 148.424175,25.0917127 148.424175,24.7197321 C148.424175,24.276898 148.331237,23.9027088 148.145357,23.5971532 C147.959477,23.2915977 147.738195,23.0436143 147.481504,22.8531956 C147.224813,22.662777 146.957062,22.5255005 146.678243,22.441362 C146.399423,22.3572235 146.162651,22.3151549 145.96792,22.3151549 C145.605012,22.3151549 145.270876,22.3705083 144.965503,22.4812169 C144.660129,22.5919254 144.394591,22.7447009 144.16888,22.9395479 C143.943168,23.1343949 143.766143,23.3690934 143.637797,23.6436506 C143.509452,23.9182077 143.44528,24.2149021 143.44528,24.5337427 C143.44528,24.91458 143.496175,25.2577713 143.597966,25.5633268 C143.699757,25.8688824 143.859081,26.1522919 144.07594,26.4135641 C144.2928,26.6748362 144.569402,26.9250337 144.905756,27.1641641 C145.24211,27.4032945 145.649269,27.6468496 146.127245,27.8948367 Z M149.512893,17.3465811 C150.486549,18.3650995 151.384954,19.3171786 152.208135,20.2028468 C152.562192,20.5836841 152.916243,20.9667299 153.270299,21.3519955 C153.624356,21.7372612 153.954066,22.104808 154.25944,22.4546469 C154.564813,22.8044859 154.834778,23.1233217 155.06934,23.4111638 C155.303902,23.699006 155.478715,23.9314904 155.593784,24.1086241 C155.832772,24.4983181 156.029713,24.8747214 156.184612,25.2378454 C156.339512,25.6009693 156.445728,25.9685161 156.503262,26.3404968 C156.560796,26.7124774 156.57186,27.0933091 156.536454,27.4830031 C156.501049,27.8726971 156.416962,28.2933832 156.28419,28.745074 C156.142568,29.2587615 155.919073,29.7259445 155.613699,30.1466369 C155.308325,30.5673293 154.938784,30.9282337 154.505065,31.2293609 C154.071346,31.5304881 153.5801,31.7629725 153.031312,31.9268211 C152.482525,32.0906697 151.889489,32.1725928 151.252187,32.1725928 C150.650291,32.1725928 150.026276,32.0928839 149.380123,31.9334636 C148.73397,31.7740433 148.065698,31.5260599 147.375288,31.189506 C147.180557,31.1097959 146.999105,31.0300869 146.830929,30.9503768 C146.680455,30.8795233 146.52777,30.8086709 146.37287,30.7378175 C146.217971,30.666964 146.09184,30.6049682 145.994474,30.5518281 C145.162441,30.8086719 144.188801,31.0013018 143.073523,31.1297237 C141.958245,31.2581456 140.754471,31.3223556 139.462164,31.3223556 L137.510437,31.3223556 L137.510437,28.8114987 L139.462164,28.8114987 C140.037506,28.8114987 140.632755,28.8026422 141.247928,28.7849288 C141.863101,28.7672155 142.409668,28.727361 142.887644,28.6653642 C142.250342,28.1073932 141.78565,27.4940772 141.493553,26.8253977 C141.201457,26.1567182 141.055411,25.3928408 141.055411,24.5337427 C141.055411,23.8606348 141.179329,23.2384622 141.427168,22.6672063 C141.675008,22.0959503 142.017995,21.6021976 142.45614,21.1859336 C142.894285,20.7696695 143.412085,20.4441913 144.009555,20.2094893 C144.607025,19.9747872 145.259807,19.8574379 145.96792,19.8574379 C146.499005,19.8574379 146.985825,19.9327186 147.428396,20.0832822 C147.870967,20.2338458 148.2737,20.4353323 148.636608,20.6877477 C148.999516,20.9401631 149.315949,21.2324293 149.585917,21.5645548 C149.855885,21.8966804 150.083806,22.2420858 150.269685,22.6007815 C150.455565,22.9594771 150.594973,23.3225956 150.687913,23.6901479 C150.780852,24.0577002 150.827322,24.4008915 150.827322,24.7197321 C150.827322,25.6319703 150.656934,26.4534153 150.316155,27.1840915 C149.975376,27.9147678 149.473065,28.5590818 148.80921,29.1170527 C149.180969,29.2676163 149.577064,29.391608 149.997506,29.4890315 C150.417948,29.586455 150.836171,29.6351661 151.252187,29.6351661 C151.51773,29.6351661 151.781055,29.617453 152.042172,29.5820262 C152.303289,29.5465995 152.551124,29.4757471 152.785687,29.3694669 C153.020249,29.2631867 153.234893,29.1192678 153.429624,28.9377058 C153.624355,28.7561438 153.792529,28.5192312 153.934152,28.2269606 C154.11118,27.8638367 154.155437,27.4630778 154.066922,27.0246721 C153.978408,26.5862663 153.792531,26.1190833 153.509286,25.6231091 C153.226041,25.1271349 152.867564,24.6112409 152.433845,24.0754117 C152.000126,23.5395824 151.522157,22.9926905 150.999923,22.4347195 C150.47769,21.8767485 149.933336,21.3187859 149.366846,20.760815 C148.800355,20.202844 148.24715,19.6493097 147.707214,19.1001954 L149.512893,17.3465811 Z M101.622563,38.6955066 L101.622563,36.1846497 L103.454797,36.1846497 C104.366492,36.1846497 105.156469,36.076157 105.824751,35.8591683 C106.493032,35.6421796 107.046237,35.3078448 107.484382,34.8561541 C107.922527,34.4044633 108.245599,33.8287876 108.453607,33.1291097 C108.661615,32.4294318 108.765618,31.5969162 108.765618,30.6315378 L108.765618,22.3417248 L111.274981,22.3417248 L111.274981,30.6315378 C111.274981,31.8980434 111.109019,33.0294675 110.777091,34.0258443 C110.445163,35.022221 109.951704,35.8658073 109.2967,36.5566285 C108.641695,37.2474497 107.825165,37.7766285 106.847084,38.1441809 C105.869003,38.5117332 104.738251,38.6955066 103.454797,38.6955066 L101.622563,38.6955066 Z M92.6339985,27.8948367 C92.9615007,27.7531298 93.2646571,27.5759988 93.5434766,27.3634385 C93.8222961,27.1508781 94.0657063,26.9095371 94.2737145,26.6394083 C94.4817227,26.3692795 94.6432586,26.0747992 94.7583269,25.7559587 C94.8733953,25.4371181 94.9309286,25.0917127 94.9309286,24.7197321 C94.9309286,24.276898 94.8379902,23.9027088 94.6521105,23.5971532 C94.4662308,23.2915977 94.2449488,23.0436143 93.9882579,22.8531956 C93.7315669,22.662777 93.4638157,22.5255005 93.1849962,22.441362 C92.9061767,22.3572235 92.6694049,22.3151549 92.4746738,22.3151549 C92.1117659,22.3151549 91.7776301,22.3705083 91.4722563,22.4812169 C91.1668826,22.5919254 90.9013442,22.7447009 90.6756332,22.9395479 C90.4499221,23.1343949 90.2728965,23.3690934 90.144551,23.6436506 C90.0162055,23.9182077 89.9520338,24.2149021 89.9520338,24.5337427 C89.9520338,24.91458 90.0029286,25.2577713 90.1047199,25.5633268 C90.2065111,25.8688824 90.3658342,26.1522919 90.5826938,26.4135641 C90.7995534,26.6748362 91.0761559,26.9250337 91.4125096,27.1641641 C91.7488633,27.4032945 92.1560222,27.6468496 92.6339985,27.8948367 Z M96.019647,17.3465811 C96.9933024,18.3650995 97.8917073,19.3171786 98.7148887,20.2028468 C99.0689452,20.5836841 99.4229964,20.9667299 99.777053,21.3519955 C100.131109,21.7372612 100.46082,22.104808 100.766193,22.4546469 C101.071567,22.8044859 101.341531,23.1233217 101.576094,23.4111638 C101.810656,23.699006 101.985469,23.9314904 102.100537,24.1086241 C102.339525,24.4983181 102.536466,24.8747214 102.691366,25.2378454 C102.846266,25.6009693 102.952481,25.9685161 103.010015,26.3404968 C103.06755,26.7124774 103.078614,27.0933091 103.043208,27.4830031 C103.007802,27.8726971 102.923715,28.2933832 102.790944,28.745074 C102.649321,29.2587615 102.425827,29.7259445 102.120453,30.1466369 C101.815079,30.5673293 101.445538,30.9282337 101.011819,31.2293609 C100.5781,31.5304881 100.086854,31.7629725 99.538066,31.9268211 C98.9892784,32.0906697 98.3962426,32.1725928 97.7589409,32.1725928 C97.1570448,32.1725928 96.5330296,32.0928839 95.8868764,31.9334636 C95.2407233,31.7740433 94.5724516,31.5260599 93.8820414,31.189506 C93.6873104,31.1097959 93.5058591,31.0300869 93.3376823,30.9503768 C93.1872083,30.8795233 93.0345237,30.8086709 92.8796239,30.7378175 C92.7247242,30.666964 92.5985935,30.6049682 92.5012279,30.5518281 C91.6691951,30.8086719 90.6955543,31.0013018 89.5802763,31.1297237 C88.4649983,31.2581456 87.2612242,31.3223556 85.9689179,31.3223556 L84.0171911,31.3223556 L84.0171911,28.8114987 L85.9689179,28.8114987 C86.5442597,28.8114987 87.1395083,28.8026422 87.7546815,28.7849288 C88.3698547,28.7672155 88.9164212,28.727361 89.3943975,28.6653642 C88.7570958,28.1073932 88.2924036,27.4940772 88.000307,26.8253977 C87.7082104,26.1567182 87.5621642,25.3928408 87.5621642,24.5337427 C87.5621642,23.8606348 87.6860822,23.2384622 87.9339217,22.6672063 C88.1817613,22.0959503 88.5247484,21.6021976 88.9628933,21.1859336 C89.4010383,20.7696695 89.9188381,20.4441913 90.5163085,20.2094893 C91.1137789,19.9747872 91.7665608,19.8574379 92.4746738,19.8574379 C93.0057586,19.8574379 93.492579,19.9327186 93.9351497,20.0832822 C94.3777203,20.2338458 94.7804535,20.4353323 95.1433615,20.6877477 C95.5062694,20.9401631 95.8227027,21.2324293 96.0926708,21.5645548 C96.3626389,21.8966804 96.5905593,22.2420858 96.776439,22.6007815 C96.9623187,22.9594771 97.1017263,23.3225956 97.1946662,23.6901479 C97.287606,24.0577002 97.3340752,24.4008915 97.3340752,24.7197321 C97.3340752,25.6319703 97.1636881,26.4534153 96.8229087,27.1840915 C96.4821293,27.9147678 95.9798191,28.5590818 95.3159632,29.1170527 C95.6877225,29.2676163 96.0838173,29.391608 96.5042594,29.4890315 C96.9247015,29.586455 97.3429245,29.6351661 97.7589409,29.6351661 C98.0244833,29.6351661 98.2878089,29.617453 98.5489256,29.5820262 C98.8100422,29.5465995 99.0578781,29.4757471 99.2924405,29.3694669 C99.527003,29.2631867 99.7416465,29.1192678 99.9363776,28.9377058 C100.131109,28.7561438 100.299283,28.5192312 100.440906,28.2269606 C100.617934,27.8638367 100.66219,27.4630778 100.573676,27.0246721 C100.485162,26.5862663 100.299285,26.1190833 100.01604,25.6231091 C99.7327947,25.1271349 99.3743179,24.6112409 98.9405986,24.0754117 C98.5068794,23.5395824 98.0289103,22.9926905 97.5066769,22.4347195 C96.9844435,21.8767485 96.4400898,21.3187859 95.8735994,20.760815 C95.307109,20.202844 94.753904,19.6493097 94.2139678,19.1001954 L96.019647,17.3465811 Z M65.7479662,36.118225 C66.6331075,36.118225 67.4009561,36.0407301 68.0515349,35.8857382 C68.7021138,35.7307463 69.239829,35.484977 69.6646969,35.1484231 C70.0895647,34.8118692 70.4037851,34.37347 70.6073676,33.8332124 C70.8109501,33.2929548 70.9127398,32.6375701 70.9127398,31.8670388 C70.0630042,31.6456217 69.2309839,31.424208 68.4166539,31.202791 C68.0714488,31.1142241 67.7085463,31.0190162 67.3279355,30.9171644 C66.9473248,30.8153125 66.5689326,30.7134622 66.1927475,30.6116104 C65.8165625,30.5097585 65.4492343,30.4145506 65.0907521,30.3259838 C64.7322699,30.237417 64.4025597,30.1532798 64.1016117,30.0735696 C63.6855953,29.0639079 63.4908671,28.0741885 63.5174213,27.1043818 C63.5439756,26.1345751 63.7387037,25.228993 64.1016117,24.3876081 C64.4645196,23.5462233 64.9778938,22.7912025 65.6417498,22.122523 C66.3056058,21.4538435 67.0712415,20.9202364 67.93868,20.5216857 C68.8061184,20.123135 69.7532054,19.8817941 70.7799693,19.7976556 C71.8067332,19.7135171 72.8688868,19.8308664 73.966462,20.1497069 L73.3424405,22.5542841 C72.7405444,22.3682938 72.1298061,22.2775142 71.5102072,22.2819425 C70.8906083,22.2863708 70.2953597,22.3749363 69.7244436,22.5476416 C69.1535275,22.7203469 68.6246635,22.9705445 68.1378358,23.2982417 C67.6510081,23.6259389 67.2372107,24.0178412 66.8964313,24.4739604 C66.5556519,24.9300795 66.3078161,25.4437594 66.1529163,26.0150154 C65.9980166,26.5862713 65.9648243,27.1995874 66.0533384,27.8549819 L71.1384497,29.1170527 C71.8465628,29.3118998 72.3776396,29.6307355 72.7316961,30.0735696 C73.0857526,30.5164037 73.2627782,31.0566532 73.2627782,31.6943344 C73.2627782,32.8545597 73.1255834,33.8708487 72.8511896,34.7432319 C72.5767958,35.6156151 72.1386574,36.339638 71.5367613,36.9153224 C70.9348652,37.4910067 70.1581654,37.9249776 69.2066385,38.2172481 C68.2551116,38.5095186 67.1022324,38.6556517 65.7479662,38.6556517 L62.8137375,38.6556517 C62.1410301,38.6556517 61.4904611,38.5715145 60.8620107,38.4032375 C60.2335604,38.2349606 59.6405247,38.000262 59.0828856,37.6991348 C58.5252466,37.3980076 58.0118724,37.0348891 57.5427475,36.6097684 C57.0736226,36.1846476 56.6620381,35.7152505 56.3079816,35.2015629 C55.8919652,34.5284551 55.5777447,33.7889332 55.3653108,32.9829752 C55.1528769,32.1770171 55.0466616,31.3267884 55.0466616,30.4322635 C55.0466616,29.3251782 55.2214743,28.1317582 55.5711051,26.8519676 C55.920736,25.5721771 56.4318974,24.2193392 57.1046048,22.7934133 C57.5029183,22.9794037 57.8746721,23.1587488 58.2198772,23.3314541 C58.5650823,23.5041594 58.9279848,23.6835045 59.3085955,23.8694948 C58.140209,26.3670792 57.5560246,28.5325055 57.5560246,30.3658387 C57.5560246,31.0212332 57.6356861,31.6456199 57.7950115,32.2390176 C57.9543369,32.8324153 58.1756189,33.3682365 58.4588642,33.8464973 C58.9102862,34.5550319 59.5210245,35.1107804 60.2910975,35.5137594 C61.0611704,35.9167385 61.902042,36.118225 62.8137375,36.118225 L65.7479662,36.118225 Z M40.123254,31.3223556 L37.613891,31.3223556 L37.613891,14.3574658 L40.123254,14.3574658 L40.123254,31.3223556 Z M44.4117421,12.2185878 L37.9989256,12.2185878 C37.4412865,12.2185878 36.9721687,12.2407291 36.5915579,12.2850126 C36.2109472,12.329296 35.8900883,12.4178615 35.6289716,12.5507117 C35.3678549,12.6835619 35.1554242,12.8739777 34.9916731,13.1219648 C34.8279219,13.3699519 34.6840886,13.6976443 34.5601688,14.1050516 L32.4623945,13.4806587 C32.8695595,12.0547328 33.6086414,11.0760842 34.6796623,10.5446832 C35.1310844,10.3144095 35.6311817,10.1660623 36.1799693,10.0996372 C36.7287569,10.0332121 37.3350696,10 37.9989256,10 L44.4117421,10 L44.4117421,12.2185878 Z M30.5372218,20.5084008 C30.5549246,20.5615409 30.5903297,20.7032457 30.6434382,20.9335194 C30.6965467,21.1637931 30.7562928,21.4494168 30.8226784,21.7903991 C30.889064,22.1313814 30.9620871,22.5077847 31.0417498,22.9196204 C31.1214125,23.3314561 31.1922228,23.747714 31.2541827,24.1684064 C31.3161425,24.5890988 31.3692502,24.9942859 31.4135073,25.3839799 C31.4577644,25.7736739 31.4798926,26.1146511 31.4798926,26.4069216 C31.4798926,27.2571631 31.3404849,27.9900425 31.0616654,28.6055819 C30.7828459,29.2211213 30.4199434,29.7303729 29.972947,30.1333519 C29.5259507,30.536331 29.0236405,30.8352395 28.4660015,31.0300865 C27.9083625,31.2249335 27.3463062,31.3223556 26.7798158,31.3223556 L23.3941673,31.3223556 L23.3941673,28.8114987 L26.7798158,28.8114987 C26.912587,28.8114987 27.1006767,28.7915715 27.3440906,28.7517164 C27.5875044,28.7118614 27.8309146,28.6122252 28.0743285,28.4528049 C28.3177423,28.2933846 28.5301731,28.0542578 28.711627,27.7354172 C28.893081,27.4165767 28.9838066,26.9737492 28.9838066,26.4069216 C28.9838066,26.2120746 28.9683169,25.9663053 28.9373369,25.6696065 C28.906357,25.3729076 28.8665262,25.0540719 28.8178434,24.7130896 C28.7691607,24.3721073 28.7138402,24.0222736 28.6518803,23.663578 C28.5899204,23.3048824 28.5279614,22.9661194 28.4660015,22.6472788 C28.4040416,22.3284383 28.3465083,22.0450287 28.2933998,21.7970416 C28.2402914,21.5490545 28.196035,21.363067 28.1606293,21.2390734 L30.5372218,20.5084008 Z M71.3641596,94.7912364 L82.4836915,94.7912364 L91.5452801,94.7912364 C91.8108225,94.7912364 92.192534,94.752489 92.6904259,94.674993 C93.1883179,94.5974971 93.6862024,94.3926894 94.1840944,94.0605638 C94.6819864,93.7284382 95.1190183,93.224722 95.4952034,92.5493999 C95.8713884,91.8740779 96.0594781,90.9496756 96.0594781,89.7761652 C96.0594781,89.2890477 96.0207538,88.696766 95.9433039,87.9993023 C95.8658541,87.3018385 95.7607451,86.5545672 95.6279739,85.7574658 C95.4952027,84.9603644 95.3458374,84.146669 95.1798734,83.316355 C95.0139094,82.4860411 94.8534799,81.7000223 94.6985802,80.9582752 C94.5436805,80.2165281 94.3887831,79.5412162 94.2338833,78.9323193 C94.0789836,78.3234224 93.9572785,77.8529182 93.8687644,77.5207926 L101.669033,75.1627128 C101.71329,75.3177047 101.807335,75.6830374 101.95117,76.2587217 C102.095006,76.8344061 102.255435,77.5373947 102.432464,78.3677086 C102.609492,79.1980226 102.792049,80.1224249 102.980142,81.1409433 C103.168235,82.1594618 103.34526,83.1835003 103.511224,84.2130896 C103.677188,85.2426789 103.809957,86.244576 103.909536,87.2188111 C104.009114,88.1930461 104.058903,89.045489 104.058903,89.7761652 C104.058903,92.0567609 103.682723,94.0328784 102.930353,95.7045772 C102.177983,97.3762759 101.193278,98.7545764 99.9762087,99.83952 C98.7591395,100.924464 97.3927231,101.732624 95.8769186,102.264025 C94.3611142,102.795425 92.8398004,103.061122 91.3129317,103.061122 L82.4836915,103.061122 L71.3641596,103.061122 L69.6049501,103.061122 C67.7018963,103.061122 66.009089,102.889526 64.5264774,102.54633 C63.0438657,102.203133 61.6995775,101.721559 60.4935725,101.101591 C59.2875675,100.481623 58.1756255,99.7288164 57.157713,98.8431482 C56.1398005,97.95748 55.1440315,96.9611182 54.1703761,95.8540329 C53.2631062,97.6696528 52.0681834,99.07563 50.5855718,100.072007 C49.1029601,101.068383 47.4156848,101.799049 45.5236953,102.264025 C43.6317058,102.729 41.557187,103.005768 39.3000767,103.094334 C37.0429665,103.182901 34.675249,103.227184 32.1968534,103.227184 L12.4804298,103.061122 C10.8429184,103.061122 9.29394437,102.784355 7.83346124,102.230812 C6.37297812,101.67727 5.0784784,100.869109 3.94992325,99.8063076 C3.50735261,99.3856152 3.04819245,98.8763636 2.57242901,98.2785375 C2.09666557,97.6807115 1.67069771,96.9721876 1.29451266,96.1529445 C0.918327615,95.3337014 0.608532811,94.409299 0.365118956,93.3797097 C0.121705102,92.3501204 0,91.1932337 0,89.9090148 C0,88.8019295 0.110641002,87.60076 0.331926324,86.3054703 C0.553211646,85.0101805 0.8021539,83.7868697 1.07876055,82.635501 C1.35536721,81.4841323 1.61537356,80.4877705 1.85878741,79.6463857 C2.10220127,78.8050009 2.25709867,78.2846786 2.32348427,78.0854033 L6.27340752,79.3474742 L10.1901381,80.5763327 C9.99098135,81.1741587 9.78076345,81.888218 9.55947813,82.718532 C9.33819281,83.5488459 9.1279749,84.4012888 8.92881811,85.2758861 C8.72966132,86.1504835 8.56369982,86.997391 8.43092863,87.8166341 C8.29815743,88.6358772 8.23177283,89.3444011 8.23177283,89.9422272 C8.23177283,91.005029 8.38113818,91.8630072 8.67987337,92.5161876 C8.97860855,93.1693679 9.34372386,93.6675488 9.77523024,94.0107452 C10.2067366,94.3539416 10.6769609,94.5808907 11.1859171,94.6915992 C11.6948734,94.8023077 12.1485015,94.8576612 12.546815,94.8576612 L32.1968534,94.9905107 C34.6420561,94.9905107 36.7497671,94.9185513 38.5532425,94.7746302 C40.3567179,94.6307091 41.8890958,94.4259014 43.1504221,94.1602009 C44.4117484,93.8945005 45.4075175,93.5679152 46.137759,93.1804354 C46.8680006,92.7929555 47.3880133,92.3445927 47.6978127,91.8353335 C47.8084554,91.6914123 47.8859041,91.4589279 47.9301612,91.1710857 C47.9744182,90.8832435 47.9965464,90.6064763 47.9965464,90.3407759 C47.9965464,89.9200835 47.9135657,89.444044 47.7476017,88.912643 C47.5816377,88.3812421 47.3603557,87.8221724 47.083749,87.2354172 C46.8071424,86.6486621 46.4807514,86.050845 46.1045664,85.4419481 C45.7283813,84.8330512 45.3300737,84.2296988 44.9096316,83.6318727 C43.2278632,81.3069937 41.7563378,79.3142701 40.4950115,77.6536422 C39.2336852,75.9930143 38.1825957,74.6202492 37.3417114,73.5353056 C36.3459275,72.2732284 35.4939918,71.2104425 34.7858787,70.346916 L36.5450883,63.2062517 L66.1529163,49.2570472 L69.5385649,56.8294725 L43.4159632,68.819146 L53.6061013,82.635501 C54.8231706,84.2961289 55.9129844,85.7519242 56.8755756,87.0029305 C57.8381667,88.2539369 58.7288268,89.3277935 59.5475825,90.2245325 C60.3663382,91.1212716 61.1463573,91.8630076 61.8876631,92.4497628 C62.6289689,93.036518 63.3923918,93.5014868 64.1779547,93.8446832 C64.9635176,94.1878797 65.7933251,94.4314348 66.6674021,94.5753558 C67.5414792,94.7192769 68.520652,94.7912364 69.6049501,94.7912364 L71.3641596,94.7912364 Z M128.46393,103.059592 C126.209717,103.043151 124.259619,102.894207 122.613584,102.612755 C120.86543,102.313842 119.393905,101.871014 118.198964,101.284259 C117.004023,100.697504 116.046979,99.9502325 115.327801,99.0424226 C114.608624,98.1346126 114.060951,97.0718267 113.684766,95.8540329 C113.308581,94.6362391 113.059639,93.2579387 112.937932,91.7190901 C112.816225,90.1802416 112.755372,88.4808912 112.755372,86.620988 L112.755372,55.1688529 L121.020338,55.1688529 L121.020338,86.620988 C121.020338,88.3923244 121.08119,89.8093723 121.202897,90.8721742 C121.324604,91.934976 121.645463,92.7597422 122.165483,93.3464973 C122.685504,93.9332525 123.471055,94.3207266 124.52216,94.5089311 C125.573266,94.6971356 127.028195,94.7912364 128.886992,94.7912364 L137.218342,94.7912364 C139.386938,94.7912364 141.699335,94.5698227 144.155602,94.1269886 C146.61187,93.6841545 149.034907,93.1140141 151.424789,92.4165504 C153.81467,91.7190867 156.088343,90.9386033 158.245875,90.0750768 C160.403407,89.2115502 162.278772,88.3591074 163.872026,87.5177226 C162.854114,87.2077387 161.753236,86.8700828 160.569359,86.5047446 C159.385483,86.1394065 158.173964,85.7740738 156.934766,85.4087357 C155.695568,85.0433976 154.467453,84.6891356 153.250384,84.3459392 C152.033314,84.0027427 150.893712,83.6982988 149.831543,83.4325984 C148.769373,83.1668979 147.81786,82.9565549 146.976976,82.8015629 C146.136092,82.646571 145.472246,82.5690762 144.985418,82.5690762 C144.476462,82.5690762 144.028366,82.629965 143.641117,82.7517443 C143.253867,82.8735237 142.905348,83.0727961 142.595549,83.3495674 C142.285749,83.6263387 141.998083,83.986136 141.73254,84.4289701 C141.466998,84.8718042 141.190395,85.4031972 140.902724,86.0231649 L133.301612,83.7315099 C133.722054,82.4030076 134.236534,81.1575554 134.845069,79.9951158 C135.453604,78.8326763 136.194898,77.8197085 137.068975,76.956182 C137.943052,76.0926555 138.955418,75.4118082 140.106101,74.9136199 C141.256785,74.4154315 142.573413,74.1663411 144.056025,74.1663411 C144.631366,74.1663411 145.45011,74.2881186 146.512279,74.5316774 C147.574449,74.7752361 148.780436,75.096286 150.130276,75.4948367 C151.480117,75.8933874 152.923982,76.3472856 154.461915,76.8565448 C155.999848,77.365804 157.54329,77.897197 159.092287,78.4507396 C160.641284,79.0042822 162.146002,79.5467459 163.606485,80.0781468 C165.066968,80.6095477 166.383596,81.0911226 167.556408,81.5228858 C168.72922,81.9546491 169.713925,82.3144464 170.510553,82.6022886 C171.30718,82.8901308 171.816128,83.0672617 172.037414,83.1336869 L173,89.84259 C172.867229,89.9311568 172.291896,90.3186309 171.273983,91.0050237 C170.256071,91.6914166 168.90625,92.5272534 167.224482,93.5125593 C165.542714,94.4978652 163.573304,95.5440451 161.316193,96.6511303 C159.059083,97.7582156 156.624981,98.7877895 154.013814,99.7398828 C151.402647,100.691976 148.669815,101.48353 145.815234,102.114569 C142.960653,102.745607 140.095051,103.061122 137.218342,103.061122 L128.46393,103.061122 L128.46393,103.059592 Z M120.967229,31.3176203 C120.238586,31.2991445 119.603505,31.2365127 119.061972,31.1297237 C118.455651,31.0101585 117.942276,30.8374558 117.521834,30.6116104 C117.101392,30.385765 116.765043,30.1023554 116.512778,29.7613732 C116.260513,29.4203909 116.063572,29.0218462 115.921949,28.565727 C115.780327,28.1096079 115.687388,27.5981422 115.643131,27.0313145 C115.598874,26.4644869 115.576746,25.8356719 115.576746,25.1448507 L115.576746,12.3647223 L118.086109,12.3647223 L118.086109,25.1448507 C118.086109,25.915382 118.11045,26.5397688 118.159133,27.0180296 C118.207816,27.4962904 118.336159,27.8660513 118.544167,28.1273235 C118.752176,28.3885956 119.066396,28.5657266 119.486838,28.6587217 C119.90728,28.7517169 120.489252,28.8026421 121.232771,28.8114987 L124.870683,28.8114987 C125.384065,28.8114987 125.864247,28.7738584 126.311243,28.6985766 C126.75824,28.6232948 127.160973,28.5170162 127.519455,28.3797377 C127.877937,28.2424591 128.183306,28.0763988 128.435572,27.8815518 C128.687837,27.6867048 128.875927,27.4697193 128.999847,27.2305889 C129.21228,26.7966115 129.232196,26.2696468 129.059593,25.649679 C128.886991,25.0297113 128.521875,24.3433287 127.964236,23.5905107 C127.176461,22.4834255 126.508189,21.5446313 125.959401,20.7740999 C125.410614,20.0035686 124.963624,19.3747536 124.618419,18.8876361 C124.211254,18.3208084 123.879331,17.8558396 123.62264,17.4927156 L124.113891,15.6328217 L136.302226,10 L137.337836,12.2982975 L126.463929,17.2801563 L131.734919,24.6001675 C132.274856,25.3264154 132.75725,25.9530163 133.182118,26.4799888 C133.606986,27.0069614 134.038486,27.4431465 134.476631,27.7885571 C134.914776,28.1339677 135.392745,28.3908076 135.910553,28.5590846 C136.42836,28.7273615 137.045737,28.8114987 137.762701,28.8114987 L137.961857,28.8114987 L137.961857,31.3223556 L137.762701,31.3223556 C136.974926,31.3223556 136.273462,31.2470749 135.658289,31.0965113 C135.043115,30.9459477 134.483272,30.7311764 133.978741,30.4521909 C133.474211,30.1732054 133.009519,29.8366565 132.584651,29.4425342 C132.159783,29.0484118 131.743773,28.6077985 131.336608,28.120681 C131.318905,28.1649644 131.301202,28.2048189 131.2835,28.2402456 C131.265797,28.2756723 131.248094,28.3155268 131.230391,28.3598102 C130.982552,28.8469277 130.635139,29.2853269 130.188143,29.6750209 C129.741146,30.0647149 129.212282,30.387979 128.601535,30.6448228 C128.079302,30.8750965 127.499543,31.0455851 126.862241,31.1562936 C126.224939,31.2670021 125.561093,31.3223556 124.870683,31.3223556 L120.967229,31.3223556 L120.967229,31.3176203 Z M26.0894091,15.0217136 L28.3465081,12.7367011 L30.6567153,15.0482836 L28.3730622,17.3332961 L26.0894091,15.0217136 Z M84.4420568,31.3223556 C83.6011726,31.3134989 82.8775804,31.2492889 82.2712586,31.1297237 C81.6649369,31.0101585 81.1515626,30.8374558 80.7311205,30.6116104 C80.3106784,30.385765 79.9743297,30.1023554 79.7220645,29.7613732 C79.4697992,29.4203909 79.2728582,29.0218462 79.1312356,28.565727 C78.989613,28.1096079 78.8966746,27.5981422 78.8524175,27.0313145 C78.8081604,26.4644869 78.7860322,25.8356719 78.7860322,25.1448507 L78.7860322,12.3647223 L81.2953952,12.3647223 L81.2953952,25.1448507 C81.2953952,25.915382 81.3197363,26.5397688 81.368419,27.0180296 C81.4171018,27.4962904 81.5454454,27.8660513 81.7534536,28.1273235 C81.9614618,28.3885956 82.2756822,28.5657266 82.6961243,28.6587217 C83.1165664,28.7517169 83.6985381,28.8026421 84.4420568,28.8114987 L84.4420568,31.3223556 Z M20.1014582,31.3223556 C20.4732175,32.0486035 20.6745841,32.7349861 20.7055641,33.3815239 C20.736544,34.0280617 20.6325415,34.6214505 20.3935533,35.1617081 C20.1545652,35.7019657 19.7916627,36.1890759 19.304835,36.6230533 C18.8180073,37.0570307 18.2426741,37.4223634 17.5788181,37.7190622 C16.9149621,38.0157611 16.1758803,38.2460314 15.3615503,38.40988 C14.5472203,38.5737286 13.6886461,38.6556517 12.785802,38.6556517 L9.0018419,38.6556517 C7.60331867,38.6556517 6.34643689,38.3501007 5.23115886,37.7389897 C4.11588084,37.1278786 3.20419899,36.2820782 2.49608596,35.2015629 C2.01810966,34.4398883 1.67512255,33.596302 1.46711435,32.6707787 C1.25910615,31.7452554 1.18608309,30.7577502 1.24804298,29.7082333 C1.31000287,28.6587165 1.50694385,27.553862 1.83887183,26.3936366 C2.17079982,25.2334113 2.63770484,24.0333488 3.23960092,22.7934133 L5.47014582,23.8827798 C4.47878757,25.9729568 3.91451847,27.8660442 3.77732157,29.5620988 C3.64012467,31.2581534 3.93000409,32.686272 4.64696853,33.8464973 C5.09839059,34.581602 5.70249046,35.1439928 6.45928626,35.5336869 C7.21608206,35.9233809 8.06359214,36.118225 9.0018419,36.118225 L12.785802,36.118225 C13.2814811,36.118225 13.7683015,36.0805846 14.2462778,36.0053028 C14.7242541,35.930021 15.1712438,35.8259566 15.5872602,35.6931063 C16.0032766,35.5602561 16.379456,35.4030524 16.7158097,35.2214904 C17.0521634,35.0399284 17.3331915,34.8384419 17.5589025,34.6170248 C17.7846136,34.3956078 17.9417238,34.1586951 18.0302379,33.9062797 C18.118752,33.6538642 18.1231777,33.3948101 18.043515,33.1291097 C17.937298,32.7836991 17.6894622,32.4936471 17.3,32.258945 C16.9105378,32.0242429 16.44142,31.8382554 15.8926324,31.7009768 C15.3438448,31.5636983 14.750809,31.4662762 14.1135073,31.4087078 C13.4762056,31.3511394 12.8610416,31.3223556 12.2679969,31.3223556 L12.3609363,28.8114987 L23.8057559,28.8114987 L23.8057559,31.3223556 L20.1014582,31.3223556 Z M132.77053,114.320123 L138.413277,108.674016 L144.056025,114.386548 L138.413277,120.032654 L132.77053,114.320123 Z M146.611857,114.386548 L152.32099,108.740441 L157.963738,114.452972 L152.32099,120.099079 L146.611857,114.386548 Z M140.006523,123.686017 L145.250959,118.438459 L150.561781,123.752442 L145.317345,129 L140.006523,123.686017 Z M87.3630084,114.619034 L93.3376823,108.574379 L99.4451266,114.685459 L93.4040675,120.730114 L87.3630084,114.619034 Z" id="Combined-Shape" fill="#273238"></path>
        </g>
    </g>
</svg>