<svg xmlns="http://www.w3.org/2000/svg" width="130" height="60" viewBox="0 0 130 60">
    <g fill="none" fill-rule="nonzero">
        <path fill="#FFF" d="M105.632 38.762c.223-1.866-.636-4.161-.638-4.16L107.623 32l19.797-19.598 2.402 2.415-21.041 20.831-.002.002c.17.915.269 1.857.269 2.822 0 .795-.033 1.369-.15 2.132l8.67-8.604 2.317 2.111-14.87 14.737a15.413 15.413 0 0 1-11.405 5.024c-8.525 0-15.437-6.895-15.437-15.4 0-4.92 2.315-9.298 5.914-12.117l13.882-13.81 2.394 2.422s-12.667 12.675-14.8 14.593a11.955 11.955 0 0 0-3.98 8.91c0 6.617 5.396 12 12.027 12 6.533 0 11.864-5.226 12.02-11.706l.002-.002zm-2.187-7.197c-.837-1.16-2.34-2.477-2.339-2.478l2.43-2.405 14.284-14.134 2.402 2.416-14.331 14.18-2.446 2.42z"/>
        <path fill="#00B9CD" d="M120.393.21l2.62 2.477-9.48 9.478-2.62-2.478zM97.956 27.468l2.61-2.59 9.855-9.792-2.64-2.682-11.066 10.99-3.099 3.08c1.613-.177 4.34.994 4.34.994z"/>
        <g fill="#FFF">
            <path d="M37.785 41.668v-6.87h3.06V43.7c0 1.944-.705 3.201-2.216 3.956-.653.323-1.473.52-2.44.588H6.945c-5.976 0-7.018-5.322-6.941-11.056H3.44c0 4.48-.893 7.813 6.317 8.025 7.21.212 17.081.02 17.081.02V44.17c-.224-5.151-4.142-5.972-4.142-5.972-3.275-.873-4.842-.694-8.733-.694-.404 0-2.103 0-2.927.022l-.028-2.83 10.389-9.028 2.12 1.81-9.05 7.445s3.84-.456 7.918.256c2.145.375 3.474 1.072 4.837 2.33 1.007 1.14 2.451 3.049 2.506 6.089v1.636l3.452.025c4.604 0 4.604-.046 4.604-3.59zM44.975 45.596c-.381-.779-.607-1.745-.679-2.867V26.31h2.874l.001 13.365c0 4.113.265 5.63 5.45 5.622l15.28.008s.012-.94-.392-1.919c-.354-1.08-1.095-2.166-2.192-3.214a8.649 8.649 0 0 0-6.086-2.48c-2.52 0-4.46 1.068-6.023 2.786l-1.933-2.072c.361-.393.718-.748 1.071-1.068 1.32-1.3 3.245-2.16 5.727-2.553 2.557-.23 4.988.26 7.282 1.477 6.127 3.483 6.127 12.056 6.127 12.056H49.56c-2.254-.002-3.71-.86-4.585-2.722zM54.597 51.337v.226a3.438 3.438 0 0 0 3.438 3.438v-3.612l-3.438-.052zm-21.535 0v.226a3.438 3.438 0 0 0 3.437 3.438v-3.612l-3.437-.052zm24.41 4.798v.227a3.438 3.438 0 0 0 3.44 3.439v-3.666h-3.44zm2.328-4.85v.225a3.438 3.438 0 0 0 3.439 3.439v-3.612l-3.439-.052z"/>
        </g>
    </g>
</svg>
