<svg xmlns="http://www.w3.org/2000/svg" width="18" height="18" viewBox="0 0 18 18">
    <path fill="#FFF" fill-rule="nonzero" d="M9 0a9 9 0 0 0-9 9 9 9 0 0 0 9 9 9 9 0 0 0 9-9 9 9 0 0 0-9-9zm0 1.8c3.97 0 7.2 3.23 7.2 7.2 0 .422-.042.837-.113 1.238a4.47 4.47 0 0 0-.928-.113 6.55 6.55 0 0 0-.928.084c.102-.313.169-.657.169-1.012 0-.865-.422-1.67-1.097-2.334.186-.693.37-1.881-.112-2.363-1.424 0-2.212 1.016-2.25 1.069A5.848 5.848 0 0 0 9.562 5.4c-.622 0-1.216.112-1.771.281l.168-.14s-.79-1.097-2.25-1.097c-.51.513-.277 1.814-.084 2.475-.69.657-1.125 1.434-1.125 2.278 0 .295.07.576.14.844-.249-.029-1.149-.113-1.518-.113-.327 0-.833.077-1.238.169A7.068 7.068 0 0 1 1.8 9c0-3.97 3.23-7.2 7.2-7.2zm-5.878 8.353c.355 0 1.434.127 1.575.14.017.05.035.096.056.141-.387-.035-1.135-.088-1.631-.028-.33.039-.752.158-1.125.253-.028-.112-.063-.221-.085-.337.394-.084.911-.169 1.21-.169zm12.037.197c.359.004.686.063.9.113-.01.06-.042.108-.056.168a5.188 5.188 0 0 0-1.04-.14c-.211-.004-.549.007-.844.028.014-.028.017-.056.028-.085a7.421 7.421 0 0 1 1.012-.084zm-11.475.253c.507.004.981.039 1.182.056.47.88 1.423 1.53 2.897 1.8-.363.2-.686.482-.929.816-.21.018-.432.028-.646.028-.626 0-1.017-.559-1.35-1.04-.338-.482-.753-.535-.985-.563-.235-.028-.316.105-.197.197.686.527.932 1.153 1.21 1.716.25.506.773.787 1.35.787h.112c-.017.098-.028.19-.028.281v.985a7.193 7.193 0 0 1-4.247-4.81c.37-.091.784-.186 1.097-.225.144-.017.327-.031.534-.028zm11.279.113c.404.01.762.088.984.14a7.185 7.185 0 0 1-3.347 4.36v-.535c0-.766-.605-1.75-1.463-2.222 1.424-.26 2.352-.882 2.841-1.715.341-.025.742-.035.985-.028zM9.45 14.4c.246 0 .45.204.45.45v1.294a6.912 6.912 0 0 1-.9.056v-1.35c0-.246.204-.45.45-.45zm-1.8.9c.246 0 .45.204.45.45v.394a7.665 7.665 0 0 1-.9-.169v-.225c0-.246.204-.45.45-.45zm3.6 0c.218 0 .408.158.45.366-.292.12-.59.228-.9.309v-.225c0-.246.204-.45.45-.45z"/>
</svg>
