<?xml version="1.0" encoding="UTF-8"?>
<svg width="675px" height="92px" viewBox="0 0 675 92" version="1.1" xmlns="http://www.w3.org/2000/svg" xmlns:xlink="http://www.w3.org/1999/xlink">
    <!-- Generator: Sketch 50.2 (55047) - http://www.bohemiancoding.com/sketch -->
    <title>Logos</title>
    <desc>Created with Sketch.</desc>
    <defs>
        <linearGradient x1="-21.4688263%" y1="50%" x2="119.195607%" y2="50%" id="linearGradient-1">
            <stop stop-color="#00BED7" offset="0%"></stop>
            <stop stop-color="#0D47A1" offset="100%"></stop>
        </linearGradient>
    </defs>
    <g id="Symbols" stroke="none" stroke-width="1" fill="none" fill-rule="evenodd">
        <g id="Logos" transform="translate(-24.000000, -15.000000)">
            <g id="migration" transform="translate(24.000000, 15.000000)">
                <g id="adjust" transform="translate(0.000000, 8.000000)" fill="#00BED5" fill-rule="nonzero">
                    <path d="M109.642857,47.3571429 C109.642857,52.3571429 106.285714,54.7142857 103.071429,54.7142857 C99,54.7142857 96.5,51.6428571 96.5,48.8571429 C96.5,46 98,44.4285714 101.214286,43.6428571 L108,42.0714286 C108.714286,41.8571429 109.285714,41.7857143 109.642857,41.5714286 L109.642857,47.3571429 Z M114.928571,47.5714286 L114.928571,34.5714286 C114.928571,28.0714286 110,23.3571429 103.071429,23.3571429 C96.5,23.3571429 91.2142857,28.2142857 91.2142857,34.2857143 L91.2142857,34.7142857 C91.2142857,36.0714286 92.1428571,36.9285714 93.8571429,36.9285714 C95.5,36.9285714 96.5,36.0714286 96.5,34.7142857 L96.5,34.4285714 C96.5,30.8571429 99.4285714,28.1428571 103.071429,28.1428571 C106.928571,28.1428571 109.642857,30.8571429 109.642857,34.7142857 L109.642857,36.2857143 C109.642857,36.7857143 108.928571,37.2142857 107.857143,37.4285714 L99.8571429,39.2142857 C94,40.5714286 91.1428571,43.7142857 91.1428571,48.8571429 C91.1428571,54.7142857 96.3571429,59.4285714 103,59.4285714 C110.071429,59.4285714 114.928571,54.5714286 114.928571,47.5714286 Z M142.571429,47.5 C142.571429,52 139.928571,54.8571429 135.857143,54.8571429 C131.785714,54.8571429 129.142857,52 129.142857,47.5 L129.142857,35.5 C129.142857,31 131.785714,28.1428571 135.857143,28.1428571 C139.928571,28.1428571 142.571429,31 142.571429,35.5 L142.571429,47.5 Z M147.785714,47.7857143 L147.785714,15 C147.785714,13.6428571 146.857143,12.7857143 145.142857,12.7857143 C143.5,12.7857143 142.5,13.6428571 142.5,15 L142.5,26.2142857 C140.714286,24.5714286 138,23.5 135.142857,23.5 C129.5,23.5 123.714286,27.5 123.714286,35.2142857 L123.714286,47.7857143 C123.714286,55.8571429 129.928571,59.5 135.642857,59.5 C141.357143,59.5 147.785714,55.8571429 147.785714,47.7857143 Z M158,58.5714286 C158,62.8571429 155.785714,66.2142857 152.214286,67.7142857 C151.142857,68.1428571 150.357143,69.2857143 150.928571,70.9285714 C151.357143,72 152.214286,72.5714286 153.214286,72.5714286 C153.5,72.5714286 153.928571,72.5 154.285714,72.3571429 C159.857143,70.3571429 163.214286,65.3571429 163.214286,58.7142857 L163.214286,25.4285714 C163.214286,24.0714286 162.285714,23.2142857 160.571429,23.2142857 C158.857143,23.2142857 157.928571,24.0714286 157.928571,25.4285714 L157.928571,58.5714286 L158,58.5714286 Z M163.5,18.2142857 L163.5,15.5714286 C163.5,14 162.428571,12.8571429 160.785714,12.8571429 C159.142857,12.8571429 158.071429,13.9285714 158.071429,15.5714286 L158.071429,18.2142857 C158.071429,19.7857143 159.214286,20.9285714 160.785714,20.9285714 C162.357143,20.8571429 163.5,19.7857143 163.5,18.2142857 Z M196.785714,47.8571429 L196.785714,25.5714286 C196.785714,24.2142857 195.857143,23.3571429 194.142857,23.3571429 C192.5,23.3571429 191.5,24.2142857 191.5,25.5714286 L191.5,47.5714286 C191.5,52.0714286 188.857143,54.9285714 184.785714,54.9285714 C180.714286,54.9285714 178.071429,52.0714286 178.071429,47.5714286 L178.071429,25.5714286 C178.071429,24.2142857 177.142857,23.3571429 175.428571,23.3571429 C173.785714,23.3571429 172.785714,24.2142857 172.785714,25.5714286 L172.785714,47.8571429 C172.785714,55.9285714 179,59.5714286 184.714286,59.5714286 C190.5,59.6428571 196.785714,55.9285714 196.785714,47.8571429 Z M210.928571,32.7857143 C210.928571,29.9285714 213.357143,27.9285714 216.785714,27.9285714 C220.357143,27.9285714 223.071429,30.2142857 223.071429,33.2857143 L223.071429,33.5 C223.071429,34.8571429 224,35.7142857 225.714286,35.7142857 C227.357143,35.7142857 228.357143,34.8571429 228.357143,33.5 L228.357143,33.0714286 C228.357143,27.6428571 223.357143,23.3571429 216.857143,23.3571429 C210.571429,23.3571429 205.714286,27.4285714 205.714286,32.9285714 C205.714286,38.1428571 209.071429,41.6428571 216,43.2857143 C221.214286,44.5714286 223.428571,46.5 223.428571,49.7142857 C223.428571,52.7857143 221.142857,54.7142857 217.357143,54.7142857 C213.928571,54.7142857 210.928571,52.2857143 210.928571,49.5 L210.928571,49.2857143 C210.928571,47.9285714 210,47.0714286 208.285714,47.0714286 C206.642857,47.0714286 205.642857,47.9285714 205.642857,49.2857143 L205.642857,49.5 C205.642857,55.0714286 210.785714,59.3571429 217.285714,59.3571429 C224.071429,59.3571429 228.571429,55.5 228.571429,49.7142857 C228.571429,44.0714286 225.214286,40.5714286 217.571429,38.7142857 C213,37.5 210.928571,35.6428571 210.928571,32.7857143 Z M245.714286,49.7857143 L245.714286,29 L255.142857,29 C256.428571,29 257.142857,28.1428571 257.142857,26.7142857 C257.142857,24.9285714 256.071429,24.4285714 255.142857,24.4285714 L245.714286,24.4285714 L245.714286,15.2142857 C245.714286,13.8571429 244.785714,13 243.071429,13 C241.428571,13 240.428571,13.8571429 240.428571,15.2142857 L240.428571,24.2857143 L235.785714,24.2857143 C234.5,24.2857143 233.785714,25.1428571 233.785714,26.5714286 C233.785714,28.0714286 234.5,28.8571429 235.785714,28.8571429 L240.428571,28.8571429 L240.428571,49.8571429 C240.428571,55.5 244.642857,59.5 250.714286,59.5 C253,59.5 255.214286,58.8571429 256.928571,57.7142857 C258.071429,56.8571429 258.285714,55.5 257.428571,54.3571429 C256.714286,53.4285714 255.928571,53.2142857 255.571429,53.2142857 C255.142857,53.2142857 254.714286,53.4285714 254.214286,53.7142857 C253.285714,54.4285714 252,54.8571429 250.785714,54.8571429 C247,55 245.714286,52.2857143 245.714286,49.7857143 Z" id="Shape"></path>
                    <path d="M54.9285714,49.1428571 L52.0714286,47.1428571 C46.4285714,43.0714286 41.2857143,39.5714286 36.7857143,36.8571429 L35.7142857,36.2142857 L42.2857143,21.3571429 L54.9285714,49.1428571 Z M58.7857143,59.0714286 L63.0714286,54.7857143 L45.7857143,15.7857143 L39.2857143,15.7857143 L31.4285714,33.8571429 L30.5,33.4285714 C25.7857143,31.1428571 22.2142857,30 19.5,30 C16.0714286,30 14.3571429,31.8571429 13.7142857,33.0714286 C11.8571429,36.5 12.8571429,41.3571429 17.0714286,47.7142857 C18.6428571,50.1428571 20.2142857,52.3571429 21.5,53.7857143 L27.7857143,53.7857143 L30.2857143,47.9285714 L27.5714286,41.8571429 L24.4285714,48.7857143 L23.3571429,47.4285714 C22.6428571,46.5 22,45.5714286 21.3571429,44.5714286 C17.9285714,39.3571429 17.3571429,36.5714286 18.2142857,35.6428571 C18.9285714,34.7142857 23.2142857,35.9285714 27.9285714,38.2857143 C30.5714286,39.4285714 33.1428571,40.9285714 35.7857143,42.7142857 C37.6428571,43.8571429 39.6428571,45.1428571 41.7857143,46.5714286 C49.5,51.6428571 56.2857143,57 58.7857143,59.0714286 Z M74.6428571,40 C74.6428571,59.2142857 59.1428571,74.7142857 39.9285714,74.7142857 C20.7142857,74.7142857 5.21428571,59.0714286 5.21428571,40 C5.21428571,20.9285714 20.7857143,5.35714286 39.9285714,5.35714286 C59,5.35714286 74.6428571,20.8571429 74.6428571,40 Z M79.7857143,40 C79.7857143,18.0714286 62,0.142857143 39.9285714,0.142857143 C17.8571429,0.142857143 0.142857143,18 0.142857143,40 C0.142857143,62 17.9285714,79.8571429 40,79.8571429 C62.0714286,79.8571429 79.7857143,61.9285714 79.7857143,40 Z" id="Shape"></path>
                </g>
                <g id="Chabok-Logo" transform="translate(454.000000, 0.000000)" fill-rule="nonzero">
                    <g id="ChabokLogo" transform="translate(132.000000, 0.000000)">
                        <g id="Chabok-Logo-Blue-01-Copy-5">
                            <g id="Group" transform="translate(0.253053, 0.000000)">
                                <path d="M47.184247,66.1564728 C47.5665183,62.9718676 46.0915559,59.0547168 46.0882119,59.0555464 L50.601023,54.616067 L84.588445,21.1673456 L88.7115282,25.2891266 L52.5889681,60.8422872 L52.586143,60.8450669 C52.8785378,62.407798 53.0481107,64.014439 53.0481107,65.661677 C53.0481107,67.0195669 52.9918806,67.9977055 52.7911625,69.3000191 L67.6742363,54.616067 L71.65183,58.2188431 L46.1250103,83.3714826 C41.2785054,88.6396315 34.3002075,91.9460146 26.5449635,91.9460146 C11.9092716,91.9460146 0.0434889131,80.1779113 0.0434889131,65.6608474 C0.0434889131,57.2646574 4.0177065,49.7933593 10.1973138,44.9814351 L34.0292382,21.4103888 L38.1389404,25.5454418 C38.1389404,25.5454418 16.3928112,47.1779487 12.730543,50.4519816 C8.53553554,54.202147 5.89776567,59.6312183 5.89776567,65.6600178 C5.89776567,76.9528184 15.1617405,86.1386915 26.5449635,86.1386915 C37.7600851,86.1386915 46.9128287,77.2207471 47.1804527,66.1602059 L47.184247,66.1564728 Z M43.4286977,53.8728358 C41.9927272,51.8928215 39.4135001,49.6457085 39.4143364,49.6448789 L43.5850905,45.539688 L68.1078195,21.4161954 L72.2309032,25.5396353 L47.6278867,49.7419303 L43.4286977,53.8728358 Z" id="Combined-Shape" fill="#0D47A1"></path>
                                <polygon id="Rectangle-path" fill="#00B9CD" transform="translate(66.636142, 10.560148) rotate(45.008103) translate(-66.636142, -10.560148) " points="63.541791 -0.79249579 69.730494 -0.966056737 69.730494 21.9127909 63.541791 22.0863519"></polygon>
                                <path d="M34.0069574,46.8804113 L38.4854791,42.4591811 L55.4051751,25.7480924 L50.8728287,21.1698341 L31.8757006,39.9289561 L26.5558357,45.1830034 C29.3240723,44.8818952 34.0069574,46.8804113 34.0069574,46.8804113 Z" id="Shape" fill="#00B9CD"></path>
                            </g>
                        </g>
                    </g>
                    <g id="Layer_1_1_" transform="translate(0.000000, 30.111111)" fill="#0D47A1">
                        <path d="M63.403746,26.8655691 L63.403746,15.3297531 L68.539076,15.3297531 L68.539076,30.277599 C68.539076,33.5422686 67.3553525,35.6523057 64.8196147,36.9202374 C63.7238324,37.4625455 62.3471441,37.7928952 60.7243482,37.9068309 C60.7243482,37.9068309 21.6779145,37.9068309 11.6532739,37.9068309 C1.62673527,37.9068309 -0.123227234,28.970514 0.00646991515,19.3432712 L5.77446921,19.3432712 C5.77446921,26.8655691 4.27547794,32.4613576 16.374206,32.817592 C28.472934,33.1738265 45.0363931,32.8500541 45.0363931,32.8500541 L45.0363931,31.066082 C44.6593224,22.417158 38.0861855,21.0384732 38.0861855,21.0384732 C32.5895571,19.5725863 29.9601846,19.8742929 23.4323057,19.8742929 C22.7540845,19.8742929 19.9022506,19.8742929 18.5202634,19.9105741 L18.4734459,15.1578949 L35.9053754,0 L39.4631676,3.03855265 C29.3385505,11.3727189 24.276242,15.539802 24.276242,15.539802 C24.276242,15.539802 30.7200201,14.7740782 37.5636009,15.9700841 C41.1622223,16.5989578 43.3923805,17.7701397 45.6807444,19.8820863 C47.3699707,21.7960777 49.793093,25.0009152 49.88483,30.1057408 L49.88483,32.8526002 L55.6775917,32.89461 C63.403746,32.89461 63.403746,32.817592 63.403746,26.8655691 Z" id="Shape"></path>
                        <path d="M75.468286,33.461335 C74.8280249,32.153303 74.4484237,30.5308342 74.328849,28.6461224 L74.328849,1.07751811 L79.1513468,1.07751811 L79.152612,23.5180563 C79.152612,30.4252818 79.5965793,32.9715313 88.2991081,32.9588011 C105.391127,32.967288 113.937137,32.9715313 113.937137,32.9715313 C113.937137,32.9715313 113.957677,31.3944256 113.279456,29.7503153 C112.686012,27.9381659 111.441552,26.1132862 109.601751,24.3539673 C107.208364,21.9759587 103.618821,20.1905428 99.3898401,20.1905428 C95.1608582,20.1905428 91.9050273,21.9829604 89.2832468,24.8669959 L86.0382873,21.3886134 C86.645017,20.7285506 87.2441544,20.1315024 87.8369652,19.5949229 C90.0500415,17.411687 93.281715,15.969351 97.4459425,15.3073786 C101.737336,14.9229254 105.815521,15.7459353 109.664679,17.7885021 C119.946816,23.6367736 119.946816,38.0308541 119.946816,38.0308541 L83.1609088,38.0308541 C79.378813,38.0276715 76.9373435,36.5872451 75.468286,33.461335 Z" id="Shape"></path>
                        <path d="M91.6135494,43.1007247 L91.6135494,43.4834307 C91.6135494,46.6699213 94.1960191,49.2530823 97.3816566,49.2530823 L97.3816566,43.1886388 L91.6135494,43.1007247 Z M55.4773293,43.1007249 L55.4773293,43.4834309 C55.4773293,46.6699215 58.059799,49.2530824 61.2454365,49.2530824 L61.2454365,43.1886389 L55.4773293,43.1007249 Z M96.4390499,51.1577428 L96.4390499,51.5412723 C96.4390499,54.7286566 99.0222441,57.3125424 102.208775,57.3125424 L102.208775,51.1577428 L96.4390499,51.1577428 Z M100.344598,43.0134801 L100.344598,43.3945675 C100.344598,46.581952 102.927792,49.1658377 106.114324,49.1658377 L106.114324,43.1013942 L100.344598,43.0134801 Z" id="Shape"></path>
                    </g>
                </g>
                <path d="M377.16579,66.4696681 L410.81614,48.2657309 L377.16579,30.0617938 L377.16579,41.2281938 L376.41579,41.2281938 L359.205132,41.2261896 C348.122062,40.4143099 339.567157,38.9384392 333.527827,36.7889225 C324.98312,33.7476926 319.172465,26.1176553 316.087773,13.9916324 L301.524032,13.9916269 C304.25042,25.6497382 308.882926,34.2822907 315.405745,39.910349 L316.933104,41.2281938 L301.75,41.2281938 L301.75,55.0253326 L315.813193,55.0253326 L317.947955,55.0253326 L316.282284,56.3605283 C309.295981,61.9607233 304.370961,70.8347705 301.524032,83.0083731 L316.087771,83.0083731 C319.172465,70.8823447 324.98312,63.2523074 333.527827,60.2110775 C341.920409,57.2239919 355.185777,55.5345277 373.350617,55.1262308 L373.350617,55.0253326 L377.16579,55.0253326 L377.16579,66.4696681 Z" id="Combined-Shape" stroke-opacity="0.232591712" stroke="#000000" stroke-width="1.5" fill="url(#linearGradient-1)"></path>
            </g>
        </g>
    </g>
</svg>