<svg xmlns="http://www.w3.org/2000/svg" xmlns:xlink="http://www.w3.org/1999/xlink" width="715" height="520" viewBox="0 0 715 520">
    <defs>
        <path id="a" d="M43.422 51.716L14.797 324.121c-2.095 19.938 12.369 37.8 32.306 39.895l479.333 50.391c19.938 2.096 37.8-12.368 39.896-32.306v-.001l28.623-272.405c2.095-19.938-12.368-37.8-32.306-39.895L83.317 19.409c-19.938-2.096-37.8 12.368-39.896 32.306v.001z"/>
        <path id="c" d="M59.786 59.837L31.788 321.45c-1.68 15.706 9.689 29.8 25.394 31.481l.107.012 462.22 47.71c15.67 1.618 29.697-9.74 31.374-25.405l27.998-261.612c1.68-15.706-9.689-29.8-25.394-31.481a28.626 28.626 0 0 0-.107-.011L91.16 34.432c-15.67-1.618-29.697 9.741-31.374 25.405z"/>
    </defs>
    <g fill="none" fill-rule="evenodd">
        <path fill="#D7EAFD" d="M646.638 322.966l-135.337 29.278c-208.058-1.944-313.562-1.944-316.512 0-3.56.031 99.176 2.885 308.207 8.562l47.981 1.301 57.782 1.566c13.855 0 23.85-3.81 29.983-11.43 6.134-7.62 8.766-17.378 7.896-29.277z"/>
        <g transform="rotate(-6 48.906 -439.385)">
            <mask id="b" fill="#fff">
                <use xlink:href="#a"/>
            </mask>
            <use fill="#F2FEFF" transform="rotate(-3 304.876 216.908)" xlink:href="#a"/>
            <path fill="#D5EDF4" d="M174.581 411.867l413.426 27.141 35.265-335.875c-34.848 1.34-67.608 12.484-98.282 33.432-46.01 31.421-53.71 90.586-106.487 114.14-52.776 23.555-122.641 7.995-174.984 23.246-34.895 10.167-65.172 33.017-90.832 68.55L76.704 401.57l97.877 10.298z" mask="url(#b)" style="mix-blend-mode:multiply"/>
            <path fill="#DAF7F9" d="M179.281 395.998l405.989 42.716c27.235-205.784 39.072-318.427 35.512-337.932-5.341-29.256-56.789-26.807-99.105-10.418-40.241 15.586-62.681 81.354-118.175 89.529C316.255 192.745 285.343 315.277 232.95 330.5c-34.93 10.149-65.921 24.364-92.977 42.645l-20.487 23.454 59.795-.601z" mask="url(#b)" opacity=".464" style="mix-blend-mode:multiply"/>
            <use stroke="#7284D8" stroke-width="1.1" transform="rotate(-2 305.334 217.542)" xlink:href="#c"/>
        </g>
        <path fill="#D7EAFD" d="M44.544 500.096l260.221 4.39c18.2 8.34 28.774 13.469 31.726 15.387 4.118.036-108.045.036-336.491 0l44.544-19.777zM715 501.197l-138.993 4.966c-34.035 5.716-52.527 9.552-55.476 11.509-4.117.037 46.86.037 152.93 0L715 501.197z"/>
        <path fill="#6692FD" d="M329.583 100.594l-25.988 8.949c-9.15-25.91-37.492-39.666-63.643-30.89l-8.914-25.888c40.504-13.718 84.47 7.622 98.545 47.83z"/>
        <path fill="#A0D7EF" d="M314.355 194.42c-8.81 17.183-23.936 31.15-43.505 38.053l-8.873-25.973c12.417-4.42 22.06-13.235 27.78-24.094l24.598 12.013zM321.384 130.27c5.908 18.374 5.073 38.944-3.898 57.668l-24.633-12.073c5.664-11.908 6.259-24.96 2.634-36.679l25.897-8.917zM168.103 184.588c-13.577-39.431 6.524-82.344 45.047-97.61l8.929 25.93c-24.174 10.288-36.641 37.602-27.988 62.732 8.653 25.13 35.293 38.978 60.676 32.202l8.929 25.931c-39.756 11.687-82.015-9.753-95.593-49.185z"/>
        <path stroke="#7284D8" stroke-width="1.1" d="M331.783 102.795l-25.988 8.948c-9.15-25.91-37.492-39.666-63.642-30.889l-8.915-25.889c40.504-13.717 84.471 7.622 98.545 47.83zM316.555 196.62c-8.81 17.184-23.936 31.15-43.505 38.054l-8.872-25.974c12.417-4.419 22.059-13.235 27.78-24.093l24.597 12.013zM323.584 132.47c5.908 18.374 5.073 38.945-3.898 57.668l-24.633-12.073c5.665-11.908 6.259-24.959 2.634-36.678l25.897-8.917zM170.303 186.789c-13.577-39.432 6.524-82.345 45.047-97.611l8.929 25.93c-24.173 10.289-36.64 37.602-27.988 62.732 8.653 25.13 35.294 38.978 60.676 32.203l8.929 25.93c-39.756 11.688-82.015-9.753-95.593-49.184z"/>
        <path fill="#B3CEFF" d="M120.236 415.85c.345-4.495 6.162-5.511 7.583-1.072 2.412 7.547 2.233 16.25 2.904 24.14.744 8.722 1.417 17.455 1.995 26.191 1.138 17.267 3.029 35.214 1.864 52.5-.154 2.278-3.663 3.147-4.091.578-2.737-16.4-3.163-33.429-4.812-49.993a1651.405 1651.405 0 0 0-2.629-24.657c-1.028-8.96-3.508-18.695-2.814-27.686M72.674 504.874c6.238-28.286 16.806-55.63 26.208-83.009 1.87-5.443 10.766-2.799 8.603 2.346-11.304 26.876-19.452 54.82-29.688 82.06-1.181 3.141-5.863 1.95-5.123-1.397M161.782 420.087c.383-3.724 3.13-1.557 7.06-1.923 2.325-.215.357-2.12 7.141 21.415 2.374 8.231 5.972 16.053 9.033 24.05 5.676 14.814 10.045 30.893 12.786 46.06.622 3.449-5.142 4.182-6.08.825-4.457-15.992-9.135-28.53-14.873-46.02-2.395-7.3-5.933-14.173-8.66-21.357-2.628-6.92-7.176-15.567-6.407-23.05"/>
        <path fill="#009BAC" d="M184.688 360.733c10.017 13.755 8.438 27.219 6.626 45.102-.495 1.237-.61 1.261-1.31 2.31-2.138 3.202-4.39 4.436-7.168 3.214-10.337-4.543-3.807-1.088-14.192-5.524-5.193-2.217-10.387-4.438-15.58-6.662-3.03-1.298-7.136-2.031-8.702-5.138-1.633-3.239-1.185-9.64-1.62-13.25-.74-6.162-1.54-12.315-2.344-18.47-1.475-11.289-2.95-22.576-4.427-33.864-.357-2.733 5.455-2.802 5.747-2.74 19.05 3.971 32.092 20.081 42.97 35.022z"/>
        <path fill="#09D6EC" d="M72.434 352.089c.825-16.399 6.67-33.53 23.595-38.728a20.252 20.252 0 0 1 6.337-3.278c8.587-2.682 18.34-.836 25.774 4.084 8.304 5.5 12.793 13.696 14.309 23.441 2.008 12.892 2.668 26.09 3.923 39.075.463 4.788 2.356 11.683.333 16.351-2.183 5.037-7.819 5.245-12.535 6.18-14.286 2.836-22.026 9.128-36.394 11.52-3.12.52-5.916 0-14.218-3.59-1.39 1.19 5.657 4.68 4.006 3.59-7.09-4.682-13.213-13.608-15.13-24.275-1.993-11.096-1.21-22.961-.638-34.37"/>
        <path fill="#034A90" d="M122.019 381.974c8.72-1.929 16.315-.01 24.587 2.907 9.67 3.41 19.26 7.044 28.734 10.956 10.21 3.224 6.994 3.495 17.233 6.636 3.308 1.013.99 8.41-2.615 10.075-9.833 4.538-4.1 4.59-14.618 7.18-10.106 2.493-19.474 9.582-29.863 6.939-10.326-2.626-20.69-8.093-29.978-13.142-7.688-4.18-18.558-8.918-22.658-17.068-1.094-2.176-.09-4.242 2.096-5.106 8.787-3.472 17.824-7.329 27.082-9.377z"/>
        <path fill="#0D47A1" d="M117.982 382.204c2.4-5.454 10.436-12.174 16.392-12.881 7.46-.885 60.701 29.453 74.094 45.583 8.044 9.687 13.971 21.171 21.37 31.373 9.396 12.963 20.053 24.576 30.695 36.469.269.301.363.631.338.94.648.515.98 1.526.295 2.357-3.312 4.022-6.296 8.198-9.125 12.567-.562.87-1.883 1.191-2.645.344-16.081-17.877-32.38-35.557-48.601-53.304-4.116-4.505-7.315-10.444-11.558-14.857-3.076-3.202-12.63-5.716-15.98-8.617-9.507-8.23-14.755-12.552-26.467-16.844-8.856-3.244-35.444-8.053-28.808-23.13"/>
        <path fill="#0D47A1" d="M96.398 382.795c.487-4.333.344-10.38 5.478-11.4 2.995-.595 8.407 1.438 11.34 1.763 4.886.54 9.798.713 14.705 1.005.89.053 1.399.628 1.564 1.287.047.02.094.042.145.061 1.142-.053 2.285-.107 3.43-.176 1.397-.083 1.921 1.278 1.58 2.368a145.11 145.11 0 0 1 24.58 14.365 149.945 149.945 0 0 1 12.547 10.177c4.172 3.766 6.333 4.422 5.895 9.754-1.038 12.596-2.216 25.118-3.011 37.641.022 4.15-.109 8.314-.484 12.51-.92 10.284 1.42 21.227.118 31.506.104 1.599.22 3.196.358 4.799.023.3-.058.526-.181.716-.073.448-.351.87-.925 1.066-.44.149-.878.304-1.32.461a2.364 2.364 0 0 1-1.204.417c-1.88.641-3.785 1.195-5.774 1.248-.532.014-1.123-.304-1.37-.782-3.702-7.127-3.71-18.072-4.866-25.952a775.008 775.008 0 0 1-3.602-27.86c-.56-5.096-.951-10.208-1.502-15.304-.739-6.8-4.024-9.886-10.081-12.47-7.994-3.411-16.072-6.63-24.083-10.004-.068-.01-.13.005-.199-.014-6.419-1.764-15.162-4.14-19.46-9.681-3.873-4.993-4.36-11.45-3.678-17.501"/>
        <path fill="#FFD6B2" d="M118.823 262.145c.11-.376.292-.658.506-.896-.02-3.907.395-7.788 1.442-11.575.286-1.036-.402-2.515.085-3.937-.26-1.74.901-3.364 1.897-4.772.87-1.232 2.177-2.166 3.77-2.174 1.922-.01 4.156 1.733 4.92 1.678-.288.02 1.811-.326 1.844-.355 1.14-1.01 2.583-1.7 3.985-2.272 2.665-1.087 5.288-1.402 8.15-1.326.57.015 1.036.315 1.357.722.666-.288 1.43-.239 1.984.446 3.683 4.56 1.935 10.566 1.339 15.954-.508 4.586-.936 9.731-4.202 13.21a13.127 13.127 0 0 1-3.933 3.402c-2.458 1.393-5.99 1.63-8.228.362-.96.545-1.91 1.107-2.738 1.865-.107.096-.19.193-.283.29-.172.519-.44 1.009-.75 1.477-.255 2.094-.795 6.196-1.943 7.668-1.286 1.647-3.31.521-6.07 0a5.134 5.134 0 0 1-1.404-.504c-1.747-.076-3.317-.397-4.926-.844-1.146-.319-1.94-1.599-1.576-2.764 1.628-5.209 3.24-10.418 4.774-15.655z"/>
        <path fill="#FF5A6E" d="M93.127 319.142c-1.197-7.577-.626-14.785 0-20.09 1.468-12.428 8.762-17.117 20.372-21.166.19-.065 1.886-1.028 2.257-1.077.2 0 .572-.083.705.203 1.198 2.593 8.458 5.72 13 2.116.369-.293 1.006-.484 2.061-.425 1.533.087 2.483.458 3.432 1.013.997.582 4.347 2.987 5.994 4.752 2.24 2.402 1.589 1.658 3.092 3.296 3.349 3.32 7.32 7.755 9.856 11.935.892 1.38 1.408 2.066 1.274 3.278-.542 1.074-6.446 12.404-8.114 11.334a124.1 124.1 0 0 1-6.41-4.424c-.674 8.71-1.73 17.499-1.045 26.442.66 8.587 2.487 24.644 2.261 30.241-.233 5.72 2.37 9.499-3.502 11.72-7.243 2.743-16.098 2.888-23.716 2.219-6.008-.527-13.248-.914-15.622-7.435-2.786-7.648-2.195-17.92-3.002-26.005-.836-8.349-1.258-16.132.87-24.12-2.007-.698-3.441-1.769-3.763-3.807"/>
        <path fill="#E04054" d="M110.466 319.802c-.171-4.936.12-9.715.7-14.617.063-.52.88-.527.814 0-.584 4.904-.589 9.71-.85 14.617-.023.43-.648.434-.664 0M140.368 309.868c.365-4.412.588-8.777.39-13.203-.028-.607.906-.607.931 0 .176 4.44.079 8.904-.55 13.308-.063.442-.808.342-.77-.105M115.827 276.607c4.482 4.682 9.878 6.1 15.197 1.79.529-.43 1.525.142 1.038.81-4.407 6.053-13.375 3.432-17.005-1.998-.316-.472.386-1.002.77-.602M155.448 301.191c-2.67 4.422-5.623 8.683-8.455 12.998-.514.785-1.776.036-1.247-.74 2.916-4.268 5.737-8.631 8.81-12.786.389-.524 1.247-.061.892.528"/>
        <path fill="#E04054" d="M111.892 319.448c-1.04 1.744-3.898 1.085-5.588 1.104-4.034.044-8.15.191-12.167-.166-1.084-.097-1.1-1.65 0-1.723 2.914-.195 5.868-.04 8.786.023 1.252.029 7.158.936 8 .003.474-.526 1.33.153.97.76"/>
        <path fill="#072D3A" d="M143.502 222.825c5.607 2 15.062 2.576 12.505 9.627-.887 2.447-2.783 5.547-5.938 7.207-1.333.701-4.653.763-5.797 0-2.034-1.355-2.575-1.991-4.571-2.126-.784-.044-.618-.049-1.906.202-2.064.977-3.7 1.707-6.164 2.364-.41.11-.793.82-.793 1.984 0 1.306-.102 1.705-.205 2.355.041 1.698-3.833 2.173-4.076.412-.02-.143.01-2.587-.003-2.725-.024-.102-.021-.204-.02-.307a6.451 6.451 0 0 1-.004-.526c.148-.625-.054-.843-.306-.848-.104-.02-.405.159-.508.137-7.96 1.958-4.648 6.816-4.438 12.64.005.12.014 2.012 0 2.155-.12 1.255-.278 1-.823 2.051-1.02 1.97-1.388 4.11-3.535 2.424-.406-.319-.297-1.895-.537-2.424-.849-1.872-1.168-4.04-2.869-6.466-3.103-7.895-1.346-17.747 3.916-24.462 5.702-7.28 18.21-6.479 26.072-3.674z"/>
        <path fill="#FFD6B2" d="M159.131 307.875c5.197 4.19 4.64 6.17 4.89 6.364-1.988-6.127-7.723-18.427-9.576-24.208-.192-.6-2.485-3.845-2.142-4.146-.076-3.755 1.085-4.153 1.741-7.824.493-2.75 1.29-3.338 3.597-3.81.664-.136 3.21.34 3.62.8 1.3.047 2.088 1.764 2.263 3.01.36 2.573.9 4.076.666 6.665-.132 1.464-.587 2.548-1.251 3.39 5.149 8.484 11.5 17.216 15.104 26.319 1.759 4.443 2.175 10.286-2.936 12.719-5.48 1.203-15.462-3.207-17.466-4.575-4.776-3.262-9.496-5.905-9.662-6.263-1.052-2.28 3.052-5.355 3.702-7.58.178-.604 2.807-4.547 3.263-5.482 1.2.805 3.057 3.758 4.187 4.621z"/>
        <path fill="#EDBF9D" d="M167.83 320.71c-1.544-2.15-2.97-4.367-4.221-6.677-.2-.366.432-.647.633-.285 1.267 2.275 2.61 4.498 4.09 6.659.175.257-.319.558-.502.302"/>
        <g>
            <path fill="#9A9A9A" d="M152.419 368.427c2.405-9.174 4.481-18.437 6.605-27.679.959-4.178 1.03-10.838 5.563-13.037 2.895-1.404 7.47-.6 10.55-.628 4.527-.042 9.055-.034 13.584-.051 10.06-.04 20.126-.193 30.184.08 1.371.038 2.688 1.413 2.179 2.83-3.111 8.668-5.926 17.45-8.756 26.212-2.193 6.79-1.613 10.288-6.148 15.958-.773.968-3.524 1.957-4.37 1.38-16.004.588-32.488 1.185-48.034-2.702-1.029-.256-1.616-1.372-1.357-2.363"/>
            <path fill="#FFF" d="M184.512 350.27c0 2.792 2.288 5.055 5.112 5.055 2.824 0 5.115-2.263 5.115-5.054 0-2.792-2.291-5.055-5.115-5.055-2.824 0-5.112 2.263-5.112 5.055"/>
        </g>
        <g fill="#FFD6B2">
            <path d="M104.559 321.272c3.166 0 1.782-.031 3.853-.019.685 5.647-.382 15.372-.538 15.604 2.968.829 9.746 3.67 12.665 4.982 6.167 2.774 9.4 4.903 15.53 7.755 3.506 1.632 7.767 4.553 12.369 7.193.239.223.457.463.666.714 2.588-1.163 6.398-3.083 6.232-2.198-.56 3-.56 2.576-.661 4.854-.016.364-.143.828.101.942.488.097.952.215 1.34.404 2.59 1.251 3.822 2.969 6.88 3.466.232.037.487.07.75.101.666-.14.986.543 1.817.543 1.821 0 2.362 0 3.807.495 1.453.57 2.577 1.512 2.759 3.181.589 5.425-6.494 4.922-13.308 3.234a18.291 18.291 0 0 1-4.146-1.163c-3.529-1.097-3.716-1.664-4.707-2.07-1.124-.462-4.533-2.024-4.665-3.018-12.733-4.79-25.541-9.392-38.256-14.228-3.155-1.2-7.969-3.08-10.447-5.126-3.387-2.792-3.648-3.438-3.339-8.168.071-1.09.217-6.569.408-9.204.402-3.209.228-5.17.844-8.44 2.13.166 6.66.588 7.803.295"/>
            <path d="M104.559 321.272c3.166 0 3.82-.26 3.853-.019.758 5.637-.382 15.372-.538 15.604"/>
        </g>
        <path fill="#EDBF9D" d="M107.354 337.54a15.37 15.37 0 0 0-3.017.482c-.905.242-1.74.662-2.636.906-.559.15-.84-.592-.383-.894 1.673-1.104 4.066-1.376 6.036-1.434.618-.017.608.901 0 .94M161.542 367.165c-1.948.02-3.953-.186-5.648-.828-.497-.187-.488-1.045.136-.995 2.94.236 5.642.717 8.623.514.732-.052.702 1.028 0 1.107-.978.112-2.036.191-3.111.202zM167.992 370.192c-2.79 1.16-6.115 1.819-9.112 1.105-.566-.135-.453-1.035.138-1.01 3.07.125 5.798.111 8.735-.953.553-.2.759.64.239.858M128.845 273.638c-.73-.527.245 2.55 0 4.26-.223 1.553-1.67 1.728-2.189 1.825-.435.081-2.193-5.606-2.683-6.085-1.758-1.722-1.497-10.38-2.968-12.317-.463-.61.59-1.42 1.075-.82 2.783 3.427 6.417 6.663 9.946 9.344.94.717.038 2.327-.955 1.61"/>
        <path fill="#EDBF9D" d="M121.337 263.846c-.133-.936-.564-1.58-1.227-2.242-.594-.592.188-1.684.93-1.189 1.113.747 1.666 1.934 1.803 3.231.09.839-1.387 1.045-1.506.2"/>
        <path fill="#034A90" d="M163.46 501.879c.947-.154 8.998 2.415 9.552 2.749 1.224.738.738-5.012 1.749-4.471 9.634 5.158 14.027 3.807 21.695 6.03 5.433 1.572 7.693 4.005 6.634 9.905-.232 1.293-1.569 2.106-2.745 2.157-9.318.395-18.631.734-27.957.27-6.022-.302-8.133-.836-8.51-7.292-.119-2.036-.258-5.152-.418-9.348zM259.671 487.53c6.67-6.213 12.977-12.322 21.591-16.045 2.041-.883 7.559 4.074 6.614 5.742-4.906 8.67-11.514 14.554-18.144 21.766-2.086 2.27-2.804 7.72-6.384 8.43-2.643.525-7.102-2.544-8.987-4.044-7.294-5.806 1.505-7.548 5.984-11.72l-.674-4.128z"/>
        <path fill="#243584" d="M142.334 269.893c1.017-.98 1.906-.736 3.174-.316 2.42.802 5.368 1.83 7.61 3.137 0-.002 1.748.608 1.657 1.044.473 1.821-1.343 10.626-2.47 12.202-2.075 2.898-6.018 3.184-9.088 1.845-3.04-1.325-4.727-3.731-4.484-7.07.135-1.853 2.363-9.647 3.601-10.842z"/>
        <path fill="#00B9CD" d="M70.505 367.722c.131-6.142.583-12.251 1.16-18.365.272-2.85.094-6.63 2.715-8.583 5.156-3.837 15.391 2.512 19.7 5.165 7.196 4.433 13.29 10.424 18.237 17.219 12.71 17.455 15.773 38.355 15.547 59.318-.021 1.783-1.959 2.826-1.959 2.826s-3.206.963-4.891.67c-18.001-3.118-39.002-8.481-46.854-26.967-4.134-9.727-3.877-20.927-3.655-31.283"/>
        <g>
            <path fill="#6692FD" d="M641.887 462.898H592.35l8.256 48.784h33.025z"/>
            <path fill="#00D4BA" d="M617.119 452.34c-15.163-45.176-31.794-67.763-49.893-67.763s-33.524 5.308-46.275 15.925c25.761 6.167 44.025 12.152 54.793 17.956s24.56 17.098 41.375 33.882zM617.119 452.592c10.577-31.603 22.178-47.405 34.802-47.405 12.625 0 23.385 3.714 32.279 11.141-17.97 4.314-30.71 8.502-38.22 12.562-7.511 4.06-17.132 11.961-28.861 23.702z"/>
        </g>
        <g transform="rotate(16 -289.782 2157.159)">
            <path fill="#E4F7FF" d="M0 2.943l5.859 51.192 27.502-2.422L27.131 0z"/>
            <path fill="#6692FD" d="M9.536 45.307L5.393 7.612l20.495-2.176 4.486 37.609z"/>
            <ellipse cx="19.25" cy="49.509" fill="#B2C0FF" rx="2.75" ry="2.2"/>
            <path stroke="#7284D8" stroke-width="1.1" d="M1.574 5.136L29.217 2.27l5.78 51.957L7.485 56.63 1.574 5.136z"/>
        </g>
        <g>
            <path fill="#E4F7FF" d="M385.13 284.64l51.296-5.52 3.133 32.048-4.821-4.336-47.107 5.122z"/>
            <path stroke="#7284D8" stroke-width="1.1" d="M386.811 285.155l52.644-5.333 2.67 32.063-4.935-4.654-47.947 5.292z"/>
            <path stroke="#7284D8" stroke-width=".88" d="M395.809 290.844l20.97-1.704 11.917-.969M396.029 295.184l20.97-1.704 11.917-.968M396.424 302.996l20.971-1.704 11.917-.968"/>
        </g>
        <g transform="translate(485.1 211.847)">
            <path fill="#E4F7FF" d="M2.2 20.729c4.311 3.803 11.052 23.646 11.217 25.74 4.557-13.847 8.264-22.427 11.122-25.74C28.825 15.759 28.124 0 13.582 0-.959 0-2.11 16.926 2.201 20.729z"/>
            <path stroke="#7284D8" stroke-width="1.32" d="M3.988 20.729c3.194 5.075 11.217 22.388 11.382 24.483 5.054-12.73 8.706-20.89 10.956-24.483C29.7 15.339 29.911 0 15.37 0 .828 0 .794 15.653 3.988 20.729z"/>
            <ellipse cx="12.627" cy="13.737" fill="#6692FD" rx="4.652" ry="4.579"/>
            <ellipse cx="15.744" cy="13.737" stroke="#7284D8" stroke-width="1.32" rx="4.652" ry="4.579"/>
        </g>
        <g transform="translate(455.4 232.75)">
            <path stroke="#0081CD" stroke-width="1.1" d="M1.628 51.57l34.14-17.614L85.74 51.57l42.678-49.13"/>
            <ellipse cx="85.8" cy="50.609" fill="#0081CD" rx="2.2" ry="2.2"/>
            <ellipse cx="85.8" cy="50.609" fill="#0081CD" rx="2.2" ry="2.2"/>
            <ellipse cx="35.2" cy="34.106" fill="#0081CD" rx="2.2" ry="2.2"/>
            <ellipse cx="2.2" cy="51.709" fill="#0081CD" rx="2.2" ry="2.2"/>
            <ellipse cx="128.7" cy="2.2" fill="#0081CD" rx="2.2" ry="2.2"/>
        </g>
        <g>
            <path fill="#6692FD" d="M550.85 300.628c10.613-10.69 17.433-16.167 20.46-16.432 3.028-.265 11.067 2.868 24.119 9.398l-12.205 28.561-18.001-3.57-14.373-17.957z"/>
            <path fill="#E4F7FF" d="M550.903 300.785c2.409 16.959 4.046 25.919 4.912 26.88 1.299 1.442 38.167-1.717 40.293-3.525 1.417-1.205 1.205-11.547-.636-31.025-11.274 11.076-18.184 16.725-20.73 16.948-2.546.223-10.492-2.87-23.839-9.278z"/>
            <g stroke="#7284D8" stroke-width="1.1">
                <path d="M596.886 295.924c1.422 19.12 1.677 29.237.763 30.35-1.372 1.671-38.328 4.967-40.293 3.526-1.31-.961-2.948-9.921-4.912-26.88l.117.055-.17-.212c12.058-10.956 18.878-16.434 20.46-16.433 1.582.002 9.622 3.134 24.118 9.398l-.083.196z"/>
                <path d="M552.752 303.178c13.2 5.126 21.035 7.69 23.501 7.691 2.467.002 9.516-4.877 21.147-14.635"/>
            </g>
        </g>
        <path stroke="#206AB4" stroke-width="1.1" d="M137.5 379.076c25.588 14.617 38.652 23.408 39.194 26.373.541 2.965.541 9.21 0 18.734"/>
    </g>
</svg>
