<svg xmlns="http://www.w3.org/2000/svg" width="357" height="169" viewBox="0 0 357 169">
    <g fill="none" fill-rule="evenodd">
        <path fill="#A0D7EF" fill-rule="nonzero" d="M273.692 151.692L291 169v-63.462C291 99.166 285.834 94 279.462 94H77.538C71.166 94 66 99.166 66 105.538v34.616c0 6.372 5.166 11.538 11.538 11.538h196.154z"/>
        <path fill="#E4F7FF" fill-rule="nonzero" d="M83.867 58.41L66.344 75.935V11.682C66.344 5.231 71.574 0 78.026 0h204.437c6.452 0 11.683 5.23 11.683 11.682v35.046c0 6.452-5.231 11.683-11.683 11.683H83.867z"/>
        <path fill="#2962CC" d="M260.855 21.077c-.721 0-1.293-.187-1.714-.562-.217.201-.457.347-.721.438-.264.09-.536.136-.815.136h-1.33v-1.472h1.33c.047 0 .115-.008.203-.023a.68.68 0 0 0 .266-.116.786.786 0 0 0 .234-.271c.067-.12.1-.287.1-.5v-1.702h1.472v1.679c0 .323.075.558.227.706.152.148.4.221.748.221.047 0 .115-.008.203-.026a.697.697 0 0 0 .266-.121.804.804 0 0 0 .234-.281c.067-.124.1-.29.1-.5v-1.678h1.466v1.679c0 .323.077.56.233.712.156.151.409.227.76.227.05 0 .12-.01.21-.032a.728.728 0 0 0 .262-.13.803.803 0 0 0 .225-.281c.063-.122.094-.288.094-.496 0-.087-.007-.191-.02-.314a11.486 11.486 0 0 0-.127-.8 19.741 19.741 0 0 0-.163-.742 16.93 16.93 0 0 0-.062-.242l1.389-.455.047.189.086.366a17.554 17.554 0 0 1 .2 1.02c.03.179.055.354.074.526.02.171.03.322.03.452 0 .401-.066.753-.198 1.054a2.243 2.243 0 0 1-.517.75 2.115 2.115 0 0 1-.721.447c-.268.098-.538.15-.81.154-.732 0-1.311-.193-1.737-.58-.217.201-.456.346-.718.435a2.5 2.5 0 0 1-.806.133zm-11.582.006V19.61h2.535c.457 0 .825-.038 1.105-.115.28-.077.496-.204.65-.381.153-.177.256-.412.307-.703.051-.292.077-.652.077-1.082v-4.762h1.465v6.116c0 .138.022.264.065.378a.895.895 0 0 0 .18.295.79.79 0 0 0 .278.192.918.918 0 0 0 .358.068h.301v1.472h-.301c-.39 0-.73-.074-1.017-.222a2.38 2.38 0 0 1-.762-.63 2.93 2.93 0 0 1-1.105.627c-.445.146-.979.219-1.601.219h-2.535zm.68-2.44l-.385-5.845 1.46-.171.39 6.015h-1.466zm-3.942 1.087c.035 0 .09-.003.162-.01a.386.386 0 0 0 .225-.115c.077-.07.144-.189.2-.354.058-.166.087-.406.087-.721a1.56 1.56 0 0 0-.074-.434 1.834 1.834 0 0 0-.121-.296 1.025 1.025 0 0 0-.496-.479.959.959 0 0 0-.409-.08c-.07 0-.143.005-.218.013a.682.682 0 0 0-.228.068.832.832 0 0 0-.227.171 1.314 1.314 0 0 0-.216.316 2.998 2.998 0 0 0-.195.508 5.983 5.983 0 0 0-.162.75 13.25 13.25 0 0 0 .936.456c.148.063.286.113.414.15.128.038.235.057.322.057zm-.45-3.96c.399 0 .75.074 1.053.222.303.148.558.348.765.6.207.252.363.545.47.88.106.335.16.688.16 1.058 0 .41-.036.76-.107 1.049a2.7 2.7 0 0 1-.28.73 1.762 1.762 0 0 1-.39.472 1.687 1.687 0 0 1-.866.387 2.842 2.842 0 0 1-.355.027c-.166 0-.354-.032-.564-.095a6.257 6.257 0 0 1-.674-.248c-.238-.102-.489-.22-.75-.354a101.288 101.288 0 0 1-1.064-.55 616.605 616.605 0 0 1-.494-.251 8.72 8.72 0 0 0-.265-.127c0 .89.002 1.78.005 2.668.004.888.006 1.776.006 2.662h-1.424l-.006-6.122 1.383-.839.957.479c.067-.343.156-.675.266-.996.11-.321.258-.606.443-.854.186-.248.418-.445.698-.59.28-.146.624-.215 1.034-.208zm-5.755 4.344a.804.804 0 0 1-.094.384.985.985 0 0 1-.251.304 1.265 1.265 0 0 1-.352.201 1.11 1.11 0 0 1-.396.074c-.193 0-.364-.04-.514-.118a1.183 1.183 0 0 1-.381-.317 1.434 1.434 0 0 1-.24-.454 1.735 1.735 0 0 1-.082-.535c0-.477.113-.917.34-1.321.226-.404.592-.783 1.096-1.137l.579.537c-.366.26-.634.517-.804.771-.17.255-.264.508-.283.76.063-.028.138-.054.227-.08a.964.964 0 0 1 .269-.038c.122 0 .237.023.346.07a.816.816 0 0 1 .28.201 1.008 1.008 0 0 1 .26.698zm-7.859-3.989a11.33 11.33 0 0 1 .136.57 24.317 24.317 0 0 1 .192 1.04c.03.183.053.362.071.535.018.173.027.325.027.455 0 .406-.067.757-.201 1.055-.134.297-.31.542-.526.735-.217.193-.46.337-.73.432-.27.094-.54.142-.812.142h-1.572v-1.472h1.613c.047 0 .115-.007.204-.02a.664.664 0 0 0 .266-.11.757.757 0 0 0 .233-.269c.067-.12.1-.284.1-.493 0-.087-.006-.192-.02-.316a7.419 7.419 0 0 0-.056-.399c-.024-.142-.05-.287-.08-.434l-.086-.42a8.605 8.605 0 0 0-.147-.611l1.388-.42zm-2.547 7.02l1.064-1.075 1.087 1.087-1.075 1.075-1.076-1.087zm-.638-3.528v1.472h-.372c-.335 0-.64-.046-.916-.136a1.845 1.845 0 0 1-.697-.402c-.22.185-.482.321-.783.408-.302.086-.645.13-1.031.13h-1.046v-1.472h1.046c.24 0 .432-.022.576-.068a.861.861 0 0 0 .325-.168.464.464 0 0 0 .142-.225.954.954 0 0 0 .032-.242V17h1.466v1.873c0 .177.039.316.118.416.079.1.168.176.269.225.1.05.2.079.298.088.099.01.166.015.201.015h.372zm-3.403-5.336l1.063-1.075 1.088 1.087-1.076 1.076-1.075-1.088zm-10.205 6.808v-1.472h1.176l.496-.762v-6.287h1.465v4.485c.158-.162.323-.31.497-.446.173-.136.354-.254.543-.355.19-.1.386-.18.591-.236.205-.057.418-.086.638-.086.312 0 .617.045.916.136.3.09.568.24.804.449.236.209.426.483.57.821.144.34.216.757.216 1.253 0 .201-.015.386-.044.556-.03.169-.072.327-.127.472h1.276v1.472h-9.017zm5.406-3.694c-.228 0-.464.062-.709.184a3.63 3.63 0 0 0-.726.49c-.24.205-.471.441-.692.71a7.78 7.78 0 0 0-.603.838h2.73c.048 0 .114-.004.198-.012.085-.007.176-.024.272-.05.097-.025.195-.06.296-.106a.913.913 0 0 0 .47-.464.934.934 0 0 0 .076-.396c0-.22-.037-.407-.112-.558a1.04 1.04 0 0 0-.295-.37 1.157 1.157 0 0 0-.42-.204 1.9 1.9 0 0 0-.485-.062zm-.703-3.976l1.064-1.076 1.087 1.087-1.075 1.076-1.076-1.087zm-4.266 7.67h-.225c-.161 0-.314-.01-.458-.03a1.018 1.018 0 0 1-.422-.165c-.047.508-.164.969-.349 1.382a3.305 3.305 0 0 1-.741 1.061 3.25 3.25 0 0 1-1.108.683c-.43.161-.912.242-1.448.242h-.739V22.79h.739c.378 0 .705-.039.98-.118.277-.079.503-.205.68-.378.178-.173.31-.399.396-.677.087-.277.13-.615.13-1.013v-3.599h1.472v1.767a.75.75 0 0 0 .115.438.934.934 0 0 0 .558.378c.095.02.16.03.195.03h.225v1.47zm-11.665-1.117c.036 0 .092-.007.169-.02a.484.484 0 0 0 .233-.128.898.898 0 0 0 .21-.328c.061-.148.092-.355.092-.623a1.794 1.794 0 0 0-.252-.86 1.297 1.297 0 0 0-.372-.39 1.005 1.005 0 0 0-.588-.163.704.704 0 0 0-.502.184 1.55 1.55 0 0 0-.328.455 3.642 3.642 0 0 0-.225.588c-.06.21-.127.402-.198.576.146.082.3.166.464.25.164.086.324.161.482.228.157.067.306.122.446.166.14.043.263.065.37.065zm-.508-3.977c.414 0 .775.077 1.084.23.31.154.566.36.769.618.203.258.354.556.455.895.1.339.15.694.15 1.064 0 .41-.035.758-.106 1.046-.07.287-.164.526-.28.715-.117.189-.249.338-.397.446a1.764 1.764 0 0 1-.871.343c-.138.013-.256.02-.355.02-.197 0-.384-.018-.561-.056a3.714 3.714 0 0 1-.54-.16 5.605 5.605 0 0 1-.571-.253c-.197-.101-.412-.214-.644-.34-.177.189-.367.324-.57.405-.203.08-.44.12-.712.12h-.727l-.012-1.47h.739a.357.357 0 0 0 .227-.078.738.738 0 0 0 .177-.215c.054-.093.103-.205.148-.337.045-.132.092-.279.139-.44.079-.284.173-.576.284-.878.11-.301.257-.576.44-.824s.414-.452.694-.612c.28-.16.627-.239 1.04-.239zm-5.206 5.094c.09.13.166.272.225.428.059.156.088.296.088.423 0 .366-.1.698-.3.995-.202.298-.474.55-.816.76-.343.208-.742.37-1.197.484a5.94 5.94 0 0 1-1.45.171h-1.513c-.323 0-.633-.037-.928-.112a3.637 3.637 0 0 1-.833-.322 3.514 3.514 0 0 1-1.288-1.185c-.39-.63-.585-1.369-.585-2.216 0-.26.014-.518.044-.774s.079-.519.148-.788c.069-.27.16-.552.271-.845.113-.294.252-.612.417-.955l1.312.632c-.138.292-.252.558-.343.798-.09.24-.164.468-.221.683a4.466 4.466 0 0 0-.122.62 5.079 5.079 0 0 0-.035.6c0 .571.126 1.056.378 1.454.181.299.428.528.742.688.313.16.66.24 1.043.24h1.512c.296 0 .576-.028.84-.083.263-.056.496-.132.697-.23.2-.1.364-.213.49-.34a.726.726 0 0 0 .219-.417 1.45 1.45 0 0 0-.435-.31 3.2 3.2 0 0 0-.596-.213 5.352 5.352 0 0 0-.721-.13c-.258-.03-.527-.05-.807-.062l.042-1.466h5.36v1.472h-1.638zm-9.46-.36a4.374 4.374 0 0 1-.302 1.468 3.252 3.252 0 0 1-.732 1.11c-.311.306-.688.541-1.129.707-.441.165-.94.248-1.495.248h-.733V22.79h.733c.378 0 .705-.039.981-.118.276-.079.502-.205.68-.378.177-.173.309-.399.395-.677.087-.277.13-.615.13-1.013v-3.599h1.472v3.723zm-10.046.348c-.72 0-1.292-.187-1.713-.562-.217.201-.457.347-.721.438-.264.09-.536.136-.816.136h-1.33v-1.472h1.33c.048 0 .116-.008.204-.023a.68.68 0 0 0 .266-.116.786.786 0 0 0 .234-.271c.067-.12.1-.287.1-.5v-1.702h1.471v1.679c0 .323.076.558.228.706.152.148.4.221.747.221.048 0 .116-.008.204-.026a.696.696 0 0 0 .266-.121.804.804 0 0 0 .234-.281c.067-.124.1-.29.1-.5v-1.678h1.465v1.679c0 .323.078.56.234.712.155.151.409.227.76.227.05 0 .12-.01.209-.032a.728.728 0 0 0 .263-.13.803.803 0 0 0 .224-.281c.063-.122.095-.288.095-.496 0-.087-.007-.191-.02-.314a11.482 11.482 0 0 0-.127-.8 19.741 19.741 0 0 0-.163-.742 16.916 16.916 0 0 0-.062-.242l1.388-.455a39.752 39.752 0 0 1 .133.555 17.55 17.55 0 0 1 .201 1.02c.03.179.054.354.074.526.02.171.03.322.03.452 0 .401-.066.753-.198 1.054a2.243 2.243 0 0 1-.517.75 2.115 2.115 0 0 1-.721.447c-.268.098-.538.15-.81.154-.733 0-1.312-.193-1.737-.58-.217.201-.456.346-.718.435a2.5 2.5 0 0 1-.807.133zm-4.236.012h-.166a4.48 4.48 0 0 1-.886-.086 3.288 3.288 0 0 1-.786-.26 2.444 2.444 0 0 1-.641-.446 2.21 2.21 0 0 1-.458-.644 1.534 1.534 0 0 1-.364.387 2.298 2.298 0 0 1-.481.28 2.704 2.704 0 0 1-.538.169 2.685 2.685 0 0 1-.532.056c-.315 0-.613-.055-.895-.165a2.202 2.202 0 0 1-1.247-1.211 2.497 2.497 0 0 1-.186-.988c0-.425.08-.8.242-1.122.162-.323.376-.606.644-.848.268-.243.576-.45.925-.62.349-.172.71-.32 1.084-.447l-.141-.567 1.441-.337 1.076 4.184c.063.256.165.462.307.617.142.156.297.276.464.36.167.085.339.142.514.172s.328.044.458.044h.166v1.472zm-3.64-2.937c.023-.11.031-.222.023-.334a2.495 2.495 0 0 0-.053-.358 4.935 4.935 0 0 0-.11-.407c-.045-.146-.093-.31-.144-.49-.63.2-1.108.428-1.433.682-.325.254-.488.568-.488.942 0 .146.033.276.098.39a.88.88 0 0 0 .254.284c.104.075.22.129.349.162.128.034.257.04.387.021.295-.043.541-.13.738-.263.197-.132.323-.342.379-.63zm-11.14 2.943a4.12 4.12 0 0 1-.442-.024 6.015 6.015 0 0 1-.904-.169 16.893 16.893 0 0 1-.497-.138l-.703-.213.426-1.418c.342.118.698.222 1.066.313.368.09.715.15 1.04.177.325.028.607.015.845-.038s.399-.167.482-.34a.29.29 0 0 0 .009-.207.831.831 0 0 0-.127-.26l-2.205-3.214 1.241-.804.402.62c0 .004.007.016.02.036.015.02.042.061.084.124a103.873 103.873 0 0 0 .481.727l.464.7.659.996c.2.303.324.616.37.94.045.322.004.63-.122.921a1.682 1.682 0 0 1-.269.434c-.112.132-.243.25-.393.352-.28.193-.616.325-1.01.396-.331.059-.636.089-.916.089zm-3.444-.367a4.374 4.374 0 0 1-.301 1.469 3.252 3.252 0 0 1-.733 1.11c-.311.306-.688.541-1.129.707-.441.165-.94.248-1.495.248h-.733V22.79h.733c.378 0 .705-.039.981-.118.276-.079.502-.205.68-.378.177-.173.309-.399.396-.677.086-.277.13-.615.13-1.013v-3.599h1.47v3.723zm-8.574-1.991l-.307.207c-.182.122-.422.27-.721.446-.3.175-.65.361-1.052.558-.402.197-.835.38-1.3.55-.465.17-.952.31-1.46.422a7.074 7.074 0 0 1-1.53.169h-1.79v-1.472h1.79c.386 0 .798-.04 1.235-.118a13.283 13.283 0 0 0 2.508-.72c.384-.154.718-.306 1.002-.456l-.588-.18a53.568 53.568 0 0 0-1.303-.384c-.217-.061-.42-.115-.609-.163a8.38 8.38 0 0 0-.508-.112 2.078 2.078 0 0 0-.354-.041.8.8 0 0 0-.24.032.503.503 0 0 0-.186.107.821.821 0 0 0-.154.192 3.068 3.068 0 0 0-.147.283l-1.353-.407c.074-.237.166-.458.274-.665.109-.207.24-.387.396-.54.156-.155.336-.276.54-.364.206-.089.44-.133.704-.133.103 0 .248.021.437.065.19.043.404.1.644.171.24.071.498.152.772.242.273.091.548.186.824.284a148.702 148.702 0 0 1 1.507.547l.526.192c.141.05.232.082.271.094l.172 1.194zm-6.5-5.188l1.063-1.076 1.088 1.087-1.076 1.076-1.075-1.087zm-1.3 7.54h-.225c-.161 0-.314-.01-.458-.03a1.018 1.018 0 0 1-.422-.165c-.047.508-.164.969-.349 1.382a3.305 3.305 0 0 1-.741 1.061 3.25 3.25 0 0 1-1.108.683c-.43.161-.912.242-1.448.242h-.739V22.79h.739c.378 0 .705-.039.98-.118.277-.079.503-.205.68-.378.178-.173.31-.399.396-.677.087-.277.13-.615.13-1.013v-3.599h1.472v1.767a.75.75 0 0 0 .115.438.934.934 0 0 0 .558.378c.095.02.16.03.195.03h.225v1.47zm-5.892-4.964a11.332 11.332 0 0 1 .136.57 24.322 24.322 0 0 1 .192 1.04c.03.183.054.362.071.535.018.173.027.325.027.455 0 .406-.067.757-.201 1.055-.134.297-.31.542-.526.735-.217.193-.46.337-.73.432-.27.094-.54.142-.812.142h-2.547v-1.472h2.588c.047 0 .115-.007.204-.02a.664.664 0 0 0 .266-.11.757.757 0 0 0 .233-.269c.067-.12.1-.284.1-.493 0-.087-.006-.192-.02-.316a7.42 7.42 0 0 0-.056-.399c-.024-.142-.05-.287-.08-.434l-.085-.42a8.603 8.603 0 0 0-.148-.611l1.388-.42zm-.715 8.178l-.992-1.004.98-1.017 1.017 1.017-1.005 1.004zm-2.475.006l-.993-1.004.975-1.017 1.016 1.017-.998 1.004zm-.94-3.22h-.479c-.524 0-1.024-.23-1.5-.692-.13.154-.285.281-.464.381-.18.1-.372.18-.577.24-.204.059-.412.1-.623.124a5.44 5.44 0 0 1-.606.035c-.15 0-.301-.009-.455-.026a5.701 5.701 0 0 1-.523-.089 12.097 12.097 0 0 1-.67-.165 34.809 34.809 0 0 1-.904-.263l.425-1.413a8.22 8.22 0 0 0 1.495.428c.244.046.479.076.703.09.225.013.426.008.603-.015.177-.024.328-.068.452-.133a.507.507 0 0 0 .251-.263c.02-.048.03-.09.03-.127a.351.351 0 0 0-.033-.133 1.26 1.26 0 0 0-.103-.186 32.694 32.694 0 0 1-.183-.287l-2.098-2.949 1.24-.797 2.11 3.196c.115.174.235.353.36.538.127.185.253.354.379.505.126.152.248.277.366.376.119.098.227.147.325.147h.479v1.478zm-13.762-1.117c.035 0 .091-.007.168-.02a.484.484 0 0 0 .234-.128.898.898 0 0 0 .21-.328c.06-.148.09-.355.09-.623a1.794 1.794 0 0 0-.25-.86 1.297 1.297 0 0 0-.373-.39 1.005 1.005 0 0 0-.587-.163.704.704 0 0 0-.503.184 1.55 1.55 0 0 0-.328.455 3.642 3.642 0 0 0-.224.588c-.061.21-.127.402-.198.576.146.082.3.166.464.25.163.086.324.161.481.228.158.067.307.122.446.166.14.043.263.065.37.065zm-.508-3.977c.413 0 .775.077 1.084.23.31.154.565.36.768.618.203.258.355.556.455.895.1.339.15.694.15 1.064 0 .41-.035.758-.106 1.046-.07.287-.164.526-.28.715-.117.189-.248.338-.396.446a1.764 1.764 0 0 1-.872.343c-.138.013-.256.02-.354.02-.197 0-.384-.018-.562-.056a3.714 3.714 0 0 1-.54-.16 5.605 5.605 0 0 1-.57-.253c-.198-.101-.412-.214-.645-.34-.177.189-.367.324-.57.405-.203.08-.44.12-.712.12h-.727l-.012-1.47h.739a.357.357 0 0 0 .227-.078.738.738 0 0 0 .178-.215c.053-.093.102-.205.148-.337.045-.132.091-.279.138-.44.08-.284.174-.576.284-.878.11-.301.257-.576.44-.824s.415-.452.695-.612c.28-.16.626-.239 1.04-.239zm-10.73 3.622c.058-.004.13-.016.214-.035a.66.66 0 0 0 .249-.121c.08-.061.15-.15.206-.266.057-.116.086-.273.086-.47v-1.72h1.465v1.69c0 .323.077.558.23.704.155.145.405.218.751.218a.918.918 0 0 0 .281-.044.667.667 0 0 0 .251-.148.773.773 0 0 0 .183-.269c.048-.11.075-.246.083-.407v.003-1.747h1.471v1.75c.008.303.1.522.278.658.177.136.45.204.816.204h.579v1.472h-.58c-.405 0-.758-.045-1.057-.133a1.923 1.923 0 0 1-.774-.435c-.201.186-.436.326-.706.423-.27.096-.545.145-.825.145a3.14 3.14 0 0 1-.972-.136 1.984 1.984 0 0 1-.741-.438 2.268 2.268 0 0 1-1.46.574 2.866 2.866 0 0 1-.978-.142 2.283 2.283 0 0 1-.73-.408c-.46.366-1.079.55-1.855.55h-.762v-1.472h.762c.232 0 .42-.02.564-.059a.778.778 0 0 0 .337-.174.57.57 0 0 0 .163-.28c.027-.111.041-.237.041-.379v-1.72h1.471v1.69c0 .32.077.552.23.698.154.145.396.22.729.224zm1.393-5.058l-1.004 1.016-1.005-1.004 1.005-1.016 1.004 1.004zm2.535-.024l-.993 1.005-1.034-.993 1.017-1.016 1.01 1.004zm-1.306-1.666l-.945.946-.934-.934.946-.946.933.934zm-6.647 8.22h-.178c-.346 0-.648-.033-.904-.098a2.78 2.78 0 0 1-.691-.272 2.857 2.857 0 0 1-.565-.42 8.826 8.826 0 0 1-.522-.546 1.518 1.518 0 0 1-.453.632 2.595 2.595 0 0 1-.709.42c-.266.106-.55.182-.853.227a5.143 5.143 0 0 1-.899.057h-1.843v-1.472h1.926c.26 0 .5-.014.721-.044.22-.03.412-.079.573-.148a.993.993 0 0 0 .384-.275.72.72 0 0 0 .16-.42c0-.168-.072-.383-.216-.643-.144-.26-.33-.55-.561-.869-.23-.319-.49-.657-.78-1.013l-.878-1.085.248-1.2 5.13-2.487.602 1.347-4.485 2.075c.37.496.74.99 1.108 1.48.369.49.738.984 1.108 1.48.217.288.416.543.597.765.181.223.363.41.547.565.183.153.375.27.576.351.2.08.427.121.68.121h.177v1.472zm-12.31 3.267a3.35 3.35 0 0 1-.803-.094 3.005 3.005 0 0 1-.72-.278 3.19 3.19 0 0 1-.621-.44 2.92 2.92 0 0 1-.496-.588 3.376 3.376 0 0 1-.18-.334 2.907 2.907 0 0 1-.163-.434 4.086 4.086 0 0 1-.165-1.182c0-.193.01-.391.029-.594.02-.203.056-.419.11-.647.052-.228.127-.476.224-.742.096-.266.223-.562.38-.889l1.33.632a9.216 9.216 0 0 0-.295.671 5.387 5.387 0 0 0-.19.573 3.827 3.827 0 0 0-.13 1.002c0 .224.026.434.075.63.049.194.123.37.221.528l-.006-.006c.15.213.35.386.6.52s.517.201.8.201h.273c.413 0 .751-.043 1.013-.13.262-.087.467-.209.615-.366.147-.158.248-.349.301-.574a3.26 3.26 0 0 0 .08-.75v-8.497h1.453v6.252c0 .122.029.232.086.33a.846.846 0 0 0 .222.252 1.123 1.123 0 0 0 .656.216h.313v1.47h-.313a3.36 3.36 0 0 1-.346-.014 1.17 1.17 0 0 1-.245-.05.824.824 0 0 1-.192-.092 1.651 1.651 0 0 1-.18-.139v.272c0 2.186-1.155 3.283-3.463 3.291h-.272zm178.656 18.739a4.12 4.12 0 0 1-.443-.024 6.015 6.015 0 0 1-.904-.168 16.892 16.892 0 0 1-.496-.14l-.703-.212.425-1.418c.343.118.698.222 1.067.313.368.09.715.15 1.04.177.325.028.606.015.845-.038.238-.053.398-.167.481-.34a.29.29 0 0 0 .009-.207.831.831 0 0 0-.127-.26l-2.204-3.214 1.24-.804.403.62c0 .004.007.016.02.036l.083.124a104.14 104.14 0 0 0 .482.727l.464.7.658.996c.201.303.324.616.37.94.045.322.005.63-.121.921a1.682 1.682 0 0 1-.27.434c-.112.132-.243.25-.392.352-.28.193-.617.325-1.01.396-.332.059-.637.089-.917.089zm-4.06-.006h-1.47v-8.521h1.47v8.52zm-2.883-.36a4.374 4.374 0 0 1-.301 1.468 3.252 3.252 0 0 1-.733 1.11c-.311.306-.687.541-1.129.707-.44.165-.94.248-1.495.248h-.732V44.79h.732c.379 0 .706-.039.981-.118.276-.079.503-.205.68-.378.177-.173.31-.399.396-.676.086-.278.13-.616.13-1.014v-3.599h1.471v3.723zm-4.798-4.604a11.33 11.33 0 0 1 .136.57 24.322 24.322 0 0 1 .192 1.04c.03.183.053.362.07.535.019.173.027.325.027.455 0 .406-.067.757-.2 1.055-.134.297-.31.542-.526.735-.217.193-.46.337-.73.432-.27.094-.54.142-.813.142h-2.546v-1.472h2.588c.047 0 .115-.007.204-.02a.664.664 0 0 0 .266-.11.757.757 0 0 0 .233-.269c.067-.12.1-.284.1-.493 0-.087-.007-.192-.02-.316a7.419 7.419 0 0 0-.056-.399 13.7 13.7 0 0 0-.08-.434l-.086-.42a8.605 8.605 0 0 0-.148-.611l1.389-.42zm-.715 8.178l-.993-1.004.981-1.017 1.017 1.017-1.005 1.004zm-2.476.006l-.993-1.004.975-1.017 1.017 1.017-.999 1.004zm-.94-3.22h-.478c-.524 0-1.024-.23-1.501-.692-.13.154-.285.281-.464.381-.18.1-.371.18-.576.24-.205.059-.413.1-.623.124a5.44 5.44 0 0 1-.606.035c-.15 0-.301-.009-.455-.026a5.701 5.701 0 0 1-.523-.089 12.097 12.097 0 0 1-.67-.165 34.808 34.808 0 0 1-.905-.263l.426-1.413a8.22 8.22 0 0 0 1.495.428c.244.046.478.076.703.09.224.013.425.008.603-.015.177-.024.327-.068.452-.133a.507.507 0 0 0 .25-.263c.02-.048.03-.09.03-.127a.351.351 0 0 0-.032-.133 1.26 1.26 0 0 0-.104-.186 32.694 32.694 0 0 1-.183-.287l-2.098-2.949 1.241-.797 2.11 3.196c.114.174.234.353.36.538.126.185.252.354.379.505.126.152.248.277.366.376.118.098.226.147.325.147h.479v1.478zm-7.693-.975a.804.804 0 0 1-.095.384.985.985 0 0 1-.25.304 1.265 1.265 0 0 1-.352.201 1.11 1.11 0 0 1-.396.074c-.193 0-.365-.04-.514-.118a1.183 1.183 0 0 1-.381-.317 1.434 1.434 0 0 1-.24-.455 1.735 1.735 0 0 1-.083-.534c0-.477.114-.917.34-1.321.227-.404.592-.783 1.096-1.137l.58.537c-.367.26-.635.517-.804.771-.17.255-.264.508-.284.76.063-.028.139-.054.228-.08a.964.964 0 0 1 .269-.038c.122 0 .237.023.345.07a.816.816 0 0 1 .28.201 1.008 1.008 0 0 1 .26.698zm-7.558-1.377l-.307.207c-.181.122-.422.27-.721.446-.3.175-.65.361-1.052.558-.402.197-.835.38-1.3.55-.465.17-.951.31-1.46.422a7.074 7.074 0 0 1-1.53.169h-1.79v-1.472h1.79c.386 0 .798-.04 1.235-.118a13.284 13.284 0 0 0 2.508-.72c.385-.154.719-.306 1.002-.456l-.588-.18a53.562 53.562 0 0 0-1.303-.384c-.216-.061-.42-.115-.608-.163a8.38 8.38 0 0 0-.509-.112 2.078 2.078 0 0 0-.354-.041.8.8 0 0 0-.24.032.503.503 0 0 0-.186.107.821.821 0 0 0-.153.192 3.068 3.068 0 0 0-.148.283l-1.353-.407c.075-.237.166-.458.275-.665.108-.207.24-.387.396-.54.155-.155.335-.276.54-.364.205-.089.44-.133.703-.133.103 0 .249.021.438.065.189.043.404.1.644.171.24.071.497.152.771.242.274.091.549.186.824.284a148.702 148.702 0 0 1 1.507.547l.526.192c.142.05.232.082.272.094l.171 1.194zm-6.187 4.355l1.005-1.005 1.004 1.017-1.004 1.004-1.005-1.016zm2.464.012l1.017-1.005 1.004 1.016-1.004 1.005-1.017-1.016zm-1.175 1.654l.933-.933.946.945-.934.934-.945-.946zm-11.913-3.67v-1.47h1.176l.496-.763v-6.287h1.466v4.485c.157-.162.323-.31.496-.446s.354-.254.544-.355c.189-.1.386-.18.59-.236.205-.057.418-.086.639-.086.31 0 .616.045.916.136.299.09.567.24.803.449.237.209.427.483.57.821.144.34.216.757.216 1.253 0 .201-.015.386-.044.556-.03.169-.072.327-.127.472h1.276v1.472h-9.017zm5.407-3.693c-.229 0-.465.062-.71.184a3.63 3.63 0 0 0-.726.49c-.24.205-.471.441-.692.71a7.78 7.78 0 0 0-.602.838h2.73c.047 0 .113-.004.198-.012a1.913 1.913 0 0 0 .567-.157.913.913 0 0 0 .47-.464.934.934 0 0 0 .076-.395c0-.22-.037-.407-.112-.558a1.04 1.04 0 0 0-.295-.37 1.157 1.157 0 0 0-.42-.203 1.9 1.9 0 0 0-.484-.063zm-10.347 5.395c.315 0 .596-.01.842-.032s.465-.053.656-.095c.19-.041.358-.094.502-.16.144-.064.269-.142.375-.233.166-.133.29-.29.376-.466.084-.178.134-.416.15-.715h-.91a3.96 3.96 0 0 1-.603-.048 2.625 2.625 0 0 1-.59-.162 2.504 2.504 0 0 1-.535-.299 1.874 1.874 0 0 1-.438-.452 2.226 2.226 0 0 1-.295-.635 2.938 2.938 0 0 1-.11-.839c0-.272.024-.513.072-.724.047-.21.107-.397.18-.558.073-.162.154-.303.245-.423.09-.12.177-.225.26-.316.236-.236.504-.418.804-.546.3-.128.622-.192.969-.192.43 0 .797.073 1.102.221.305.148.555.352.75.612.195.26.338.568.429.925.09.356.136.743.136 1.16v.804h1.004v1.472h-1.01c-.016.54-.112.994-.287 1.365a2.72 2.72 0 0 1-.783.969 3.35 3.35 0 0 1-.59.369 3.944 3.944 0 0 1-.716.263c-.264.07-.558.123-.883.157-.325.033-.692.05-1.102.05V44.79zm1.95-5.424c-.335 0-.6.104-.798.313-.197.209-.295.534-.295.975 0 .173.034.321.103.443a.905.905 0 0 0 .266.299c.108.077.23.133.363.168.134.036.268.053.402.053h.91v-.803c0-.225-.018-.417-.053-.577a1.565 1.565 0 0 0-.139-.398.884.884 0 0 0-.408-.396.76.76 0 0 0-.198-.062 1.04 1.04 0 0 0-.153-.015zm-3.404 3.362a4.374 4.374 0 0 1-.301 1.469 3.252 3.252 0 0 1-.733 1.11c-.311.306-.687.541-1.129.707-.44.165-.94.248-1.495.248h-.732V44.79h.732c.379 0 .706-.039.981-.118.276-.079.503-.205.68-.378.177-.173.31-.399.396-.676.086-.278.13-.616.13-1.014v-3.599h1.471v3.723zm-10.571-.756c.035 0 .091-.007.168-.02a.484.484 0 0 0 .234-.128.898.898 0 0 0 .21-.328c.06-.148.091-.355.091-.623a1.794 1.794 0 0 0-.251-.86 1.297 1.297 0 0 0-.372-.39 1.005 1.005 0 0 0-.588-.163.704.704 0 0 0-.503.184 1.55 1.55 0 0 0-.328.455 3.642 3.642 0 0 0-.224.588c-.061.21-.127.402-.198.576.146.082.3.166.464.25.163.086.324.161.481.228.158.067.307.122.447.166.14.043.262.065.369.065zm-.508-3.977c.413 0 .775.077 1.084.23.31.154.565.36.768.618.203.258.355.556.455.895.1.339.15.694.15 1.064 0 .41-.035.758-.106 1.046-.07.287-.164.526-.28.715-.116.189-.248.338-.396.446a1.764 1.764 0 0 1-.872.343c-.138.013-.256.02-.354.02-.197 0-.384-.018-.562-.056a3.714 3.714 0 0 1-.54-.16 5.605 5.605 0 0 1-.57-.253c-.198-.101-.412-.214-.645-.34-.177.189-.367.324-.57.404-.203.081-.44.122-.712.122h-.727l-.012-1.472h.74a.357.357 0 0 0 .227-.077.738.738 0 0 0 .177-.215c.053-.093.102-.205.148-.337.045-.132.091-.279.138-.44.08-.284.174-.576.284-.878.11-.301.257-.576.44-.824.184-.248.415-.452.695-.612.28-.16.626-.239 1.04-.239zm-5.206 5.094c.09.13.165.272.224.428.06.156.089.296.089.423 0 .366-.1.698-.301.995-.201.298-.473.55-.816.76-.343.208-.741.37-1.196.484a5.94 5.94 0 0 1-1.451.171h-1.513c-.323 0-.632-.037-.928-.112a3.637 3.637 0 0 1-.833-.322 3.514 3.514 0 0 1-1.288-1.185c-.39-.63-.585-1.369-.585-2.216 0-.26.015-.518.044-.774.03-.256.08-.519.148-.788.069-.27.16-.552.272-.846.112-.293.251-.611.416-.954l1.312.632c-.138.292-.252.558-.342.798-.091.24-.165.468-.222.683a4.466 4.466 0 0 0-.121.62 5.08 5.08 0 0 0-.036.6c0 .571.126 1.056.379 1.454.18.299.428.528.741.688.313.16.661.24 1.043.24h1.513c.295 0 .575-.028.839-.083.264-.056.496-.132.697-.23.201-.1.365-.213.49-.34a.726.726 0 0 0 .22-.417 1.45 1.45 0 0 0-.435-.31 3.2 3.2 0 0 0-.597-.213 5.352 5.352 0 0 0-.72-.13 11.28 11.28 0 0 0-.807-.062l.041-1.466h5.36v1.472h-1.637zm-10.004-4.964l.05.195a18.448 18.448 0 0 1 .183.869c.034.18.065.363.095.546.03.183.053.362.07.535.018.173.027.325.027.455 0 .406-.067.757-.2 1.055-.135.297-.31.542-.527.735-.216.193-.46.337-.73.432-.27.094-.54.142-.812.142h-2.547v-1.472h2.588c.048 0 .116-.007.204-.02a.664.664 0 0 0 .266-.11.757.757 0 0 0 .234-.269c.067-.12.1-.284.1-.493 0-.087-.007-.192-.02-.316a7.42 7.42 0 0 0-.057-.399 13.7 13.7 0 0 0-.08-.434l-.085-.42a8.605 8.605 0 0 0-.148-.611l1.389-.42zm-.585-1.152l-.993-1.005.98-1.016 1.017 1.016-1.004 1.005zm-2.476.006l-.993-1.005.975-1.016 1.016 1.016-.998 1.005zm-6.406 7.811c.315 0 .596-.01.842-.032.247-.022.465-.053.656-.095.191-.041.359-.094.502-.16.144-.064.27-.142.376-.233.165-.133.29-.29.375-.466.085-.178.135-.416.15-.715h-.91a3.96 3.96 0 0 1-.602-.048 2.625 2.625 0 0 1-.591-.162 2.504 2.504 0 0 1-.535-.299 1.874 1.874 0 0 1-.437-.452 2.226 2.226 0 0 1-.296-.635 2.938 2.938 0 0 1-.109-.839c0-.272.024-.513.071-.724.047-.21.107-.397.18-.558.073-.162.155-.303.246-.423.09-.12.177-.225.26-.316.236-.236.504-.418.803-.546.3-.128.623-.192.97-.192.429 0 .796.073 1.101.221.306.148.556.352.75.612.196.26.339.568.43.925.09.356.135.743.135 1.16v.804h1.005v1.472h-1.01c-.017.54-.112.994-.287 1.365a2.72 2.72 0 0 1-.783.969 3.35 3.35 0 0 1-.591.369 3.944 3.944 0 0 1-.715.263c-.264.07-.559.123-.884.157-.325.033-.692.05-1.102.05V44.79zm1.95-5.424c-.335 0-.6.104-.797.313-.197.209-.296.534-.296.975 0 .173.035.321.104.443a.905.905 0 0 0 .265.299c.109.077.23.133.364.168.134.036.268.053.402.053h.91v-.803c0-.225-.018-.417-.054-.577a1.565 1.565 0 0 0-.138-.398.884.884 0 0 0-.408-.396.76.76 0 0 0-.198-.062 1.04 1.04 0 0 0-.154-.015zm-3.787-1.241l.05.195a18.452 18.452 0 0 1 .183.869c.033.18.065.363.094.546.03.183.054.362.071.535.018.173.027.325.027.455 0 .406-.067.757-.2 1.055-.135.297-.31.542-.527.735-.216.193-.46.337-.73.432-.27.094-.54.142-.812.142h-1.572v-1.472h1.613c.048 0 .115-.007.204-.02a.664.664 0 0 0 .266-.11.757.757 0 0 0 .233-.269c.067-.12.1-.284.1-.493 0-.087-.006-.192-.02-.316a7.42 7.42 0 0 0-.056-.399 13.7 13.7 0 0 0-.08-.434l-.085-.42a8.605 8.605 0 0 0-.148-.611l1.389-.42zm-2.506-2.375l1.064-1.076 1.087 1.087-1.075 1.076-1.076-1.087zm-4.166 2.02c.398 0 .749.074 1.052.222.303.148.558.348.765.6.207.252.364.545.47.88.106.335.16.688.16 1.058v.15c0 .05-.002.096-.006.14a.688.688 0 0 0 .13.395c.078.103.169.184.271.243.103.059.205.1.308.124.102.023.18.035.236.035h.166v1.472h-.166a3.08 3.08 0 0 1-.907-.116 1.396 1.396 0 0 1-.617-.38 1.55 1.55 0 0 1-.364.318 1.776 1.776 0 0 1-.384.18c-.128.042-.25.07-.363.083-.115.014-.215.021-.302.021-.165 0-.353-.032-.564-.095a6.257 6.257 0 0 1-.674-.248c-.238-.102-.488-.22-.75-.354a101.288 101.288 0 0 1-1.064-.55 623.365 623.365 0 0 1-.493-.251 8.72 8.72 0 0 0-.266-.127c0 .89.002 1.78.006 2.668.004.888.006 1.776.006 2.662h-1.424l-.006-6.122 1.382-.839.958.479c.067-.343.155-.675.266-.996.11-.321.258-.606.443-.854s.417-.445.697-.59c.28-.146.624-.215 1.034-.208zm.45 3.96c.035 0 .089-.003.162-.01a.386.386 0 0 0 .224-.115c.077-.07.144-.189.201-.354.057-.166.086-.406.086-.721a1.56 1.56 0 0 0-.074-.434 1.834 1.834 0 0 0-.121-.296 1.025 1.025 0 0 0-.496-.479.959.959 0 0 0-.408-.08c-.071 0-.144.005-.219.013a.682.682 0 0 0-.227.068.832.832 0 0 0-.228.171 1.314 1.314 0 0 0-.215.316 2.998 2.998 0 0 0-.195.508 5.983 5.983 0 0 0-.163.75 13.25 13.25 0 0 0 .937.456c.147.063.285.113.413.15.128.038.236.057.322.057zm-16.99 1.359v-1.472h3.457c.063 0 .15-.003.26-.009.11-.005.22-.021.325-.047a.893.893 0 0 0 .275-.112.23.23 0 0 0 .115-.204c0-.17-.064-.374-.192-.615a6.264 6.264 0 0 0-.493-.768c-.2-.272-.426-.546-.677-.824-.25-.278-.498-.54-.744-.786a14.141 14.141 0 0 0-.694-.653c-.217-.189-.39-.33-.52-.425l.118-1.336 5.14-2.352.538 1.289-4.325 1.908c.15.146.318.311.505.497.187.185.38.38.576.587.197.207.393.422.588.645.195.222.378.445.55.667.171.223.324.44.458.653a3.7 3.7 0 0 1 .313.603 2.418 2.418 0 0 1 .183.898 1.717 1.717 0 0 1-.142.715c-.047.107-.12.227-.218.36a1.554 1.554 0 0 1-.411.373c-.175.114-.396.21-.662.29a3.435 3.435 0 0 1-.966.118h-3.356zm-2.818-1.117c.035 0 .092-.007.168-.02a.484.484 0 0 0 .234-.128.898.898 0 0 0 .21-.328c.06-.148.091-.355.091-.623a1.794 1.794 0 0 0-.251-.86 1.297 1.297 0 0 0-.372-.39 1.005 1.005 0 0 0-.588-.163.704.704 0 0 0-.502.184 1.55 1.55 0 0 0-.328.455 3.642 3.642 0 0 0-.225.588c-.061.21-.127.402-.198.576.146.082.3.166.464.25.163.086.324.161.482.228.157.067.306.122.446.166.14.043.263.065.369.065zm-.508-3.977c.406 0 .76.073 1.06.219.302.145.555.342.76.59.205.249.36.536.464.863.104.327.16.67.168 1.028 0 .221.043.393.13.517a.862.862 0 0 0 .296.275c.11.06.218.096.325.11.106.013.179.02.218.02h.166v1.472h-.166c-.28 0-.537-.04-.771-.121a2.886 2.886 0 0 1-.641-.31 1.573 1.573 0 0 1-.39.392 1.733 1.733 0 0 1-.833.305c-.13.011-.243.017-.337.017-.197 0-.384-.018-.561-.056a3.714 3.714 0 0 1-.541-.16 5.605 5.605 0 0 1-.57-.253c-.197-.101-.412-.214-.644-.34-.178.189-.368.324-.57.404-.204.081-.44.122-.713.122h-.727l-.011-1.472h.738a.357.357 0 0 0 .228-.077.738.738 0 0 0 .177-.215c.053-.093.102-.205.148-.337.045-.132.091-.279.139-.44.078-.284.173-.576.283-.878.11-.301.257-.576.44-.824.184-.248.415-.452.695-.612.28-.16.626-.239 1.04-.239zm-3.622 5.094h-.178c-.346 0-.648-.033-.904-.098a2.78 2.78 0 0 1-.691-.272 2.857 2.857 0 0 1-.565-.42 8.826 8.826 0 0 1-.522-.546 1.518 1.518 0 0 1-.452.632 2.595 2.595 0 0 1-.71.42c-.266.106-.55.182-.853.227a5.143 5.143 0 0 1-.899.057h-1.843v-1.472h1.926c.26 0 .5-.014.721-.044.22-.03.412-.079.573-.148a.993.993 0 0 0 .384-.275.72.72 0 0 0 .16-.42c0-.168-.072-.383-.216-.643-.144-.26-.33-.55-.561-.869-.23-.319-.49-.657-.78-1.013l-.878-1.085.248-1.2 5.13-2.487.602 1.347-4.485 2.075c.37.496.74.99 1.108 1.48.369.49.738.984 1.108 1.48.217.288.416.543.597.765.181.223.363.41.547.565.183.153.375.27.576.351.2.08.427.121.68.121h.177v1.472zm-9.414-5.661l-.992-1.005.98-1.016 1.017 1.016-1.005 1.005zm-2.476.006l-.992-1.005.975-1.016 1.016 1.016-.999 1.005zm4.503 4.183v1.472h-.874c-.335 0-.64-.046-.916-.136a1.845 1.845 0 0 1-.698-.402c-.22.185-.481.321-.782.408-.302.086-.646.13-1.032.13h-2.044v-1.472h2.044c.24 0 .433-.022.576-.068a.861.861 0 0 0 .326-.168.464.464 0 0 0 .141-.225.954.954 0 0 0 .033-.242V39h1.465v1.873c0 .177.04.316.118.416.08.1.169.176.27.225.1.05.2.079.298.088.098.01.165.015.2.015h.875zM126.27 44.79c.315 0 .596-.01.842-.032s.465-.053.656-.095c.191-.041.359-.094.502-.16.144-.064.27-.142.376-.233.165-.133.29-.29.375-.466.084-.178.135-.416.15-.715h-.91a3.96 3.96 0 0 1-.602-.048 2.625 2.625 0 0 1-.591-.162 2.504 2.504 0 0 1-.535-.299 1.874 1.874 0 0 1-.437-.452 2.226 2.226 0 0 1-.296-.635 2.938 2.938 0 0 1-.109-.839c0-.272.024-.513.07-.724.048-.21.108-.397.181-.558.073-.162.155-.303.245-.423.091-.12.178-.225.26-.316.237-.236.505-.418.804-.546.3-.128.622-.192.97-.192.428 0 .796.073 1.101.221.305.148.556.352.75.612.196.26.338.568.429.925.09.356.136.743.136 1.16v.804h1.004v1.472h-1.01c-.016.54-.111.994-.287 1.365a2.72 2.72 0 0 1-.783.969 3.35 3.35 0 0 1-.59.369 3.944 3.944 0 0 1-.715.263c-.264.07-.559.123-.884.157-.325.033-.692.05-1.102.05V44.79zm1.95-5.424c-.335 0-.6.104-.798.313-.197.209-.295.534-.295.975 0 .173.034.321.103.443a.905.905 0 0 0 .266.299c.109.077.23.133.364.168.134.036.268.053.401.053h.91v-.803c0-.225-.017-.417-.053-.577a1.565 1.565 0 0 0-.139-.398.884.884 0 0 0-.407-.396.76.76 0 0 0-.198-.062 1.04 1.04 0 0 0-.154-.015zm-8.178 6.902a3.645 3.645 0 0 1-1.734-.432 3.47 3.47 0 0 1-1.286-1.187 3.897 3.897 0 0 1-.437-1.026 4.468 4.468 0 0 1-.154-1.178 5.687 5.687 0 0 1 .198-1.507c.07-.256.16-.524.272-.804.113-.28.25-.587.41-.922l1.33.633a13.1 13.1 0 0 0-.354.774 6.334 6.334 0 0 0-.23.647 4.068 4.068 0 0 0-.166 1.173c0 .268.033.525.1.77.067.247.16.469.278.666a2.118 2.118 0 0 0 1.773.922h1.2c.417 0 .757-.044 1.019-.13.262-.087.466-.21.611-.37.146-.16.246-.352.299-.576.053-.225.08-.473.08-.745V39h1.47v3.976c0 1.1-.29 1.923-.87 2.47-.582.548-1.451.822-2.61.822h-1.2zm-.118-7.73l1.063-1.075 1.088 1.087-1.076 1.076-1.075-1.087zm-15.045 4.55v-1.47h3.457c.063 0 .15-.004.26-.01.11-.005.219-.021.325-.047a.893.893 0 0 0 .275-.112.23.23 0 0 0 .115-.204c0-.17-.064-.374-.192-.615a6.264 6.264 0 0 0-.493-.768c-.201-.272-.427-.546-.677-.824-.25-.278-.498-.54-.745-.786a14.141 14.141 0 0 0-.694-.653c-.217-.189-.39-.33-.52-.425l.118-1.336 5.141-2.352.538 1.289-4.326 1.908c.15.146.319.311.506.497.187.185.379.38.576.587.197.207.393.422.588.645.195.222.378.445.55.667.17.223.323.44.457.653a3.7 3.7 0 0 1 .313.603 2.418 2.418 0 0 1 .184.898 1.717 1.717 0 0 1-.142.715c-.047.107-.12.227-.219.36a1.554 1.554 0 0 1-.41.373c-.176.114-.396.21-.662.29a3.435 3.435 0 0 1-.966.118h-3.357zm.177-1.47v1.47h-.372c-.335 0-.64-.045-.916-.135a1.845 1.845 0 0 1-.697-.402c-.22.185-.482.321-.783.408-.301.086-.645.13-1.031.13h-1.046v-1.472h1.046c.24 0 .432-.022.576-.068a.861.861 0 0 0 .325-.168.464.464 0 0 0 .142-.225.954.954 0 0 0 .032-.242V39h1.466v1.873c0 .177.04.316.118.416.079.1.168.176.269.225.1.05.2.079.298.088.099.01.166.015.201.015h.372zm-3.403-5.337l1.063-1.075 1.088 1.087-1.076 1.076-1.075-1.088zm-4.74 1.49c.399 0 .75.073 1.053.221.303.148.558.348.765.6.207.252.363.545.47.88.106.335.16.688.16 1.058v.15c0 .05-.003.096-.007.14a.688.688 0 0 0 .13.395c.079.103.17.184.272.243.102.059.205.1.307.124.103.023.181.035.237.035h.165v1.472h-.165a3.08 3.08 0 0 1-.907-.116 1.396 1.396 0 0 1-.618-.38 1.55 1.55 0 0 1-.363.318 1.776 1.776 0 0 1-.384.18c-.128.042-.25.07-.364.083-.114.014-.215.021-.301.021-.166 0-.354-.032-.564-.095a6.257 6.257 0 0 1-.674-.248c-.238-.102-.489-.22-.75-.354a101.282 101.282 0 0 1-1.064-.55 620.621 620.621 0 0 1-.494-.251 8.719 8.719 0 0 0-.266-.127c0 .89.002 1.78.006 2.668.004.888.006 1.776.006 2.662h-1.424l-.006-6.122 1.383-.839.957.479c.067-.343.156-.675.266-.996.11-.321.258-.606.443-.854.186-.248.418-.445.698-.59.28-.146.624-.215 1.034-.208zm.45 3.959c.035 0 .09-.003.162-.01a.386.386 0 0 0 .225-.115c.077-.07.144-.189.2-.354.058-.166.086-.406.086-.721a1.56 1.56 0 0 0-.073-.434 1.834 1.834 0 0 0-.122-.296 1.025 1.025 0 0 0-.496-.479.959.959 0 0 0-.408-.08c-.07 0-.143.005-.218.013a.682.682 0 0 0-.228.068.832.832 0 0 0-.227.171 1.314 1.314 0 0 0-.216.316 2.998 2.998 0 0 0-.195.508 5.983 5.983 0 0 0-.162.75 13.25 13.25 0 0 0 .936.456c.148.063.286.113.414.15.128.038.235.057.322.057zm-8.822-3.587c.106.086.203.202.292.345.089.144.165.307.228.488s.112.375.147.582c.036.207.053.415.053.623v.804h-1.418v-.804c0-.236-.05-.462-.15-.676a1.8 1.8 0 0 0-.423-.57 6.022 6.022 0 0 0-.254-.216c-.09-.073-.181-.145-.272-.216a25.24 25.24 0 0 1-.337-.272 7.4 7.4 0 0 1-.313-.271 1.948 1.948 0 0 1-.493-.78 2.957 2.957 0 0 1-.157-.97c0-.358.084-.69.251-.995a2.76 2.76 0 0 1 .653-.795c.268-.225.57-.4.904-.526a2.85 2.85 0 0 1 1.01-.189c.434 0 .821.068 1.162.204.34.136.627.33.86.582.232.252.407.557.526.916.118.358.171.76.16 1.205H89.55c0-.275-.034-.509-.103-.7a1.183 1.183 0 0 0-.281-.458 1.06 1.06 0 0 0-.41-.248 1.568 1.568 0 0 0-.494-.077c-.19 0-.364.027-.523.08-.16.053-.298.128-.414.224-.116.097-.207.211-.272.343a.956.956 0 0 0-.097.429c0 .232.045.446.136.64.09.196.224.362.402.5l1.046.798zm.023 5.785l-1.058-1.076 1.1-1.093 1.063 1.093-1.105 1.076z"/>
        <path fill="#093B88" d="M271.896 115.01c-.721 0-1.292-.187-1.714-.56-.216.2-.457.346-.72.437-.265.09-.536.135-.816.135h-1.33v-1.471h1.33c.047 0 .115-.008.204-.024a.68.68 0 0 0 .266-.115.786.786 0 0 0 .233-.272c.067-.12.1-.286.1-.499v-1.702h1.472v1.678c0 .323.076.559.227.707.152.147.401.221.748.221.047 0 .115-.009.204-.026a.697.697 0 0 0 .266-.122.804.804 0 0 0 .233-.28c.067-.124.1-.29.1-.5v-1.678h1.466v1.678c0 .323.078.56.233.712.156.152.41.228.76.228.05 0 .12-.01.21-.033a.728.728 0 0 0 .262-.13.803.803 0 0 0 .225-.28c.063-.122.095-.288.095-.497 0-.086-.007-.19-.021-.313a11.484 11.484 0 0 0-.127-.8 19.742 19.742 0 0 0-.163-.742 16.93 16.93 0 0 0-.062-.242l1.389-.455a39.778 39.778 0 0 1 .133.555 17.554 17.554 0 0 1 .2 1.02c.03.179.055.354.075.525.02.172.03.322.03.452 0 .402-.067.754-.199 1.055a2.243 2.243 0 0 1-.517.75 2.115 2.115 0 0 1-.72.447c-.269.098-.538.15-.81.153-.733 0-1.312-.193-1.738-.579-.216.201-.456.346-.718.435a2.5 2.5 0 0 1-.806.133zm-11.582.007v-1.472h2.535c.457 0 .825-.038 1.105-.115.28-.077.496-.204.65-.381.154-.177.256-.412.307-.703.052-.292.077-.652.077-1.082v-4.762h1.466v6.115c0 .138.021.264.065.379a.895.895 0 0 0 .18.295.79.79 0 0 0 .278.192.918.918 0 0 0 .357.068h.301v1.471h-.3c-.39 0-.73-.073-1.017-.221a2.38 2.38 0 0 1-.763-.63 2.93 2.93 0 0 1-1.105.627c-.445.146-.978.219-1.6.219h-2.536zm.68-2.441l-.384-5.844 1.46-.171.39 6.015h-1.466zm-3.942 1.087c.036 0 .09-.003.163-.009a.386.386 0 0 0 .224-.115c.077-.07.144-.189.201-.354.057-.166.086-.406.086-.721a1.56 1.56 0 0 0-.074-.435 1.834 1.834 0 0 0-.121-.295 1.025 1.025 0 0 0-.496-.479.959.959 0 0 0-.408-.08c-.071 0-.144.005-.219.012a.682.682 0 0 0-.227.068.831.831 0 0 0-.228.172 1.314 1.314 0 0 0-.215.316 2.998 2.998 0 0 0-.196.508 5.983 5.983 0 0 0-.162.75 13.248 13.248 0 0 0 .937.456c.147.063.285.113.413.15.128.038.236.056.322.056zm-.449-3.959c.398 0 .749.074 1.052.222.303.148.558.347.765.6.207.252.364.545.47.88.106.335.16.687.16 1.058 0 .41-.036.76-.107 1.049a2.7 2.7 0 0 1-.28.73 1.762 1.762 0 0 1-.39.472 1.687 1.687 0 0 1-.866.387 2.842 2.842 0 0 1-.355.027c-.165 0-.353-.032-.564-.095a6.257 6.257 0 0 1-.674-.248c-.238-.102-.488-.22-.75-.354a101.301 101.301 0 0 1-1.064-.55 627.27 627.27 0 0 1-.493-.251 8.723 8.723 0 0 0-.266-.127c0 .89.002 1.78.006 2.668.004.888.006 1.775.006 2.662h-1.424l-.006-6.122 1.382-.84.958.48c.067-.343.155-.675.266-.996.11-.321.258-.606.443-.854s.417-.445.697-.59c.28-.147.624-.216 1.034-.208zm-5.755 4.343a.804.804 0 0 1-.095.385.985.985 0 0 1-.251.304 1.265 1.265 0 0 1-.352.2 1.11 1.11 0 0 1-.395.075c-.193 0-.365-.04-.515-.119a1.183 1.183 0 0 1-.38-.316 1.434 1.434 0 0 1-.24-.455 1.735 1.735 0 0 1-.083-.534c0-.477.114-.917.34-1.321.227-.404.592-.783 1.096-1.138l.58.538c-.367.26-.635.517-.804.771-.17.254-.264.507-.284.76.063-.028.139-.055.227-.08a.964.964 0 0 1 .27-.039c.121 0 .237.024.345.071a.816.816 0 0 1 .28.201 1.008 1.008 0 0 1 .26.697zm-7.86-3.988a11.33 11.33 0 0 1 .136.57 24.323 24.323 0 0 1 .192 1.04c.03.183.054.361.071.535.018.173.027.325.027.455 0 .406-.067.757-.2 1.055-.135.297-.31.542-.527.735-.216.193-.46.337-.73.432-.27.094-.54.141-.812.141h-1.572v-1.471h1.613c.048 0 .116-.007.204-.02a.664.664 0 0 0 .266-.11.757.757 0 0 0 .234-.269c.067-.12.1-.284.1-.493 0-.087-.007-.192-.02-.316a7.42 7.42 0 0 0-.057-.4 13.7 13.7 0 0 0-.08-.434l-.085-.42a8.605 8.605 0 0 0-.148-.61l1.389-.42zm-2.546 7.02l1.063-1.076 1.088 1.088-1.076 1.075-1.075-1.087zm-4.639-3.528c.378 0 .672-.032.88-.097.21-.065.364-.147.465-.246a.606.606 0 0 0 .183-.325 1.87 1.87 0 0 0 .032-.336v-6.045h1.466v6.045c0 .26.077.484.233.673.156.19.375.3.659.331h.142v1.471h-.148a3.793 3.793 0 0 1-.517-.041 1.672 1.672 0 0 1-.405-.115 1.659 1.659 0 0 1-.351-.21 3.327 3.327 0 0 1-.352-.319 1.498 1.498 0 0 1-.363.322c-.14.089-.304.16-.49.213a3.668 3.668 0 0 1-.636.115 8.082 8.082 0 0 1-.798.035v-1.471zm.272 1.471h-.165a4.48 4.48 0 0 1-.887-.085 3.288 3.288 0 0 1-.786-.26 2.444 2.444 0 0 1-.64-.446 2.21 2.21 0 0 1-.459-.644 1.534 1.534 0 0 1-.363.387 2.298 2.298 0 0 1-.482.28 2.704 2.704 0 0 1-.538.169 2.685 2.685 0 0 1-.531.056c-.316 0-.614-.055-.896-.166a2.202 2.202 0 0 1-1.247-1.211 2.497 2.497 0 0 1-.186-.987c0-.425.081-.8.243-1.123.161-.323.376-.605.644-.848.268-.242.576-.449.925-.62.348-.171.71-.32 1.084-.446l-.142-.567 1.442-.337 1.075 4.183c.063.256.166.462.308.618.141.156.296.276.464.36.167.085.338.142.514.172.175.03.328.044.458.044h.165v1.471zm-3.64-2.936c.024-.11.032-.222.024-.334a2.495 2.495 0 0 0-.054-.358 4.934 4.934 0 0 0-.109-.407c-.045-.146-.093-.31-.145-.49-.63.2-1.108.427-1.433.682-.325.254-.487.568-.487.942 0 .146.032.276.097.39a.88.88 0 0 0 .255.284c.104.075.22.129.348.162.128.034.257.04.387.02.296-.042.542-.13.739-.262.197-.132.323-.342.378-.63zm-10.542 1.82c.036 0 .092-.007.169-.021a.484.484 0 0 0 .233-.127.898.898 0 0 0 .21-.328c.06-.148.091-.356.091-.623a1.794 1.794 0 0 0-.25-.86 1.297 1.297 0 0 0-.373-.39 1.005 1.005 0 0 0-.588-.163.704.704 0 0 0-.502.183 1.55 1.55 0 0 0-.328.455 3.642 3.642 0 0 0-.225.588c-.06.211-.127.403-.198.577.146.082.3.166.464.25.164.085.324.161.482.228.157.067.306.122.446.166.14.043.263.065.37.065zm-.508-3.977c.414 0 .775.077 1.084.23.31.154.566.36.769.618.202.258.354.556.454.895.101.339.151.693.151 1.064 0 .41-.035.758-.106 1.046-.071.287-.165.525-.28.715-.117.189-.249.337-.397.446a1.764 1.764 0 0 1-.871.342c-.138.014-.256.021-.355.021-.197 0-.384-.019-.561-.056a3.714 3.714 0 0 1-.541-.16 5.605 5.605 0 0 1-.57-.254c-.197-.1-.412-.213-.644-.34-.178.19-.368.325-.57.405-.203.081-.44.121-.713.121h-.726l-.012-1.471h.738a.357.357 0 0 0 .228-.077.738.738 0 0 0 .177-.215c.053-.093.103-.205.148-.337.045-.132.092-.279.139-.44.079-.284.173-.577.283-.878.11-.301.257-.576.44-.824.184-.248.415-.452.695-.612.28-.16.626-.24 1.04-.24zm-5.714-.567l-.993-1.005.981-1.016 1.016 1.016-1.004 1.005zm-2.476.005l-.993-1.004.975-1.016 1.017 1.016-.999 1.004zm4.503 4.184v1.471h-.875c-.335 0-.64-.045-.916-.135a1.845 1.845 0 0 1-.697-.402c-.22.185-.482.32-.783.407-.301.087-.645.13-1.031.13h-2.045v-1.471h2.045c.24 0 .432-.023.576-.068a.861.861 0 0 0 .325-.168.464.464 0 0 0 .142-.225.954.954 0 0 0 .032-.242v-1.915h1.466v1.874c0 .177.04.316.118.416.079.1.168.175.269.225.1.049.2.078.298.088.099.01.166.015.201.015h.875zm-6.11 1.471c-.434 0-.806-.026-1.117-.08a2.9 2.9 0 0 1-.786-.236 1.459 1.459 0 0 1-.511-.399 1.72 1.72 0 0 1-.293-.567 3.406 3.406 0 0 1-.133-.736 11.566 11.566 0 0 1-.032-.907v-5.595h1.471v5.595c0 .316.011.568.033.757.021.189.079.336.171.44.093.104.233.173.42.207.187.033.446.05.777.05v1.471zm-10.07-.011c-.72 0-1.291-.188-1.713-.562-.217.201-.457.347-.72.438-.265.09-.537.135-.816.135h-1.33v-1.471h1.33c.047 0 .115-.008.203-.024a.68.68 0 0 0 .266-.115.786.786 0 0 0 .234-.272c.067-.12.1-.286.1-.499v-1.702h1.472v1.678c0 .323.075.559.227.707.152.147.401.221.748.221.047 0 .115-.009.203-.026a.697.697 0 0 0 .266-.122.804.804 0 0 0 .234-.28c.067-.124.1-.29.1-.5v-1.678h1.466v1.678c0 .323.078.56.233.712.156.152.409.228.76.228.05 0 .12-.01.21-.033a.728.728 0 0 0 .262-.13.803.803 0 0 0 .225-.28c.063-.122.094-.288.094-.497 0-.086-.007-.19-.02-.313a11.484 11.484 0 0 0-.127-.8 19.735 19.735 0 0 0-.163-.742 16.917 16.917 0 0 0-.062-.242l1.389-.455c.008.027.023.09.047.189l.086.366a17.554 17.554 0 0 1 .2 1.02c.03.179.055.354.074.525.02.172.03.322.03.452 0 .402-.066.754-.198 1.055a2.243 2.243 0 0 1-.517.75 2.115 2.115 0 0 1-.721.447c-.268.098-.538.15-.81.153-.732 0-1.311-.193-1.737-.579-.216.201-.456.346-.718.435a2.5 2.5 0 0 1-.806.133zm-7.51-5.2c.367 0 .694.067.984.2.29.134.535.31.736.53a2.408 2.408 0 0 1 .62 1.61c0 .165-.01.31-.03.434-.02.124-.05.238-.091.343a1.956 1.956 0 0 1-.15.301c-.06.097-.129.2-.207.31a7.288 7.288 0 0 0 .487.012h.878v1.471h-.426a12.844 12.844 0 0 1-1.54-.091c-.25-.03-.487-.065-.711-.107a6.296 6.296 0 0 1-.603-.138c-.358.102-.76.184-1.205.245-.446.06-.954.091-1.525.091h-.62v-1.471h.62c.106 0 .191.001.254.003a5.53 5.53 0 0 0 .331 0 3.61 3.61 0 0 0 .207-.015 2.89 2.89 0 0 1-.378-.656 1.959 1.959 0 0 1-.13-.732c0-.312.065-.609.195-.893.13-.283.308-.532.534-.747.227-.215.492-.385.795-.511.304-.126.629-.19.975-.19zm-1.105 2.351c0 .28.099.518.296.715.197.197.453.357.768.48.15-.06.287-.127.413-.202.127-.075.236-.16.328-.257a1.047 1.047 0 0 0 .298-.748.704.704 0 0 0-.07-.295.945.945 0 0 0-.201-.28 1.077 1.077 0 0 0-.313-.21.994.994 0 0 0-.414-.083c-.173 0-.329.025-.467.074a1.1 1.1 0 0 0-.348.195.82.82 0 0 0-.216.28.78.78 0 0 0-.074.331zm-.018-4.851l1.064-1.075 1.087 1.087-1.075 1.075-1.076-1.087zm-1.99 7.711c-.434 0-.807-.026-1.118-.08a2.9 2.9 0 0 1-.786-.236 1.459 1.459 0 0 1-.51-.399 1.72 1.72 0 0 1-.293-.567 3.406 3.406 0 0 1-.133-.736 11.566 11.566 0 0 1-.033-.907v-5.595h1.472v5.595c0 .316.01.568.032.757.022.189.079.336.171.44.093.104.233.173.42.207.187.033.446.05.777.05v1.471zm-4.752-4.963a11.33 11.33 0 0 1 .136.57 24.317 24.317 0 0 1 .192 1.04c.03.183.053.361.071.535.018.173.027.325.027.455 0 .406-.067.757-.201 1.055-.134.297-.31.542-.526.735-.217.193-.46.337-.73.432-.27.094-.54.141-.812.141h-1.572v-1.471h1.613c.047 0 .115-.007.204-.02a.664.664 0 0 0 .266-.11.757.757 0 0 0 .233-.269c.067-.12.1-.284.1-.493 0-.087-.006-.192-.02-.316a7.419 7.419 0 0 0-.056-.4 13.7 13.7 0 0 0-.08-.434l-.086-.42a8.605 8.605 0 0 0-.147-.61l1.388-.42zm-2.505-2.376l1.063-1.075 1.088 1.087-1.076 1.076-1.075-1.088zm-.591 7.34h-.166a4.48 4.48 0 0 1-.886-.086 3.288 3.288 0 0 1-.786-.26 2.444 2.444 0 0 1-.641-.446 2.209 2.209 0 0 1-.458-.644 1.534 1.534 0 0 1-.363.387 2.298 2.298 0 0 1-.482.28 2.704 2.704 0 0 1-.538.169 2.685 2.685 0 0 1-.532.056c-.315 0-.613-.055-.895-.166a2.202 2.202 0 0 1-1.247-1.211 2.497 2.497 0 0 1-.186-.987c0-.425.081-.8.243-1.123.161-.323.376-.605.644-.848.268-.242.576-.449.924-.62.349-.171.71-.32 1.085-.446l-.142-.567 1.442-.337 1.075 4.183c.063.256.166.462.307.618.142.156.297.276.464.36.168.085.34.142.514.172.176.03.328.044.458.044h.166v1.471zm-3.64-2.937c.023-.11.031-.222.023-.334a2.495 2.495 0 0 0-.053-.358 4.935 4.935 0 0 0-.109-.407c-.045-.146-.094-.31-.145-.49-.63.2-1.108.427-1.433.682-.325.254-.487.568-.487.942 0 .146.032.276.097.39a.88.88 0 0 0 .254.284c.105.075.22.129.349.162.128.034.257.04.387.02.295-.042.542-.13.739-.262.197-.132.323-.342.378-.63zm-14.938 2.936v-1.471h3.456c.063 0 .15-.003.26-.009.11-.006.22-.021.325-.047a.893.893 0 0 0 .275-.112.23.23 0 0 0 .115-.204c0-.17-.064-.374-.192-.615a6.264 6.264 0 0 0-.493-.768c-.2-.272-.426-.547-.677-.824-.25-.278-.498-.54-.744-.786a14.142 14.142 0 0 0-.694-.653c-.217-.19-.39-.331-.52-.426l.118-1.335 5.14-2.352.538 1.288-4.325 1.909.505.496c.187.185.38.381.576.588.197.207.393.422.588.644.195.223.378.446.55.668.171.223.324.44.458.653a3.7 3.7 0 0 1 .313.603 2.418 2.418 0 0 1 .183.898 1.717 1.717 0 0 1-.142.715c-.047.106-.12.226-.218.36a1.554 1.554 0 0 1-.411.373c-.175.114-.396.21-.662.29a3.435 3.435 0 0 1-.966.117h-3.356zm.271 0h-.478c-.524 0-1.024-.23-1.501-.691-.13.154-.285.28-.464.381-.18.1-.371.18-.576.24-.205.059-.413.1-.624.124a5.44 5.44 0 0 1-.605.035c-.15 0-.302-.009-.455-.027a5.701 5.701 0 0 1-.523-.088 12.096 12.096 0 0 1-.67-.166 34.806 34.806 0 0 1-.905-.263l.426-1.412a8.22 8.22 0 0 0 1.495.428c.244.046.478.075.703.09.224.013.425.008.602-.016.178-.023.328-.068.453-.133a.507.507 0 0 0 .25-.262c.02-.048.03-.09.03-.128a.351.351 0 0 0-.032-.132 1.26 1.26 0 0 0-.104-.187 32.698 32.698 0 0 1-.183-.286l-2.098-2.949 1.241-.798 2.11 3.197c.114.174.234.353.36.538.126.185.252.354.378.505.127.152.249.277.367.375.118.099.226.148.325.148h.478v1.477zm-12.19-4.963a11.33 11.33 0 0 1 .136.57 24.323 24.323 0 0 1 .192 1.04c.03.183.053.361.07.535.019.173.027.325.027.455 0 .406-.067.757-.2 1.055-.134.297-.31.542-.526.735-.217.193-.46.337-.73.432-.27.094-.54.141-.813.141h-2.546v-1.471h2.588c.047 0 .115-.007.204-.02a.664.664 0 0 0 .266-.11.757.757 0 0 0 .233-.269c.067-.12.1-.284.1-.493 0-.087-.007-.192-.02-.316a7.419 7.419 0 0 0-.056-.4 13.7 13.7 0 0 0-.08-.434l-.086-.42a8.605 8.605 0 0 0-.148-.61l1.389-.42zm-.585-1.152l-.993-1.005.981-1.016 1.017 1.016-1.005 1.005zm-2.476.005l-.993-1.004.975-1.016 1.017 1.016-.999 1.004zm-2.34 3.759c-.02.011-.083.054-.189.127-.106.073-.25.166-.431.28.039.119.1.21.183.275a.864.864 0 0 0 .5.192c.076.004.13.006.162.006h1.081v1.471h-1.081a2.64 2.64 0 0 1-1.262-.31 2.103 2.103 0 0 1-.872-.913c-.303.15-.63.299-.98.446a10.783 10.783 0 0 1-2.275.671c-.402.071-.804.106-1.206.106h-1.76v-1.471h1.76c.386 0 .798-.04 1.235-.118a13.284 13.284 0 0 0 2.508-.72 10.59 10.59 0 0 0 1.002-.456 121.366 121.366 0 0 0-1.235-.375 57.64 57.64 0 0 0-.656-.19c-.216-.06-.42-.115-.608-.162a8.38 8.38 0 0 0-.509-.112 2.078 2.078 0 0 0-.354-.041.8.8 0 0 0-.24.032.503.503 0 0 0-.186.106.821.821 0 0 0-.153.192 3.068 3.068 0 0 0-.148.284l-1.353-.408c.075-.236.166-.458.275-.664.108-.207.24-.387.395-.541.156-.154.336-.275.541-.364.205-.088.44-.132.703-.132.103 0 .249.021.438.065.189.043.403.1.644.17.24.072.497.153.77.243.275.09.55.185.825.284a148.762 148.762 0 0 1 1.507.546l.526.192c.142.052.232.083.272.095l.171 1.194zm-6.382-5.189l1.064-1.075 1.087 1.087-1.075 1.076-1.076-1.088zm-4.65 2.329c.366 0 .694.067.984.2.29.134.534.31.735.53.201.218.355.467.461.747.107.28.16.567.16.863 0 .165-.01.31-.03.434-.02.124-.05.238-.091.343a1.956 1.956 0 0 1-.151.301c-.06.097-.128.2-.207.31a7.288 7.288 0 0 0 .488.012h.877v1.471h-.425a12.844 12.844 0 0 1-1.54-.091c-.25-.03-.487-.065-.712-.107a6.296 6.296 0 0 1-.602-.138c-.359.102-.76.184-1.206.245-.445.06-.953.091-1.524.091h-.62v-1.471h.62c.106 0 .19.001.254.003a5.53 5.53 0 0 0 .33 0 3.61 3.61 0 0 0 .207-.015 2.89 2.89 0 0 1-.378-.656 1.959 1.959 0 0 1-.13-.732c0-.312.065-.609.195-.893.13-.283.309-.532.535-.747.227-.215.491-.385.795-.511.303-.126.628-.19.975-.19zm-1.105 2.351c0 .28.098.518.295.715.197.197.453.357.768.48.15-.06.288-.127.414-.202.126-.075.235-.16.328-.257a1.047 1.047 0 0 0 .298-.748.704.704 0 0 0-.07-.295.945.945 0 0 0-.201-.28 1.077 1.077 0 0 0-.314-.21.994.994 0 0 0-.413-.083c-.174 0-.33.025-.467.074a1.1 1.1 0 0 0-.349.195.82.82 0 0 0-.215.28.78.78 0 0 0-.074.331zm-.018-4.851l1.064-1.075 1.087 1.087-1.075 1.075-1.076-1.087zm-2.074 6.24v1.471h-.875c-.334 0-.64-.045-.915-.135a1.845 1.845 0 0 1-.698-.402c-.22.185-.481.32-.783.407-.301.087-.645.13-1.03.13h-2.045v-1.471h2.044c.24 0 .433-.023.576-.068a.861.861 0 0 0 .325-.168.464.464 0 0 0 .142-.225.954.954 0 0 0 .033-.242v-1.915h1.465v1.874c0 .177.04.316.118.416.08.1.169.175.27.225.1.049.2.078.298.088.098.01.165.015.2.015h.875zm-2.405 4.721l-.993-1.004.981-1.016 1.017 1.016-1.005 1.004zm-2.476.006l-.993-1.004.975-1.017 1.017 1.017-.999 1.004zm-4.497-8.467c.367 0 .695.067.984.2.29.134.535.31.736.53a2.408 2.408 0 0 1 .62 1.61c0 .165-.01.31-.03.434-.019.124-.05.238-.09.343a1.956 1.956 0 0 1-.152.301c-.059.097-.128.2-.206.31a7.288 7.288 0 0 0 .487.012h.878v1.471h-.426a12.844 12.844 0 0 1-1.54-.091c-.25-.03-.487-.065-.711-.107a6.296 6.296 0 0 1-.603-.138c-.358.102-.76.184-1.205.245-.446.06-.954.091-1.525.091h-.62v-1.471h.62c.106 0 .191.001.254.003a5.53 5.53 0 0 0 .331 0 3.61 3.61 0 0 0 .207-.015 2.89 2.89 0 0 1-.378-.656 1.959 1.959 0 0 1-.13-.732c0-.312.065-.609.195-.893.13-.283.308-.532.534-.747.227-.215.492-.385.795-.511.304-.126.629-.19.975-.19zm-1.105 2.351c0 .28.099.518.296.715.197.197.453.357.768.48.15-.06.287-.127.414-.202.126-.075.235-.16.328-.257a1.047 1.047 0 0 0 .298-.748.704.704 0 0 0-.071-.295.945.945 0 0 0-.2-.28 1.077 1.077 0 0 0-.314-.21.994.994 0 0 0-.414-.083c-.173 0-.329.025-.467.074a1.1 1.1 0 0 0-.348.195.82.82 0 0 0-.216.28.78.78 0 0 0-.074.331zm-.017-4.851l1.063-1.075 1.087 1.087-1.075 1.075-1.075-1.087zm-3.6 7.711c.092.13.166.273.225.429.06.155.09.296.09.422 0 .367-.101.699-.302.996-.201.297-.473.55-.816.76-.342.208-.741.37-1.196.484a5.94 5.94 0 0 1-1.451.171h-1.513c-.323 0-.632-.037-.927-.112a3.636 3.636 0 0 1-.834-.322 3.514 3.514 0 0 1-1.288-1.185c-.39-.63-.585-1.369-.585-2.216 0-.26.015-.518.044-.774.03-.256.08-.519.148-.789.07-.27.16-.551.272-.845.112-.293.251-.611.417-.954l1.311.632c-.137.292-.252.558-.342.798-.09.24-.165.468-.222.682a4.466 4.466 0 0 0-.121.62 5.08 5.08 0 0 0-.035.6c0 .572.126 1.056.378 1.454.18.3.428.53.741.689.314.16.661.24 1.043.24l1.513-.001c.295 0 .575-.028.84-.083.263-.055.495-.132.696-.23.201-.099.365-.212.49-.34a.726.726 0 0 0 .22-.416 1.45 1.45 0 0 0-.435-.31 3.2 3.2 0 0 0-.597-.213 5.352 5.352 0 0 0-.72-.13 11.28 11.28 0 0 0-.807-.062l.041-1.466h5.36v1.471h-1.637zm-20.084 0v-1.471h3.457c.063 0 .15-.003.26-.009.11-.006.218-.021.325-.047a.893.893 0 0 0 .274-.112.23.23 0 0 0 .116-.204c0-.17-.064-.374-.192-.615a6.264 6.264 0 0 0-.494-.768c-.2-.272-.426-.547-.676-.824a20.76 20.76 0 0 0-.745-.786 14.141 14.141 0 0 0-.694-.653c-.217-.19-.39-.331-.52-.426l.118-1.335 5.14-2.352.539 1.288-4.326 1.909.505.496c.188.185.38.381.577.588.197.207.392.422.587.644.196.223.379.446.55.668.171.223.324.44.458.653a3.7 3.7 0 0 1 .313.603 2.418 2.418 0 0 1 .183.898 1.717 1.717 0 0 1-.141.715c-.048.106-.12.226-.22.36a1.554 1.554 0 0 1-.41.373c-.175.114-.396.21-.662.29a3.435 3.435 0 0 1-.966.117h-3.356zm.266 0h-.166a4.48 4.48 0 0 1-.886-.085 3.288 3.288 0 0 1-.786-.26 2.444 2.444 0 0 1-.641-.446 2.21 2.21 0 0 1-.458-.644 1.534 1.534 0 0 1-.363.387 2.298 2.298 0 0 1-.482.28 2.704 2.704 0 0 1-.538.169 2.685 2.685 0 0 1-.532.056c-.315 0-.613-.055-.895-.166a2.202 2.202 0 0 1-1.247-1.211 2.497 2.497 0 0 1-.186-.987c0-.425.081-.8.243-1.123.161-.323.376-.605.644-.848.268-.242.576-.449.924-.62.349-.171.71-.32 1.085-.446l-.142-.567 1.442-.337 1.075 4.183c.063.256.166.462.307.618.142.156.297.276.464.36.168.085.34.142.514.172.176.03.328.044.458.044h.166v1.471zm-3.64-2.936c.023-.11.031-.222.023-.334a2.495 2.495 0 0 0-.053-.358 4.934 4.934 0 0 0-.109-.407c-.045-.146-.094-.31-.145-.49-.63.2-1.108.427-1.433.682-.325.254-.487.568-.487.942 0 .146.032.276.097.39a.88.88 0 0 0 .254.284c.105.075.22.129.349.162.128.034.257.04.387.02.295-.042.542-.13.739-.262.197-.132.323-.342.378-.63zm181.622 24.936h-1.472v-8.52h1.472v8.52zm-2.884-.36a4.374 4.374 0 0 1-.301 1.468 3.252 3.252 0 0 1-.733 1.111c-.311.306-.688.541-1.129.706-.44.166-.94.249-1.495.249h-.732v-1.472h.732c.378 0 .705-.04.981-.118.276-.079.502-.205.68-.378.177-.173.309-.399.396-.677.086-.277.13-.615.13-1.013v-3.599h1.471v3.723zm-10.045.349c-.721 0-1.293-.188-1.714-.562-.217.201-.457.347-.721.438-.264.09-.536.135-.815.135h-1.33v-1.47h1.33c.047 0 .115-.009.203-.025a.68.68 0 0 0 .266-.115.786.786 0 0 0 .234-.272c.067-.12.1-.286.1-.499v-1.702h1.472v1.678c0 .323.075.559.227.707.152.147.4.221.748.221.047 0 .115-.009.203-.026a.697.697 0 0 0 .266-.122.804.804 0 0 0 .234-.28c.067-.124.1-.29.1-.5v-1.678h1.466v1.678c0 .323.077.56.233.712.156.152.409.228.76.228.05 0 .12-.01.21-.033a.728.728 0 0 0 .262-.13.803.803 0 0 0 .225-.28c.063-.122.094-.288.094-.497 0-.086-.007-.19-.02-.313a11.486 11.486 0 0 0-.127-.8 19.742 19.742 0 0 0-.163-.742 16.928 16.928 0 0 0-.062-.242l1.389-.455.047.189.085.366a17.554 17.554 0 0 1 .201 1.02c.03.179.055.354.074.525.02.172.03.322.03.452 0 .402-.066.754-.198 1.055a2.243 2.243 0 0 1-.517.75 2.115 2.115 0 0 1-.721.447c-.268.098-.538.15-.81.153-.732 0-1.311-.193-1.737-.579-.217.201-.456.346-.718.435a2.5 2.5 0 0 1-.806.133zm-4.243.011c-.434 0-.806-.026-1.117-.08a2.9 2.9 0 0 1-.786-.236 1.459 1.459 0 0 1-.511-.399 1.72 1.72 0 0 1-.293-.567 3.406 3.406 0 0 1-.132-.736 11.566 11.566 0 0 1-.033-.907v-5.595h1.471v5.595c0 .316.011.568.033.757.022.189.079.336.171.44.093.104.233.173.42.207.187.033.446.05.777.05v1.471zm-8.344 3.268a3.35 3.35 0 0 1-.803-.094 3.005 3.005 0 0 1-.721-.278 3.19 3.19 0 0 1-.62-.44 2.92 2.92 0 0 1-.497-.588 3.376 3.376 0 0 1-.18-.334 2.907 2.907 0 0 1-.163-.434 4.086 4.086 0 0 1-.165-1.182c0-.193.01-.391.03-.594.019-.203.056-.419.111-.647a6.63 6.63 0 0 1 .23-.742c.1-.266.227-.562.385-.89l1.33.633a10.31 10.31 0 0 0-.299.67 5.02 5.02 0 0 0-.192.574 3.685 3.685 0 0 0-.136 1.002c0 .224.025.434.074.629.05.195.123.371.222.529l-.006-.006c.15.213.35.386.6.52s.517.2.8.2h.272c.414 0 .751-.043 1.013-.13.262-.086.467-.208.615-.366.148-.157.248-.348.301-.573a3.26 3.26 0 0 0 .08-.75v-8.497h1.454v8.497c0 2.186-1.155 3.283-3.463 3.291h-.272zm-13.662-3.28c-.72 0-1.292-.187-1.713-.56-.217.2-.457.346-.721.437-.264.09-.536.135-.816.135h-1.33v-1.47h1.33c.048 0 .116-.009.204-.025a.68.68 0 0 0 .266-.115.786.786 0 0 0 .234-.272c.067-.12.1-.286.1-.499v-1.702h1.471v1.678c0 .323.076.559.228.707.152.147.4.221.747.221.048 0 .116-.009.204-.026a.697.697 0 0 0 .266-.122.804.804 0 0 0 .234-.28c.067-.124.1-.29.1-.5v-1.678h1.465v1.678c0 .323.078.56.234.712.155.152.409.228.76.228.05 0 .12-.01.209-.033a.728.728 0 0 0 .263-.13.803.803 0 0 0 .224-.28c.063-.122.095-.288.095-.497 0-.086-.007-.19-.02-.313a11.482 11.482 0 0 0-.127-.8 19.742 19.742 0 0 0-.163-.742 16.914 16.914 0 0 0-.062-.242l1.388-.455a39.745 39.745 0 0 1 .133.555 17.55 17.55 0 0 1 .201 1.02c.03.179.054.354.074.525.02.172.03.322.03.452 0 .402-.066.754-.198 1.055a2.243 2.243 0 0 1-.517.75 2.115 2.115 0 0 1-.721.447c-.268.098-.538.15-.81.153-.733 0-1.312-.193-1.737-.579-.217.201-.456.346-.718.435a2.5 2.5 0 0 1-.807.133zm1.395-6.683l-1.005 1.017-1.004-1.005 1.004-1.016 1.005 1.004zm2.535-.023l-.993 1.004-1.034-.992 1.016-1.017 1.01 1.005zm-1.306-1.667l-.945.946-.934-.934.945-.945.934.933zm-6.855 8.385h-.478c-.524 0-1.024-.23-1.501-.69-.13.153-.285.28-.464.38-.18.1-.371.18-.576.24-.205.059-.413.1-.624.124a5.44 5.44 0 0 1-.605.035c-.15 0-.302-.009-.455-.027a5.701 5.701 0 0 1-.523-.088 12.096 12.096 0 0 1-.67-.166 34.806 34.806 0 0 1-.905-.263l.426-1.412a8.22 8.22 0 0 0 1.495.428c.244.046.478.075.703.09.224.013.425.008.602-.016.178-.023.328-.068.452-.133a.507.507 0 0 0 .252-.262c.02-.048.03-.09.03-.128a.351.351 0 0 0-.033-.132 1.26 1.26 0 0 0-.104-.187 32.698 32.698 0 0 1-.183-.286l-2.098-2.949 1.241-.798 2.11 3.197c.114.174.234.353.36.538.126.185.252.354.378.505.127.152.249.277.367.375.118.099.226.148.325.148h.478v1.477zm-10.222 0c-.378 0-.726-.054-1.043-.162a2.423 2.423 0 0 1-.819-.461 2.114 2.114 0 0 1-.534-.712 2.149 2.149 0 0 1-.192-.916 2.95 2.95 0 0 1 .458-1.622c.14-.227.303-.443.49-.65.187-.207.385-.42.594-.641l-.372-.42 1.087-.986c.043.05.094.108.153.17.06.064.12.129.18.196a19.154 19.154 0 0 0 .34.366c.284.304.56.598.83.884.27.285.51.57.722.856.21.286.38.574.508.863.128.29.19.59.186.901a2.147 2.147 0 0 1-.207.931 2.53 2.53 0 0 1-.585.76 2.727 2.727 0 0 1-1.796.643zm-.071-4.26l-.446.502c-.14.158-.26.315-.36.473-.101.158-.178.32-.231.487-.053.168-.074.35-.062.547.012.146.055.27.13.375a.972.972 0 0 0 .277.26c.11.07.233.12.367.151.134.031.266.047.396.047.15 0 .293-.021.431-.065a1.19 1.19 0 0 0 .364-.183.91.91 0 0 0 .25-.29.77.77 0 0 0 .095-.378c0-.17-.033-.335-.1-.496a2.431 2.431 0 0 0-.27-.479 4.804 4.804 0 0 0-.386-.472 24.84 24.84 0 0 0-.455-.479zm-7.99-.703c.009.027.025.092.051.195a18.448 18.448 0 0 1 .183.869c.034.18.065.363.095.546.03.183.053.361.07.535.018.173.027.325.027.455 0 .406-.067.757-.2 1.055-.135.297-.31.542-.527.735-.216.193-.46.337-.73.432-.27.094-.54.141-.812.141h-1.572v-1.47h1.613c.048 0 .116-.008.204-.022a.664.664 0 0 0 .266-.109.757.757 0 0 0 .234-.269c.067-.12.1-.284.1-.493 0-.087-.007-.192-.02-.316a7.42 7.42 0 0 0-.057-.4 13.7 13.7 0 0 0-.08-.434l-.085-.42a8.605 8.605 0 0 0-.148-.61l1.389-.42zm-2.546 7.02l1.064-1.076 1.087 1.088-1.076 1.075-1.075-1.087zm-.638-3.528v1.471h-.373c-.334 0-.64-.045-.915-.135a1.845 1.845 0 0 1-.698-.402c-.22.185-.481.32-.783.407-.301.087-.645.13-1.03.13h-1.047v-1.47h1.046c.24 0 .433-.024.576-.069a.861.861 0 0 0 .325-.168.464.464 0 0 0 .142-.225.954.954 0 0 0 .033-.242v-1.915h1.465v1.874c0 .177.04.316.118.416.08.1.169.175.27.225.1.049.2.078.298.088.098.01.165.015.2.015h.373zm-3.404-5.336l1.064-1.075 1.087 1.087-1.075 1.075-1.076-1.087zm-10.205 6.807v-1.47h1.176l.496-.763v-6.287h1.466v4.485c.157-.162.323-.31.496-.447.174-.136.355-.254.544-.354.189-.1.386-.18.59-.237.206-.057.418-.085.639-.085.311 0 .616.045.916.136.3.09.567.24.803.449.237.209.427.482.57.821.144.339.216.757.216 1.253 0 .2-.014.386-.044.555-.03.17-.072.327-.127.473h1.276v1.471H198.5zm5.407-3.693c-.229 0-.465.061-.71.183a3.63 3.63 0 0 0-.726.49c-.24.206-.47.442-.691.71a7.78 7.78 0 0 0-.603.84h2.73c.047 0 .113-.005.198-.013s.175-.024.272-.05c.096-.026.195-.061.295-.106a.913.913 0 0 0 .47-.464.934.934 0 0 0 .077-.396c0-.22-.038-.407-.113-.559a1.04 1.04 0 0 0-.295-.369 1.157 1.157 0 0 0-.42-.204 1.9 1.9 0 0 0-.484-.062zm-.703-3.977l1.063-1.075 1.088 1.087-1.076 1.076-1.075-1.088zm-4.267 7.67h-.224c-.162 0-.314-.01-.458-.03a1.018 1.018 0 0 1-.423-.165c-.047.509-.163.97-.348 1.383a3.305 3.305 0 0 1-.742 1.06 3.25 3.25 0 0 1-1.108.683c-.43.162-.912.243-1.448.243h-.738v-1.472h.738c.379 0 .706-.04.981-.118.276-.079.503-.205.68-.378.177-.173.31-.399.396-.677.086-.277.13-.615.13-1.013v-3.599h1.471v1.767a.75.75 0 0 0 .115.437.934.934 0 0 0 .558.378c.095.02.16.03.196.03h.224v1.471zm-11.664-1.116c.035 0 .091-.007.168-.021a.484.484 0 0 0 .234-.127.898.898 0 0 0 .21-.328c.06-.148.091-.356.091-.623a1.794 1.794 0 0 0-.251-.86 1.297 1.297 0 0 0-.372-.39 1.005 1.005 0 0 0-.588-.163.704.704 0 0 0-.503.183 1.55 1.55 0 0 0-.328.455 3.642 3.642 0 0 0-.224.588c-.061.211-.127.403-.198.577.146.082.3.166.464.25.163.085.324.161.481.228.158.067.307.122.447.166.14.043.262.065.369.065zm-.508-3.977c.413 0 .775.077 1.084.23.31.154.565.36.768.618.203.258.355.556.455.895.1.339.15.693.15 1.064 0 .41-.035.758-.106 1.046-.07.287-.164.525-.28.715-.116.189-.248.337-.396.446a1.764 1.764 0 0 1-.872.342c-.138.014-.256.021-.354.021-.197 0-.384-.019-.562-.056a3.714 3.714 0 0 1-.54-.16 5.605 5.605 0 0 1-.57-.254c-.198-.1-.412-.213-.645-.34-.177.19-.367.325-.57.405-.203.081-.44.121-.712.121h-.727l-.012-1.47h.74a.357.357 0 0 0 .227-.078.738.738 0 0 0 .177-.215c.053-.093.102-.205.148-.337.045-.132.091-.279.138-.44.08-.284.174-.577.284-.878.11-.301.257-.576.44-.824.184-.248.415-.452.695-.612.28-.16.626-.24 1.04-.24zm-10.73 3.622c.059-.004.13-.016.214-.035a.66.66 0 0 0 .249-.122c.08-.06.15-.15.206-.265.058-.117.086-.273.086-.47v-1.72h1.466v1.69c0 .323.076.558.23.703.154.146.404.22.75.22a.918.918 0 0 0 .281-.045.667.667 0 0 0 .251-.148.773.773 0 0 0 .183-.269c.048-.11.075-.246.083-.408v.003-1.746h1.472v1.75c.007.303.1.522.277.658.178.136.45.204.816.204h.579v1.471h-.58c-.405 0-.758-.044-1.057-.133a1.923 1.923 0 0 1-.774-.434c-.201.185-.436.326-.706.423-.27.096-.545.144-.825.144a3.14 3.14 0 0 1-.972-.135 1.984 1.984 0 0 1-.741-.438 2.268 2.268 0 0 1-1.46.573 2.866 2.866 0 0 1-.978-.141 2.283 2.283 0 0 1-.73-.408c-.46.366-1.079.55-1.855.55h-.762v-1.472h.762c.233 0 .42-.02.564-.059a.778.778 0 0 0 .337-.174.57.57 0 0 0 .163-.281c.027-.11.041-.236.041-.378v-1.72h1.471v1.69c0 .32.077.552.23.698.154.145.396.22.729.224zm1.393-5.058l-1.004 1.016-1.005-1.004 1.005-1.017 1.004 1.005zm2.535-.024l-.992 1.005-1.035-.993 1.017-1.016 1.01 1.004zm-1.306-1.666l-.945.945-.934-.933.946-.946.933.934zm-6.647 8.22h-.178c-.346 0-.648-.033-.904-.098a2.78 2.78 0 0 1-.691-.272 2.857 2.857 0 0 1-.564-.42 8.826 8.826 0 0 1-.523-.546 1.518 1.518 0 0 1-.452.632 2.595 2.595 0 0 1-.71.42c-.265.106-.55.182-.853.227a5.143 5.143 0 0 1-.899.056h-1.843v-1.47h1.926c.26 0 .5-.016.721-.045.22-.03.412-.08.573-.148a.993.993 0 0 0 .384-.275.72.72 0 0 0 .16-.42c0-.169-.072-.383-.216-.643-.144-.26-.33-.55-.561-.869-.23-.32-.49-.657-.78-1.013l-.878-1.085.249-1.2 5.129-2.487.602 1.347-4.485 2.074c.37.497.74.99 1.108 1.48.369.491.738.984 1.108 1.48.217.288.416.543.597.766.181.223.363.41.547.564.183.154.375.271.576.352.2.08.427.121.68.121h.177v1.471zM159.7 140.29a3.35 3.35 0 0 1-.804-.094 3.005 3.005 0 0 1-.72-.278 3.19 3.19 0 0 1-.621-.44 2.92 2.92 0 0 1-.496-.588 3.376 3.376 0 0 1-.18-.334 2.907 2.907 0 0 1-.163-.434 4.086 4.086 0 0 1-.165-1.182c0-.193.01-.391.029-.594.02-.203.056-.419.11-.647.053-.229.127-.476.224-.742.096-.266.223-.562.381-.89l1.33.633a9.216 9.216 0 0 0-.296.67 5.387 5.387 0 0 0-.189.574 3.827 3.827 0 0 0-.13 1.002c0 .224.025.434.074.629.05.195.123.371.221.529l-.005-.006c.15.213.35.386.6.52s.516.2.8.2h.272c.413 0 .751-.043 1.013-.13.262-.086.467-.208.615-.366.148-.157.248-.348.301-.573a3.26 3.26 0 0 0 .08-.75v-8.497h1.454v6.251c0 .122.028.233.085.331a.846.846 0 0 0 .222.251 1.123 1.123 0 0 0 .656.216h.313v1.471h-.313a3.36 3.36 0 0 1-.346-.014 1.17 1.17 0 0 1-.245-.05.824.824 0 0 1-.192-.092 1.651 1.651 0 0 1-.18-.139v.272c0 2.186-1.155 3.283-3.463 3.291h-.272zm-10.743-3.262a4.12 4.12 0 0 1-.443-.023 6.015 6.015 0 0 1-.904-.169 16.891 16.891 0 0 1-.496-.139l-.704-.212.426-1.418c.343.118.698.222 1.066.313.369.09.715.15 1.04.177.326.028.607.015.845-.038.239-.054.4-.167.482-.34a.29.29 0 0 0 .009-.207.831.831 0 0 0-.127-.26l-2.204-3.215 1.24-.803.403.62c0 .004.006.016.02.036a103.789 103.789 0 0 0 .564.85l.464.7.66.997c.2.303.323.616.369.94.045.322.005.63-.122.92a1.682 1.682 0 0 1-.268.435c-.113.132-.244.25-.393.352-.28.193-.617.325-1.01.396-.332.059-.637.088-.917.088zm-4.06-.006h-1.47v-8.52h1.47v8.52zm-2.883-.36a4.374 4.374 0 0 1-.301 1.468 3.252 3.252 0 0 1-.733 1.111c-.311.306-.687.541-1.129.706-.44.166-.94.249-1.495.249h-.732v-1.472h.732c.379 0 .706-.04.981-.118.276-.079.503-.205.68-.378.177-.173.31-.399.396-.677.086-.277.13-.615.13-1.013v-3.599h1.471v3.723zm-7.032.36c-.378 0-.726-.054-1.043-.162a2.423 2.423 0 0 1-.818-.461 2.114 2.114 0 0 1-.535-.712 2.149 2.149 0 0 1-.192-.916 2.95 2.95 0 0 1 .458-1.622c.14-.227.303-.443.49-.65.188-.207.386-.42.594-.641l-.372-.42 1.087-.986c.044.05.095.108.154.17.06.064.12.129.18.196a19.143 19.143 0 0 0 .34.366c.284.304.56.598.83.884.27.285.51.57.721.856.21.286.38.574.508.863.128.29.19.59.186.901a2.147 2.147 0 0 1-.206.931 2.53 2.53 0 0 1-.585.76 2.727 2.727 0 0 1-1.797.643zm-.07-4.26l-.447.502c-.14.158-.26.315-.36.473-.1.158-.177.32-.23.487-.054.168-.075.35-.063.547.012.146.055.27.13.375a.972.972 0 0 0 .278.26c.11.07.232.12.366.151.134.031.266.047.396.047.15 0 .294-.021.432-.065a1.19 1.19 0 0 0 .363-.183.91.91 0 0 0 .251-.29.77.77 0 0 0 .095-.378c0-.17-.034-.335-.1-.496a2.431 2.431 0 0 0-.27-.479 4.804 4.804 0 0 0-.387-.472 24.847 24.847 0 0 0-.455-.479z"/>
        <g fill-rule="nonzero" transform="translate(0 14)">
            <circle cx="24.5" cy="24.5" r="24.5" fill="#7284D8"/>
            <path fill="#FF9800" d="M29.4 33.075s0 4.9-4.9 4.9-4.9-4.9-4.9-4.9"/>
            <path fill="#BD5AFF" d="M24.5 49c5.49 0 10.541-1.828 14.625-4.878-.758-9.268-10.031-11.047-10.031-11.047l-4.594.943-4.594-.943s-9.275 1.744-10.032 11.047C13.959 47.172 19.01 49 24.5 49z"/>
            <path fill="#311B92" d="M24.5 40.425c3.747 0 6.833-2.808 7.286-6.431a14.444 14.444 0 0 0-2.393-.85 4.897 4.897 0 0 1-4.893 4.831 4.896 4.896 0 0 1-4.893-4.833c-.432.106-1.312.36-2.395.843.449 3.629 3.537 6.44 7.288 6.44z"/>
            <path fill="#F9C394" d="M34.3 22.663a1.838 1.838 0 1 1-3.676-.002 1.838 1.838 0 0 1 3.676.002zm-15.925 0a1.838 1.838 0 1 0-3.676 0 1.838 1.838 0 0 0 3.676 0zM29.4 33.075v-4.9h-9.8v4.9s0 4.9 4.9 4.9 4.9-4.9 4.9-4.9z"/>
            <path fill="#FFD6B2" d="M33.075 17.983c0-7.202-17.15-4.688-17.15 0v5.379c0 4.684 3.838 8.49 8.575 8.49 4.736 0 8.575-3.804 8.575-8.49v-5.379z"/>
            <path fill="#4E342E" d="M24.5 8.575c-5.953 0-9.8 5.283-9.8 10.01v2.24l2.45 2.45v-4.9L28.42 14.7l3.43 3.675v4.9l2.45-2.45v-.991c0-3.942-1.018-8.334-5.88-9.3l-.981-1.959H24.5z"/>
        </g>
        <g fill-rule="nonzero" transform="translate(308 108)">
            <circle cx="24.5" cy="24.5" r="24.5" fill="#7284D8"/>
            <path fill="#4E342E" d="M17.15 17.456h14.7v16.538h-14.7z"/>
            <path fill="#FF5A6E" d="M24.5 49c5.49 0 10.541-1.828 14.627-4.878-.753-9.037-9.727-11.047-9.727-11.047h-9.8s-8.977 1.977-9.727 11.047C13.96 47.172 19.01 49 24.5 49z"/>
            <path fill="#F9C394" d="M24.5 37.669c-1.763 0-4.288-4.594-4.288-4.594V26.95h8.576v6.125s-2.525 4.594-4.288 4.594"/>
            <path fill="#FFD6B2" d="M33.075 23.275c0 4.567-4.008 8.575-8.575 8.575-4.568 0-8.575-4.008-8.575-8.575v-7.35c0-4.567 17.15-7.014 17.15 0v7.35zM24.5 39.2c3.554 0 4.288-6.125 4.288-6.125S26.504 36.75 24.5 36.75c-2.004 0-4.288-3.675-4.288-3.675S20.947 39.2 24.5 39.2z"/>
            <path fill="#4E342E" d="M24.5 8.575c-5.581 0-13.475 2.559-13.475 20.825l6.125 4.594V20.825L28.175 14.7l3.675 4.9v14.7l6.125-6.125c0-3.698-.312-17.763-9.8-17.763L26.95 8.575H24.5z"/>
        </g>
    </g>
</svg>
